<?xml version="1.0" encoding="UTF-8"?>
<svg id="Layer_1" data-name="Layer 1" xmlns="http://www.w3.org/2000/svg" viewBox="0 0 64 64">
  <defs>
    <style>
      .cls-1 {
        fill: #277fe7;
      }

      .cls-2 {
        fill: #7f7f7f;
      }
    </style>
  </defs>
  <path class="cls-1"
    d="M36.01,64c-.42-.11-.84-.2-1.25-.32-2.92-.88-4.8-3.48-4.83-6.7-.02-2.32,0-4.63,0-6.95,0-.22,0-.45,0-.82-.52,.46-.93,.82-1.4,1.24-1.11-1.22-2.21-2.43-3.36-3.69,6.48-5.92,12.93-11.82,19.41-17.75,1.66,1.52,3.29,3,4.92,4.49,4.77,4.36,9.53,8.72,14.3,13.07,.06,.05,.13,.09,.2,.14v.13c-1.12,1.19-2.24,2.37-3.38,3.59-.45-.41-.86-.77-1.38-1.24,0,.34,0,.54,0,.74,0,2.44,.02,4.88,0,7.32-.04,2.99-2.03,5.6-4.85,6.43-.41,.12-.84,.21-1.26,.31h-17.12Zm8.6-28.2c-.09,.06-.14,.09-.19,.13-3.08,2.81-6.16,5.62-9.22,8.44-.18,.16-.27,.5-.27,.76-.02,3.9-.01,7.81-.01,11.71,0,1.45,.69,2.13,2.16,2.13,5.02,0,10.04,0,15.05,0,1.46,0,2.13-.68,2.13-2.15,0-3.88,0-7.76,0-11.65,0-.41-.12-.69-.43-.97-2.5-2.27-4.99-4.55-7.48-6.83-.58-.53-1.17-1.06-1.75-1.59Z" />
  <path class="cls-2"
    d="M50.96,28.03c-.12-.1-.24-.18-.34-.28-1.42-1.29-2.84-2.58-4.24-3.89-.19-.18-.35-.47-.38-.73-.56-4.19-2.17-7.9-4.96-11.07-3.32-3.77-7.46-6.07-12.43-6.82-4.4-.66-8.59,.03-12.52,2.11-4.48,2.36-7.72,5.91-9.58,10.63-2.43,6.17-1.84,12.16,1.18,17.99,2.91,5.61,6.83,10.46,11.18,14.98,2.02,2.1,4.18,4.07,6.3,6.08,.3,.28,.43,.56,.43,.97-.02,1.92,0,3.83,0,5.91-.6-.49-1.1-.87-1.58-1.28-6.4-5.4-12.19-11.38-17.02-18.24C4,40.17,1.53,35.66,.49,30.52c-.89-4.38-.55-8.72,.86-12.96,1.51-4.54,4.1-8.37,7.74-11.46C12.88,2.89,17.24,.91,22.17,.24c4.52-.62,8.89-.05,13.09,1.69,4.1,1.7,7.55,4.3,10.31,7.79,2.78,3.52,4.53,7.5,5.26,11.94,.31,1.86,.41,5.23,.14,6.38Z" />
  <path class="cls-2"
    d="M25.56,15.01c5.85-.02,10.61,4.74,10.6,10.61,0,5.85-4.71,10.58-10.56,10.59-5.85,.02-10.61-4.74-10.6-10.61,0-5.85,4.71-10.58,10.56-10.59Zm5.61,10.63c.02-3.09-2.49-5.62-5.58-5.62-3.06,0-5.55,2.46-5.6,5.55-.05,3.07,2.45,5.62,5.55,5.66,3.07,.03,5.61-2.48,5.63-5.58Z" />
  <path class="cls-1" d="M48.34,53.83h-7.38v-7.45h7.38v7.45Z" />
</svg>