<?xml version="1.0" encoding="utf-8"?>
<!-- Generator: Adobe Illustrator 27.0.1, SVG Export Plug-In . SVG Version: 6.00 Build 0)  -->
<svg version="1.1" id="Layer_1" xmlns="http://www.w3.org/2000/svg" xmlns:xlink="http://www.w3.org/1999/xlink" x="0px"
	y="0px" viewBox="0 0 250 250" style="enable-background:new 0 0 250 250;" xml:space="preserve">
	<style type="text/css">
		.st0 {
			fill: #0e4fc7;
		}
	</style>
	<g>
		<path class="st0" d="M0,109.4c1.2-2.2,3.1-3,5.6-3c35,0.1,70,0,105,0c4.2,0,5.5,1.4,5.6,5.6c0,7.8,0,15.6,0,23.4
		c0,8.6,4.4,15.2,11.9,18.1c7.7,3,15.8,1,21.5-5.4c18.3-20.5,23.1-44.3,16.7-70.7c-0.3-1.4-0.4-3.1,0.1-4.4c0.7-1.7,2.6-2.2,4.4-1.6
		c1.6,0.5,3.1,1.3,4.7,2c2.4,1.1,4.8,0.5,5.9-1.6c1.1-2.1,0.4-4.4-2-5.8c-6.2-3.4-12.8-4.7-19.8-4c-0.8,0.1-1.6,0.3-2.4,0.3
		c-2.4,0-4.2-1.5-4.4-3.7c-0.3-2.3,1.3-4.2,3.7-4.6c5.4-0.9,10.9-0.6,16.2,0.5c0.7,0.1,1.4,0.3,2.1,0.1c5.6-1.2,11.2-2.6,16.9-3.5
		c3.2-0.5,6.6-0.8,9.7-0.2c8.2,1.5,13.7,8,14.6,16.5c0.8,7.6-3.6,15.1-10.9,18.5c-0.5,0.2-1,0.5-1.7,0.8
		c7.5,13.9,13.2,28.3,16.1,44.1c-17.2-3.7-32.5-0.4-45.7,10.8c-13.2,11.2-19.1,25.7-18,43.3c-0.6,0-1.5,0-2.4,0
		c-39.8,0-79.6,0-119.4,0c-4.3,0-5.8-1-5.8-5.3c0-6.3,0-12.7,0.7-19c1.1-9.5,7.2-16,14.6-21.2c14.1-9.8,32.8-7.8,45.6,4.6
		c0.6,0.6,1.2,1.3,1.9,1.9c1.9,1.7,4.3,1.8,5.9,0.1c1.6-1.6,1.7-4.1,0-5.9c-5.1-5.6-11.2-9.9-18.4-12.5c-6.5-2.4-13.2-3.4-20.1-2.5
		c-0.6,0.1-1.3,0.1-1.9,0.1c-1.9,0-3.2-1-3.9-2.7c-0.7-1.7-0.2-3.2,1.1-4.4c1.3-1.1,2.7-2.1,4.3-3.4c-11.7,0-23,0-34.7,0
		c0.2,0.8,0.4,1.6,0.7,2.4c2,4.9,5.1,8.8,9.4,11.8c2.2,1.5,2.8,3.5,2,5.4c-1.1,2.5-4,3.2-6.6,1.5c-6.9-4.7-11.4-11-13.7-19
		c-0.2-0.8-0.4-1.5-0.7-2.4c-3,0-6-0.1-8.9,0c-2.6,0.1-4.4-0.7-5.6-3C0,111,0,110.2,0,109.4z" />
		<path class="st0" d="M44.1,38.2c7.8,0,15.6,0,23.4,0c8.6,0,13.7,5.1,13.7,13.6c0,6.1,0,12.2,0,18.3c0,4.1-0.9,5.2-5,5.7
		C65.7,77.2,58.2,83.7,55.3,94c-0.9,3.3-2,4.2-5.5,4.2c-12.5,0-25.1,0-37.6,0c-4,0-5.4-1.4-5.4-5.4c0-13.7,0-27.3,0-41
		c0-8.4,5.2-13.5,13.6-13.5C28.3,38.2,36.2,38.2,44.1,38.2z" />
		<path class="st0" d="M207,185.1c-12.5,0-25,0-37.6,0c-4.2,0-5.5-1.4-5.4-5.6c0.5-24,21.8-43.3,45.8-41.5
		c22.3,1.7,39.8,19.7,40.2,41.5c0.1,4.2-1.3,5.6-5.5,5.6C232,185.1,219.5,185.1,207,185.1z" />
		<path class="st0"
			d="M98.3,98.2c-9.5,0-19,0-28.6,0c-2,0-3.7-0.4-4.8-2.3c-1.1-1.9-0.3-3.6,0.8-5.2c3-4.3,7.2-6.6,12.4-6.6
		c13.5-0.1,27-0.1,40.5,0c5.4,0,9.7,2.5,12.7,7c1,1.5,1.7,3.3,0.4,4.7c-1,1.1-2.8,2.2-4.2,2.2C117.8,98.3,108.1,98.2,98.3,98.2z" />
		<path class="st0" d="M207.5,193.5c6.4,0,12.8,0,19.3,0c2.2,0,4.1,0.3,5.1,2.5c0.9,2.1,0,3.7-1.4,5.3c-12,14.1-34.8,13.9-46.6-0.3
		c-1.3-1.6-1.9-3.2-1-5.1c0.9-1.8,2.5-2.4,4.4-2.4C194,193.5,200.7,193.5,207.5,193.5z" />
		<path class="st0" d="M75.6,193.5c6.5,0,13,0,19.5,0c2.1,0,3.9,0.4,4.9,2.4c1,2.2,0,3.9-1.4,5.5c-12,13.9-34.3,13.8-46.3-0.1
		c-1.4-1.6-2.2-3.3-1.3-5.3c0.9-2.1,2.7-2.5,4.8-2.5C62.4,193.5,69,193.5,75.6,193.5z" />
	</g>
</svg>