<?xml version="1.0" encoding="utf-8"?>
<!-- Generator: Adobe Illustrator 28.2.0, SVG Export Plug-In . SVG Version: 6.00 Build 0)  -->
<svg version="1.1" id="Layer_1" xmlns="http://www.w3.org/2000/svg" xmlns:xlink="http://www.w3.org/1999/xlink" x="0px" y="0px"
	 viewBox="0 0 24 24" style="enable-background:new 0 0 24 24;" xml:space="preserve">
<style type="text/css">
	.st0{fill:#535355;}
</style>
<g>
	<path class="st0" d="M2.2,12c0-2.2,0-4.4,0-6.6c0-1.6,1-2.8,2.5-3.1c0.2-0.1,0.5-0.1,0.8-0.1c1.7,0,3.3,0,5,0
		c0.6,0,0.7-0.2,0.7-0.8c0-0.2,0-0.4,0-0.7C11.2,0.3,11.5,0,12,0c0.5,0,0.8,0.3,0.8,0.8c0,0.3,0,0.6,0,0.9c0,0.5,0,0.5,0.4,0.5
		c0.4,0.1,0.7,0.4,0.7,0.8c0,0.4-0.2,0.7-0.6,0.8c-0.1,0-0.2,0-0.2,0c-0.2,0-0.3,0.1-0.3,0.3c0,0.1,0,0.1,0,0.2c0,5.1,0,10.1,0,15.2
		c0,0.5,0,0.5,0.4,0.5c0.4,0.1,0.7,0.4,0.7,0.8c0,0.4-0.3,0.7-0.6,0.8c-0.5,0.1-0.5,0.1-0.5,0.6c0,0.3,0,0.6,0,0.8
		c0,0.5-0.4,0.8-0.8,0.8c-0.5,0-0.8-0.4-0.8-0.8c0-0.2,0-0.5,0-0.7c0-0.4-0.2-0.7-0.7-0.7c-1.3,0-2.6,0-3.9,0c-0.5,0-0.9,0-1.4,0
		c-1.7-0.1-3-1.4-3-3.1C2.2,16.4,2.2,14.2,2.2,12z M11.2,12c0-2.5,0-4.9,0-7.4c0-0.5-0.2-0.7-0.7-0.7c-1.7,0-3.4,0-5.1,0
		c-0.9,0-1.5,0.6-1.5,1.5c0,4.4,0,8.8,0,13.2c0,0.9,0.6,1.5,1.5,1.5c1.7,0,3.3,0,5,0c0.5,0,0.7-0.2,0.7-0.7
		C11.2,16.9,11.2,14.5,11.2,12z"/>
	<path class="st0" d="M21.8,18.3c0,0.7-0.1,1.4-0.5,2c-0.5,0.8-1.3,1.3-2.3,1.4c-0.5,0-1,0-1.4,0c-0.4,0-0.8-0.3-0.8-0.7
		c0-0.4,0.2-0.8,0.6-0.9c0.1,0,0.2,0,0.3,0c0.3,0,0.6,0,1,0c0.9,0,1.5-0.6,1.5-1.5c0-0.3,0-0.7,0-1c0-0.5,0.3-0.8,0.8-0.8
		c0.5,0,0.8,0.3,0.9,0.8C21.8,17.8,21.8,18,21.8,18.3z"/>
	<path class="st0" d="M21.8,5.8c0,0.2,0,0.4,0,0.6c0,0.5-0.4,0.9-0.9,0.9c-0.5,0-0.8-0.4-0.8-0.9c0-0.3,0-0.7,0-1
		c0-0.9-0.6-1.4-1.5-1.5c-0.4,0-0.7,0-1.1,0c-0.4,0-0.8-0.3-0.8-0.8c0-0.5,0.3-0.9,0.7-0.9c0.6,0,1.2-0.1,1.8,0.1
		c1.5,0.3,2.4,1.5,2.5,3C21.8,5.5,21.8,5.6,21.8,5.8z"/>
	<path class="st0" d="M20.1,12c0-0.4,0-0.7,0-1.1c0-0.5,0.3-0.8,0.8-0.8c0.5,0,0.9,0.3,0.9,0.7c0,0.8,0,1.6,0,2.4
		c0,0.5-0.4,0.8-0.9,0.8c-0.4,0-0.8-0.4-0.8-0.8C20.1,12.7,20.1,12.4,20.1,12z"/>
</g>
</svg>
