<?xml version="1.0" encoding="utf-8"?>
<!-- Generator: Adobe Illustrator 27.0.1, SVG Export Plug-In . SVG Version: 6.00 Build 0)  -->
<svg version="1.1" id="Layer_1" xmlns="http://www.w3.org/2000/svg" xmlns:xlink="http://www.w3.org/1999/xlink" x="0px"
	y="0px" viewBox="0 0 250 250" style="enable-background:new 0 0 250 250;" xml:space="preserve">
	<style type="text/css">
		.st0 {
			fill: #0e4fc7;
		}
	</style>
	<g>
		<path class="st0" d="M250,187c-0.8,2.6-1.3,5.4-2.5,7.8c-5,10.4-13.4,15.9-25,16.1c-12.5,0.2-25.1,0-37.6,0
		c-52.2,0-104.3,0-156.5,0c-13.8,0-24.7-8.3-27.7-21.2c-0.5-2.3-0.7-4.7-0.7-7c0-38.5,0-77,0-115.5c0-16.3,11.9-28.2,28.2-28.2
		c64.5,0,129,0,193.6,0c14.4,0,25.2,9,27.8,23.1c0.1,0.3,0.3,0.6,0.4,0.9C250,104.3,250,145.6,250,187z M15.6,97.7
		c0,1.1,0,1.9,0,2.7c0,27.3,0,54.5,0,81.8c0,8.4,4.7,13.1,13.2,13.1c64.1,0,128.3,0,192.4,0c8.5,0,13.2-4.7,13.2-13.1
		c0-27.3,0-54.5,0-81.8c0-0.9,0-1.7,0-2.7C161.4,97.7,88.6,97.7,15.6,97.7z M234.4,81.9c0-4.6,0-9.2,0-13.7c0-9-4.5-13.5-13.5-13.5
		c-63.9,0-127.9,0-191.8,0c-0.7,0-1.3,0-2,0c-5.8,0.2-10.9,4.4-11.3,10.1c-0.4,5.6-0.1,11.3-0.1,17.1
		C88.6,81.9,161.4,81.9,234.4,81.9z" />
		<path class="st0" d="M51,148.4c8.5-0.7,11.7,2.8,11.7,11.6c0,9.1-3,12-11.9,12c-9,0-11.8-3.3-11.8-11.6
		C38.9,151.1,41.9,147.7,51,148.4z" />
	</g>
</svg>