<?xml version="1.0" encoding="UTF-8"?>
<svg id="Layer_1" data-name="Layer 1" xmlns="http://www.w3.org/2000/svg" viewBox="0 0 64 64">
  <defs>
    <style>
      .cls-1 {
        fill: #277fe7;
      }

      .cls-2 {
        fill: #7f7f7f;
      }
    </style>
  </defs>
  <path class="cls-2"
    d="M64,64H20v-24c-.31,0-.53,0-.76,0-3.91,0-7.83,.02-11.74,0-2.51-.02-4.52-1.09-6.05-3.08-.78-1.02-1.12-2.21-1.44-3.41v-13.5H10c0-2.48-.01-4.88,0-7.27,0-.79,.04-1.59,.19-2.36C11.37,4.17,16.41,0,22.74,0c6.17,0,12.33,0,18.5,0,.62,0,1.25,.04,1.87,.11,5.5,.6,10.18,5.28,10.77,10.79,.11,1.01,.12,2.02,.18,3.1h9.94v49.99ZM25.04,19.03V58.95H58.95V19.04h-4.97v4.91H29.98v-4.92h-4.93Zm-5.02,15.95V13.99h9.97c0-.66,.02-1.28,0-1.9-.19-4.32-4.3-7.68-8.55-7-3.82,.61-6.4,3.68-6.45,7.57-.08,7.44,.23,14.88-.19,22.33h5.22Zm28.98-15.99c0-.23,0-.42,0-.6,0-1.94,0-3.87,0-5.81-.02-4.25-3.32-7.56-7.56-7.58-2.77-.01-5.54,0-8.31,0-.17,0-.35,.02-.57,.04,.08,.13,.12,.2,.16,.27,1.58,2.28,2.32,4.81,2.28,7.58-.02,1.81,0,3.62,0,5.43v.67h14ZM5,25.03c0,2.47,0,4.88,0,7.29,0,1.56,1.07,2.69,2.52,2.68,1.43-.01,2.47-1.12,2.48-2.65,0-2.27,0-4.54,0-6.81,0-.16-.01-.32-.02-.51H5Z" />
  <path class="cls-1" d="M53.97,29.04v4.93H30.05v-4.93h23.92Z" />
  <path class="cls-1" d="M39.47,39.04v4.92h-9.43v-4.92h9.43Z" />
  <path class="cls-1" d="M53.97,39.04v4.92h-9.42v-4.92h9.42Z" />
  <path class="cls-1" d="M39.45,53.98h-9.41v-4.95h9.41v4.95Z" />
  <path class="cls-1" d="M53.95,53.98h-9.41v-4.95h9.41v4.95Z" />
</svg>