<?xml version="1.0" encoding="UTF-8"?>
<svg xmlns="http://www.w3.org/2000/svg" version="1.1" viewBox="0 0 64 64">
  <defs>
    <style>
      .cls-1 {
        fill: #606060;
      }

      .cls-2 {
        fill: none;
      }

      .cls-3 {
        fill: #277fe7;
      }
    </style>
  </defs>
  <!-- Generator: Adobe Illustrator 28.7.1, SVG Export Plug-In . SVG Version: 1.2.0 Build 142)  -->
  <g>
    <g id="Layer_1">
      <path class="cls-2" d="M52.6,58.4c0,1-.9,1.9-1.9,1.8-1,0-1.9-.9-1.9-1.9s.9-1.9,1.9-1.8c1.1,0,2,.9,1.9,1.9Z"/>
      <path class="cls-2" d="M22.7,58.9v-.7c-.1.2-.1.4,0,.7Z"/>
      <path class="cls-2" d="M30.1,58.4c0,1-.9,1.9-1.9,1.9s-1.9-.9-1.9-1.9.9-1.8,1.9-1.8c1.1-.1,1.9.8,1.9,1.8Z"/>
      <path class="cls-2" d="M33.9,58.4v.2-.3s0,0,0,0Z"/>
      <g>
        <path class="cls-1" d="M0,23.8c.2-1,.3-2.1.6-3C2.7,12.9,9.5,7.6,17.9,7.6c9.4,0,18.8,0,28.2,0,8.9,0,15.5,6,17.3,13.1.3,1.3.5,2.7.6,4.1,0,2.5.1,5,0,7.6-.6,7.4-6.2,13.7-13.5,15.3-1.4.3-2.9.5-4.4.5-9.1,0-18.2,0-27.4,0-.4,0-.9.1-1.3.3-5.6,2.6-11.2,5.2-16.7,7.8-.2,0-.4.1-.6.2C0,45.5,0,34.7,0,23.8ZM3.9,50.3c.3-.1.5-.2.7-.3,4-1.8,8-3.7,11.9-5.5.4-.2.8-.3,1.3-.3,3.8,0,7.7,0,11.5,0,5.9,0,11.7,0,17.6,0,6,0,11.3-4.3,12.8-10.2.9-3.5.7-7.2.3-10.7-.9-7-6.6-11.8-13.6-11.8-9.5,0-19,0-28.5,0-1.3,0-2.5.2-3.8.5-6,1.6-10.1,7-10.1,13.3,0,8.1,0,16.2,0,24.4,0,.2,0,.4,0,.6Z"/>
        <path class="cls-3" d="M18.8,24.9c2.1,0,3.7,1.7,3.7,3.7,0,2-1.6,3.7-3.7,3.7-2.1,0-3.8-1.6-3.8-3.7,0-2.1,1.6-3.7,3.7-3.7Z"/>
        <path class="cls-3" d="M45.1,32.3c-2.1,0-3.7-1.7-3.7-3.7,0-2,1.7-3.7,3.7-3.7,2.1,0,3.7,1.7,3.7,3.7,0,2.1-1.7,3.7-3.7,3.7Z"/>
        <path class="cls-3" d="M32,32.3c-2.1,0-3.7-1.7-3.7-3.7,0-2.1,1.7-3.7,3.8-3.7,2,0,3.7,1.7,3.7,3.7,0,2.1-1.7,3.7-3.7,3.7Z"/>
      </g>
    </g>
  </g>
</svg>