<?xml version="1.0" encoding="utf-8"?>
<!-- Generator: Adobe Illustrator 28.2.0, SVG Export Plug-In . SVG Version: 6.00 Build 0)  -->
<svg version="1.1" id="Layer_1" xmlns="http://www.w3.org/2000/svg" xmlns:xlink="http://www.w3.org/1999/xlink" x="0px" y="0px"
	 viewBox="0 0 64 64" style="enable-background:new 0 0 64 64;" xml:space="preserve">
<style type="text/css">
	.st0{fill:#277FE7;}
	.st1{fill:none;}
	.st2{fill:#606060;}
</style>
<g>
	<path class="st0" d="M21.9,7.3c0.8-0.8,1.7-1.7,2.5-2.5c1.7,1.7,3.4,3.5,5.1,5.2c-0.8,0.8-1.7,1.7-2.5,2.5
		C25.3,10.8,23.6,9,21.9,7.3z"/>
	<path class="st0" d="M50.9,4.8c0.8,0.8,1.7,1.7,2.5,2.5c-1.7,1.7-3.4,3.5-5.1,5.2c-0.8-0.8-1.7-1.7-2.5-2.5
		C47.4,8.3,49.2,6.5,50.9,4.8z"/>
	<path class="st0" d="M39.5,0c0,2.5,0,4.9,0,7.4c-1.2,0-2.4,0-3.7,0c0-2.4,0-4.9,0-7.4C37,0,38.2,0,39.5,0z"/>
</g>
<path class="st1" d="M52.6,58.4c0,1-0.9,1.9-1.9,1.8c-1,0-1.9-0.9-1.9-1.9c0-1,0.9-1.9,1.9-1.8C51.8,56.5,52.7,57.4,52.6,58.4z"/>
<path class="st2" d="M20.4,49c0.3-0.1,0.5,0,0.8,0c11.2,0,22.4,0,33.6,0c0.5,0,0.7-0.2,0.9-0.7c2.6-9,5.2-18,7.7-27.1
	c0.2-0.8,0.4-1.5,0.6-2.3H15.8c-0.3-1.1-0.5-2.1-0.8-3.1c-0.7-2.7-2.8-4.4-5.6-4.4c-2.7,0-5.4,0-8.1,0.3c-0.4,1.5-0.8,3.1-1.3,4.6
	v0.8h3.7c0.5-1.5,0.9-1.9,2.5-1.9c1.6,0,3.2,0,4.8,0c2.5,10,4.9,20,7.4,30c0,0.1,0,0.2,0.1,0.4c-0.2,0.1-0.3,0.2-0.5,0.3
	c-2.2,1.3-3.3,3.8-2.6,6.3c0.6,2.5,2.8,4.2,5.4,4.2c0.7,0,1.4,0,2.2,0c0,0.2-0.1,0.3-0.1,0.5c0,0,0,0.1,0,0.1c0,0.1,0,0.1-0.1,0.2
	c0,0.1,0,0.2,0,0.4c0,0.1,0,0.2,0,0.3c0,0.1,0,0.1,0,0.2c0,0.2,0,0.4,0,0.7c0,0.3,0.1,0.6,0.2,0.9c0.1,0.3,0.2,0.6,0.3,0.9
	c0.1,0.1,0.1,0.3,0.2,0.4c0.1,0.3,0.3,0.5,0.5,0.8c0.1,0.1,0.2,0.3,0.3,0.4c0.1,0.1,0.2,0.2,0.3,0.3c0,0,0,0,0.1,0.1
	c0.1,0.1,0.2,0.2,0.3,0.3c0.3,0.2,0.6,0.4,0.9,0.6c0,0,0.1,0,0.1,0c0,0,0,0,0,0c0,0,0,0,0.1,0c0.1,0,0.1,0.1,0.2,0.1
	c0.1,0,0.1,0,0.2,0.1c0.2,0.1,0.5,0.2,0.8,0.2c0.4,0.1,0.7,0.1,1.1,0.1c0.4,0,0.8,0,1.1-0.1c0.1,0,0.1,0,0.2-0.1
	c0.1,0,0.2-0.1,0.4-0.1c0,0,0.1,0,0.1,0c0,0,0.1,0,0.1,0c0,0,0.1,0,0.2-0.1c0,0,0,0,0,0c0.1,0,0.2-0.1,0.3-0.1
	c0.2-0.1,0.5-0.2,0.7-0.4c0.1-0.1,0.2-0.2,0.3-0.3c0.1-0.1,0.2-0.1,0.2-0.2c0.1-0.1,0.1-0.1,0.2-0.2c0.3-0.2,0.5-0.5,0.7-0.9
	c0.1-0.1,0.2-0.2,0.2-0.4c0.2-0.2,0.3-0.5,0.4-0.8c0.1-0.1,0.1-0.3,0.1-0.4c0,0,0-0.1,0-0.1c0,0,0-0.1,0-0.1c0-0.1,0-0.1,0.1-0.2
	c0-0.1,0.1-0.2,0.1-0.4c0-0.1,0-0.2,0.1-0.4v0c0-0.1,0-0.2,0-0.3c0-0.1,0-0.2,0-0.3c0,0,0,0,0,0c0,0,0,0,0,0c0-0.1,0-0.1,0-0.2
	c0-0.1,0-0.2,0-0.3s0-0.2,0-0.3c0-0.1,0-0.2-0.1-0.2c0,0,0-0.1,0-0.1c0-0.1-0.1-0.3-0.1-0.5h11.8c0,0.1,0,0.1,0,0.2
	c0,0.2-0.1,0.3-0.1,0.5c0,0,0,0,0,0c0,0.2-0.1,0.3-0.1,0.5c0,0.2,0,0.4,0,0.6c0,0.3,0,0.7,0.1,1c0,0.1,0.1,0.2,0.1,0.3
	c0,0,0,0.1,0,0.1c0,0.1,0.1,0.3,0.1,0.4c0,0.1,0.1,0.3,0.2,0.4c0.1,0.2,0.2,0.4,0.3,0.6c0.1,0.2,0.2,0.3,0.3,0.5
	c0.1,0.2,0.3,0.4,0.4,0.5c0.1,0.1,0.2,0.2,0.3,0.3c0,0,0,0.1,0.1,0.1c0.1,0.1,0.2,0.2,0.3,0.2c0,0,0,0,0,0c0.7,0.5,1.5,0.9,2.3,1
	C50,64,50.4,64,50.8,64c0.4,0,0.8,0,1.1-0.1c2.4-0.5,4.2-2.5,4.4-4.9c0-0.2,0-0.4,0-0.6v0c0-0.6-0.1-1.1-0.2-1.7
	c-0.3-0.9-0.8-1.7-1.4-2.3c-0.1-0.1-0.3-0.2-0.4-0.4c-0.3-0.3-0.7-0.5-1.1-0.7c-0.1-0.1-0.2-0.1-0.4-0.2c-0.2-0.1-0.4-0.1-0.5-0.2
	c-0.3-0.1-0.7-0.2-1-0.2h0c-0.2,0-0.5,0-0.7,0H21.3c-0.2,0-0.4,0-0.6,0c-1-0.1-1.8-0.8-1.8-1.7C18.8,50.1,19.5,49.2,20.4,49z
	 M50.8,56.5c1,0,1.9,0.9,1.8,1.9c0,1-0.9,1.9-1.9,1.8c-1,0-1.9-0.9-1.9-1.9C48.9,57.3,49.8,56.5,50.8,56.5z M28.3,56.5
	c1,0,1.8,0.9,1.8,1.9c0,1-0.9,1.9-1.9,1.9c-1,0-1.9-0.9-1.9-1.9C26.4,57.3,27.3,56.5,28.3,56.5z M16.8,23.3c0-0.2-0.1-0.3-0.1-0.5
	H59c-2.2,7.5-4.3,15-6.4,22.5h-0.7c-9.9,0-19.8,0-29.7,0C20.4,37.9,18.6,30.6,16.8,23.3z"/>
<path class="st1" d="M22.7,58.9c0-0.2,0-0.3,0-0.5c0-0.1,0-0.1,0-0.2C22.6,58.4,22.6,58.6,22.7,58.9z"/>
<path class="st1" d="M30.1,58.4c0,1-0.9,1.9-1.9,1.9c-1,0-1.9-0.9-1.9-1.9c0-1,0.9-1.8,1.9-1.8C29.3,56.5,30.1,57.4,30.1,58.4z"/>
<path class="st1" d="M33.9,58.4c0,0.1,0,0.1,0,0.2c0-0.1,0-0.2,0-0.3C33.9,58.3,33.9,58.3,33.9,58.4z"/>
</svg>
