<svg width="77" height="78" viewBox="0 0 77 78" fill="none" xmlns="http://www.w3.org/2000/svg">
    <path
        d="M43.296 3.38419L66.638 17.0357C69.5514 18.7396 71.342 21.8612 71.342 25.2362V52.7638C71.342 56.1388 69.5514 59.2604 66.638 60.9643L43.296 74.6158C40.3334 76.3485 36.6666 76.3485 33.704 74.6158L10.362 60.9643C7.44865 59.2604 5.65802 56.1388 5.65802 52.7638V25.2362C5.65802 21.8612 7.44865 18.7396 10.362 17.0357L33.704 3.38419C36.6666 1.65151 40.3334 1.65151 43.296 3.38419Z"
        stroke="#aaa" />
    <g clip-path="url(#clip0_915_546)">
        <path
            d="M38 25.8827C42.272 25.8827 42.7787 25.8987 44.4653 25.976C46.2093 26.056 48.0053 26.4533 49.276 27.724C50.5587 29.0067 50.944 30.7853 51.024 32.5347C51.1013 34.2213 51.1173 34.728 51.1173 39C51.1173 43.272 51.1013 43.7787 51.024 45.4653C50.9453 47.2 50.5387 49.0133 49.276 50.276C47.9933 51.5587 46.216 51.944 44.4653 52.024C42.7787 52.1013 42.272 52.1173 38 52.1173C33.728 52.1173 33.2213 52.1013 31.5347 52.024C29.8133 51.9453 27.976 51.5293 26.724 50.276C25.448 49 25.056 47.204 24.976 45.4653C24.8987 43.7787 24.8827 43.272 24.8827 39C24.8827 34.728 24.8987 34.2213 24.976 32.5347C25.0547 30.8067 25.4653 28.9827 26.724 27.724C28.004 26.444 29.7893 26.056 31.5347 25.976C33.2213 25.8987 33.728 25.8827 38 25.8827ZM38 23C33.6547 23 33.1093 23.0187 31.4027 23.096C28.9293 23.2093 26.4733 23.8973 24.6853 25.6853C22.8907 27.48 22.2093 29.9307 22.096 32.4027C22.0187 34.1093 22 34.6547 22 39C22 43.3453 22.0187 43.8907 22.096 45.5973C22.2093 48.068 22.9 50.5307 24.6853 52.3147C26.4787 54.108 28.9333 54.7907 31.4027 54.904C33.1093 54.9813 33.6547 55 38 55C42.3453 55 42.8907 54.9813 44.5973 54.904C47.0693 54.7907 49.528 54.1013 51.3147 52.3147C53.1107 50.5187 53.7907 48.0693 53.904 45.5973C53.9813 43.8907 54 43.3453 54 39C54 34.6547 53.9813 34.1093 53.904 32.4027C53.7907 29.9293 53.1013 27.472 51.3147 25.6853C49.524 23.8947 47.0627 23.208 44.5973 23.096C42.8907 23.0187 42.3453 23 38 23Z"
            fill="#277FE7" />
        <path
            d="M38 30.7842C33.4627 30.7842 29.784 34.4628 29.784 39.0002C29.784 43.5375 33.4627 47.2162 38 47.2162C42.5373 47.2162 46.216 43.5375 46.216 39.0002C46.216 34.4628 42.5373 30.7842 38 30.7842ZM38 44.3335C35.0547 44.3335 32.6667 41.9455 32.6667 39.0002C32.6667 36.0548 35.0547 33.6668 38 33.6668C40.9453 33.6668 43.3333 36.0548 43.3333 39.0002C43.3333 41.9455 40.9453 44.3335 38 44.3335Z"
            fill="#277FE7" />
        <path
            d="M46.5413 32.3786C47.6017 32.3786 48.4613 31.519 48.4613 30.4586C48.4613 29.3982 47.6017 28.5386 46.5413 28.5386C45.481 28.5386 44.6213 29.3982 44.6213 30.4586C44.6213 31.519 45.481 32.3786 46.5413 32.3786Z"
            fill="#277FE7" />
    </g>
    <defs>
        <clipPath id="clip0_915_546">
            <rect width="32" height="32" fill="white" transform="translate(22 23)" />
        </clipPath>
    </defs>
</svg>