<?xml version="1.0" encoding="utf-8"?>
<!-- Generator: Adobe Illustrator 28.2.0, SVG Export Plug-In . SVG Version: 6.00 Build 0)  -->
<svg version="1.1" id="Layer_1" xmlns="http://www.w3.org/2000/svg" xmlns:xlink="http://www.w3.org/1999/xlink" x="0px" y="0px"
	 viewBox="0 0 64 64" style="enable-background:new 0 0 64 64;" xml:space="preserve">
<style type="text/css">
	.st0{fill:#8C969A;}
	.st1{fill:#C11717;}
	.st2{fill:#FFFFFF;}
</style>
<g>
	<path class="st0" d="M39,14.2c1.3,0,2.7,0,4,0.1c3.3,0.3,5.7,2.7,6.2,6.1c0.4,3.4,0.8,6.8,1.3,10.3c0,0.1,0,0.2,0,0.3
		c-4.4-0.8-8.5,0-12.2,2.4c-2.9,1.9-4.9,4.5-6.2,7.7c-2.6,6.4-0.9,14.9,6,19.7c-0.3,0-0.5,0-0.7,0c-9.1,0-18.2,0-27.3,0
		c-4.4,0-7.5-3.5-6.9-8C4.2,45.5,5.1,38.1,6,30.7c0.4-3.5,0.8-7.1,1.4-10.6c0.5-3.6,3.3-5.8,6.9-5.9c1.1,0,2.2,0,3.2,0c0,0,0,0,0,0
		c0,2.8,0,5.5,0,8.3c0,0.8,0.6,1.4,1.4,1.4c0.8,0,1.3-0.6,1.3-1.6c0-2.7,0-5.4,0-8.1l0,0c2.8,0,5.7,0,8.5,0c2.6,0,5.2,0,7.8,0l0,0
		c0,2.7,0,5.5,0,8.2c0,0.8,0.6,1.4,1.3,1.4c0.8,0,1.4-0.6,1.4-1.4C39.1,19.7,39.1,16.9,39,14.2C39.1,14.1,39,14.2,39,14.2z"/>
	<path class="st1" d="M60.8,47c0.1,7.5-6,13.8-13.4,13.8c-7.7,0.1-13.7-6-13.8-13.7c-0.1-7.5,6-13.7,13.5-13.7
		C54.6,33.4,60.8,39.4,60.8,47z"/>
	<path class="st0" d="M17.4,14.2c-0.1-3.3,1.2-6.1,3.7-8.2c3.2-2.8,7-3.5,10.9-2c4.1,1.5,6.3,4.6,7,8.9c0.1,0.4,0,0.9,0,1.3
		c0,0,0,0,0,0c-0.9,0-1.8,0-2.7,0c0,0,0,0,0,0c0-0.1,0-0.2,0-0.3c-0.2-4.7-4.3-8.3-9-7.8c-4.2,0.4-7.2,3.8-7.3,8.1l0,0
		C19.2,14.1,18.3,14.1,17.4,14.2L17.4,14.2z"/>
</g>
<g id="_01_align_center_00000013157613023532673820000017458057316610980276_">
	<polygon class="st2" points="55.1,40.2 54.2,39.3 47.3,46.2 40.3,39.3 39.4,40.2 46.3,47.1 39.4,54 40.3,55 47.3,48 54.2,55 
		55.1,54 48.2,47.1 	"/>
</g>
</svg>
