<?xml version="1.0" encoding="utf-8"?>
<!-- Generator: Adobe Illustrator 27.0.1, SVG Export Plug-In . SVG Version: 6.00 Build 0)  -->
<svg version="1.1" id="Layer_1" xmlns="http://www.w3.org/2000/svg" xmlns:xlink="http://www.w3.org/1999/xlink" x="0px"
	y="0px" viewBox="0 0 250 250" style="enable-background:new 0 0 250 250;" xml:space="preserve">
	<style type="text/css">
		.st0 {
			fill: #0e4fc7;
		}
	</style>
	<path class="st0" d="M30.3,105.5c3.2,4.7,6.2,9.2,9.3,13.7c14.4,21.3,28.8,42.6,43.3,63.9c3.6,5.3,6.9,10.7,10.9,15.7
	c8.2,10.4,18.9,16.6,32.1,18.5c2.8,0.4,5.6,0.6,8.4,0.6c17.8,0.1,35.7,0,53.5,0c0.8,0,1.6,0,2.9,0c-0.6-1-0.9-1.6-1.3-2.2
	c-5.6-8.5-11.1-17.1-16.8-25.5c-0.9-1.4-0.9-2.1,0.6-3c4.7-2.9,9.2-6,13.8-9c2.2-1.4,2.2-1.4,3.6,0.7c11.3,17.3,22.7,34.6,34,51.9
	c1.4,2.1,2.8,4.2,4.2,6.4c0.3,0.5,0.6,1,1,1.8c-0.7,0.1-1.2,0.2-1.7,0.2c-32.8,0-65.5,0.3-98.3-0.1c-17.6-0.2-32.8-7.2-45.8-19.1
	c-6.1-5.6-10.5-12.4-15.1-19.2c-22.4-33.1-44.8-66.3-67.3-99.4c-2.4-3.5-2.3-2.8,1-4.7c6.9-3.9,13.6-8.2,20.9-11.4
	c24.6-10.8,53.7-1.6,68.2,20.9c11.7,18,23.5,36,35.3,53.9c3.8,5.8,9.8,7.2,15.7,3.6c11.4-7,23.1-13.6,34-21.3
	c21.4-15.1,34.4-35.9,39.3-61.7c1.6-8.5,3-17.1,4.5-25.7c0-0.2,0-0.4,0.1-1c-0.8,0.4-1.3,0.7-1.9,1c-26.7,16.5-53.4,33-80.1,49.4
	c-6.9,4.3-13.8,8.5-20.7,12.8c-1.2,0.8-1.9,0.7-2.7-0.6c-3-5.1-6.2-10.1-9.3-15.1c-0.7-1.1-0.5-1.7,0.6-2.4
	c40.3-24.9,80.6-49.7,120.9-74.6c6.7-4.1,13.4-8.3,20.1-12.4c0.6-0.4,1.2-0.7,2.3-1.3c-0.5,3.1-0.9,5.8-1.4,8.5
	c-2.7,15.2-5.3,30.4-8,45.6c-2.2,11.7-3.6,23.7-7.3,35.1c-5.7,17.3-14.9,32.5-27.6,45.7c-8.2,8.5-17.7,15.4-27.8,21.5
	c-7.9,4.7-15.6,9.6-23.4,14.4c-16,9.9-35,5.6-45.3-10.1c-11.7-18-23.5-36-35.4-53.9c-6.6-10-16.2-15-28.1-15.5
	c-4.8-0.2-9.4,0.8-13.8,2.7C31.4,104.9,30.9,105.2,30.3,105.5z" />
</svg>