<?xml version="1.0" encoding="UTF-8"?>
<svg id="Layer_1" data-name="Layer 1" xmlns="http://www.w3.org/2000/svg" xmlns:xlink="http://www.w3.org/1999/xlink" viewBox="0 0 64 64">
  <defs>
    <style>
      .cls-1 {
        fill: url(#linear-gradient);
      }

      .cls-1, .cls-2, .cls-3 {
        stroke-width: 0px;
      }

      .cls-2 {
        fill: #cbd5e1;
      }

      .cls-3 {
        fill: #fff;
      }
    </style>
    <linearGradient id="linear-gradient" x1="19.5" y1="50.3" x2="44.5" y2="50.3" gradientUnits="userSpaceOnUse">
      <stop offset="0" stop-color="#1a994a"/>
      <stop offset="1" stop-color="#22c55e"/>
    </linearGradient>
  </defs>
  <path class="cls-2" d="M56.97,41.81c-.31-4.46-.38-8.92-.55-13.38-.08-2.22-.17-4.42-.25-6.64-.08-2.23-.14-4.46-.26-6.69-.06-1.18-.1-2.39-.38-3.53-1.17-4.8-5.45-8.12-10.45-8.13-8.75-.02-17.49,0-26.24,0-.48,0-.98.06-1.46.11-4.88.56-9.04,4.9-9.27,9.73-.15,3.03-.24,6.05-.35,9.09-.18,4.47-.35,8.95-.53,13.43-.09,2.35-.25,4.68-.24,7.03.04,5.73,4.66,10.39,10.4,10.6-.32-1.21-.49-2.48-.49-3.79,0-8.2,6.76-14.85,15.08-14.85s15.08,6.66,15.08,14.85c0,1.31-.17,2.57-.49,3.78,1.02-.02,2.06-.22,3.04-.52,3.67-1.1,7.76-5.24,7.34-11.09ZM37.5,23.63c-1.72.86-3.59,1.24-5.51,1.24-7.03,0-12.73-5.6-12.69-12.46,0-1.38,1.22-2.2,2.54-1.71.73.26,1.07.84,1.09,1.84.08,2.75,1.14,5.08,3.35,6.78,2.94,2.26,6.2,2.65,9.57,1.11,3.37-1.54,5.02-4.3,5.17-7.94.06-1.17.63-1.86,1.69-1.92,1.16-.06,1.98.67,1.93,1.83-.15,5.11-2.52,8.89-7.13,11.22Z"/>
  <g>
    <path class="cls-1" d="M32,37.8c6.89,0,12.5,5.61,12.5,12.5s-5.61,12.5-12.5,12.5-12.5-5.61-12.5-12.5,5.61-12.5,12.5-12.5h0Z"/>
    <path class="cls-3" d="M30.43,52.37l-2.91-2.82-1.45,1.5,2.9,2.81c.41.41.94.61,1.47.61s1.06-.2,1.47-.6h0l6.03-5.94-1.46-1.48-6.05,5.94h0Z"/>
  </g>
</svg>