<svg width="78" height="78" viewBox="0 0 78 78" fill="none" xmlns="http://www.w3.org/2000/svg">
    <path
        d="M43.75 3.31976L67.525 17.0463C70.4643 18.7433 72.275 21.8795 72.275 25.2735V52.7265C72.275 56.1205 70.4643 59.2567 67.525 60.9537L43.75 74.6802C40.8107 76.3773 37.1893 76.3773 34.25 74.6802L10.475 60.9537C7.5357 59.2567 5.72501 56.1205 5.72501 52.7265V25.2735C5.72501 21.8795 7.5357 18.7433 10.475 17.0463L34.25 3.31976C37.1893 1.62275 40.8107 1.62275 43.75 3.31976Z"
        stroke="#aaa" />
    <g clip-path="url(#clip0_915_544)">
        <path fill-rule="evenodd" clip-rule="evenodd"
            d="M39 23C30.164 23 23 30.164 23 39C23 47.836 30.164 55 39 55C47.836 55 55 47.836 55 39C55 30.164 47.836 23 39 23ZM46.416 33.8813C46.176 36.4107 45.1333 42.5507 44.604 45.384C44.38 46.584 43.9373 46.9853 43.5107 47.024C42.5813 47.1093 41.876 46.4093 40.976 45.82C39.568 44.8973 38.772 44.3227 37.4053 43.4213C35.8253 42.38 36.8493 41.808 37.7493 40.8733C37.9853 40.628 42.0787 36.904 42.1587 36.5667C42.168 36.524 42.1787 36.3667 42.084 36.284C41.9893 36.2013 41.852 36.2293 41.7533 36.252C41.612 36.284 39.3627 37.7707 35.004 40.712C34.3653 41.1507 33.7867 41.364 33.268 41.3533C32.6973 41.3413 31.5987 41.0307 30.7813 40.764C29.78 40.4387 28.9827 40.2653 29.052 39.7133C29.088 39.4253 29.484 39.1307 30.2413 38.8293C34.9053 36.7973 38.016 35.4573 39.572 34.8093C44.016 32.9613 44.9387 32.64 45.5413 32.6293C46.296 32.6187 46.4773 33.2413 46.416 33.8813Z"
            fill="#277FE7" />
    </g>
    <defs>
        <clipPath id="clip0_915_544">
            <rect width="32" height="32" fill="white" transform="translate(23 23)" />
        </clipPath>
    </defs>
</svg>