<svg width="78" height="78" viewBox="0 0 78 78" fill="none" xmlns="http://www.w3.org/2000/svg">
    <path
        d="M43.75 3.31976L67.525 17.0463C70.4643 18.7433 72.275 21.8795 72.275 25.2735V52.7265C72.275 56.1205 70.4643 59.2567 67.525 60.9537L43.75 74.6802C40.8107 76.3773 37.1893 76.3773 34.25 74.6802L10.475 60.9537C7.5357 59.2567 5.72501 56.1205 5.72501 52.7265V25.2735C5.72501 21.8795 7.5357 18.7433 10.475 17.0463L34.25 3.31976C37.1893 1.62275 40.8107 1.62275 43.75 3.31976Z"
        stroke="#aaa" />
    <g clip-path="url(#clip0_915_547)">
        <path fill-rule="evenodd" clip-rule="evenodd"
            d="M50.284 27.6507C47.2893 24.6533 43.308 23.0013 39.0667 23C30.3267 23 23.2133 30.112 23.2093 38.856C23.208 41.6507 23.9387 44.3787 25.3267 46.784L23.076 55L31.4813 52.7947C33.7973 54.0587 36.4053 54.724 39.0587 54.7253H39.0653C47.804 54.7253 54.9187 47.612 54.9227 38.868C54.9253 34.632 53.2773 30.6467 50.284 27.6507ZM39.0667 52.0467H39.0613C36.696 52.0467 34.3773 51.4107 32.3533 50.2093L31.872 49.924L26.884 51.232L28.216 46.368L27.9027 45.8693C26.5827 43.7707 25.8867 41.3453 25.888 38.856C25.8907 31.5893 31.804 25.6773 39.0733 25.6773C42.5933 25.6773 45.9027 27.0507 48.3907 29.5413C50.8787 32.0333 52.248 35.344 52.2467 38.8653C52.2427 46.1347 46.3307 52.0467 39.0667 52.0467ZM46.296 42.176C45.9 41.9773 43.952 41.0187 43.588 40.8867C43.2253 40.7547 42.9613 40.688 42.696 41.084C42.4307 41.48 41.6733 42.3733 41.4413 42.6387C41.2107 42.9027 40.9787 42.936 40.5827 42.7373C40.1867 42.5387 38.9093 42.1213 37.396 40.7707C36.2187 39.72 35.4227 38.4227 35.192 38.0253C34.9613 37.628 35.168 37.4147 35.3653 37.2173C35.544 37.04 35.7613 36.7547 35.96 36.5227C36.16 36.2933 36.2253 36.128 36.3587 35.8627C36.4907 35.5987 36.4253 35.3667 36.3253 35.168C36.2253 34.9707 35.4333 33.02 35.104 32.2267C34.7827 31.4533 34.456 31.5587 34.212 31.5467C33.9813 31.5347 33.7173 31.5333 33.452 31.5333C33.188 31.5333 32.7587 31.632 32.396 32.0293C32.0333 32.4267 31.0093 33.3853 31.0093 35.3347C31.0093 37.2853 32.4293 39.1693 32.6267 39.4333C32.824 39.6973 35.42 43.7 39.3947 45.416C40.34 45.824 41.0787 46.068 41.6533 46.2507C42.6027 46.552 43.4667 46.5093 44.1493 46.408C44.9107 46.2947 46.4933 45.4493 46.824 44.524C47.1547 43.5987 47.1547 42.804 47.0547 42.64C46.956 42.4733 46.692 42.3747 46.296 42.176Z"
            fill="#277FE7" />
    </g>
    <defs>
        <clipPath id="clip0_915_547">
            <rect width="32" height="32" fill="white" transform="translate(23 23)" />
        </clipPath>
    </defs>
</svg>