<svg width="80" height="80" viewBox="0 0 80 80" fill="none" xmlns="http://www.w3.org/2000/svg">
<path d="M65.4625 22.0626H8.54999V22.7751C8.54999 30.0251 8.54999 37.2876 8.54999 44.5376C8.54999 47.3626 10.1625 48.9876 12.9875 48.9876C19.8 48.9876 26.6125 48.9876 33.425 48.9876C33.6625 48.9876 33.9 48.9876 34.125 48.9876C34.925 49.0626 35.525 49.7126 35.5125 50.4751C35.5125 51.2501 34.9125 51.8751 34.1 51.9501C33.9625 51.9501 33.825 51.9501 33.675 51.9501C26.675 51.9501 19.675 51.9626 12.675 51.9501C9.06249 51.9501 6.28749 49.6251 5.66249 46.1126C5.56249 45.5376 5.56249 44.9501 5.56249 44.3626C5.56249 36.7751 5.56249 29.2001 5.56249 21.6126C5.56249 19.9751 5.53749 18.3376 5.58749 16.7001C5.71249 13.0751 8.63749 10.1751 12.2625 10.0376C12.475 10.0376 12.6875 10.0376 12.9 10.0376C28.975 10.0376 45.0625 10.0376 61.1375 10.0376C64.2625 10.0376 66.55 11.3876 67.825 14.2251C68.225 15.1126 68.4375 16.1626 68.45 17.1376C68.5125 22.1626 68.4875 27.2001 68.475 32.2376C68.475 33.3251 67.8875 33.9751 66.9625 33.9751C66.05 33.9751 65.4625 33.3251 65.4625 32.2376C65.4625 29.1251 65.4625 26.0126 65.4625 22.9001C65.4625 22.6251 65.4625 22.3501 65.4625 22.0501V22.0626ZM65.4625 19.0126C65.4625 18.3876 65.4625 17.8501 65.4625 17.3126C65.4375 14.6626 63.8 13.0376 61.15 13.0376C54.25 13.0376 47.3375 13.0376 40.4375 13.0376C31.2125 13.0376 21.9875 13.0376 12.775 13.0376C11.0375 13.0376 9.76249 13.7626 8.97499 15.3126C8.37499 16.4876 8.56249 17.7501 8.58749 19.0126H65.475H65.4625Z" fill="#4C4C4C"/>
<path d="M57.975 37.0249C67.0875 37.0249 74.4375 44.3624 74.45 53.4749C74.45 62.5874 67.1125 69.9374 58 69.9499C48.8875 69.9499 41.525 62.6124 41.525 53.4999C41.525 44.3874 48.8625 37.0374 57.975 37.0249ZM44.5 53.4374C44.4875 60.8874 50.5 66.9499 57.9375 66.9624C65.3875 66.9874 71.45 60.9624 71.475 53.5249C71.5 46.0749 65.475 40.0124 58.0375 39.9999C50.5875 39.9749 44.525 45.9999 44.5 53.4374Z" fill="#277FE7"/>
<path d="M19.1125 41.5127C20.9875 41.5127 22.85 41.5127 24.725 41.5127C25.85 41.5127 26.5375 42.1002 26.5125 43.0252C26.5 43.9127 25.8125 44.5002 24.7375 44.5002C20.9 44.5002 17.0625 44.5002 13.225 44.5002C12.4 44.5002 11.85 44.1377 11.625 43.5002C11.4125 42.8752 11.5875 42.1627 12.15 41.8252C12.475 41.6377 12.8875 41.5377 13.275 41.5377C15.2125 41.5127 17.1625 41.5252 19.1 41.5252L19.1125 41.5127Z" fill="#4C4C4C"/>
<path d="M16.05 37.0252C15.1125 37.0252 14.175 37.0377 13.2375 37.0252C12.225 37.0002 11.55 36.4002 11.5375 35.5377C11.5375 34.6627 12.2 34.0252 13.2 34.0252C15.075 34.0002 16.95 34.0127 18.8125 34.0252C19.85 34.0252 20.4875 34.6252 20.4875 35.5127C20.4875 36.4377 19.85 37.0127 18.7625 37.0377C17.85 37.0502 16.9375 37.0377 16.025 37.0377L16.05 37.0252Z" fill="#4C4C4C"/>
<path d="M65.0125 50.9126C65.7125 51.5876 65.575 52.5126 64.625 53.4626C62.875 55.2126 61.125 56.9751 59.3625 58.7251C58.35 59.7251 57.6125 59.7251 56.6125 58.7251C55.2375 57.3626 53.8625 55.9876 52.5 54.6001C51.825 53.9126 51.825 53.0251 52.45 52.4126C53.0625 51.8251 53.9 51.8501 54.6 52.4751C54.7875 52.6501 54.9625 52.8376 55.1375 53.0126C56.0625 53.9501 56.975 54.8876 57.9625 55.8876C59.5375 54.3001 61.025 52.8126 62.5125 51.3251C63.45 50.4001 64.325 50.2501 65.0125 50.9126Z" fill="#277FE7"/>
</svg>
