<svg width="80" height="80" viewBox="0 0 80 80" fill="none" xmlns="http://www.w3.org/2000/svg">
<path d="M44.0125 60.7626C41.3625 62.8626 38.7125 62.9251 36.0125 60.7626C35.8375 61.1126 35.6875 61.3751 35.55 61.6626C33.975 65.0251 32.4 68.4001 30.8125 71.7626C30.1625 73.1501 29.2875 73.2751 28.2625 72.1376C27.0625 70.8126 25.8375 69.5001 24.675 68.1501C24.275 67.6876 23.8625 67.4751 23.25 67.4751C21.425 67.4501 19.6 67.3626 17.775 67.3001C16.35 67.2501 15.875 66.5001 16.4625 65.2251C18.25 61.3751 20.0375 57.5251 21.875 53.7001C22.175 53.0876 22.1 52.7251 21.5375 52.4251C20.6625 51.9501 19.7875 51.4751 18.8875 51.0251C15.9625 49.5751 14.9625 47.8876 15.375 44.6626C15.6625 42.4501 15.325 40.4876 13.85 38.7501C13.4375 38.2626 13.125 37.6751 12.8375 37.1126C12.0375 35.5751 12.05 34.0126 12.8375 32.4751C13.1875 31.8001 13.575 31.1251 14.05 30.5376C15.3 29.0251 15.6375 27.3376 15.4125 25.4376C15.3125 24.5751 15.3125 23.6876 15.3875 22.8126C15.5 21.2751 16.3125 20.1126 17.6125 19.3126C18.4125 18.8251 19.25 18.4001 20.1125 18.0126C21.4875 17.3876 22.5 16.4501 23.1 15.0626C23.375 14.4126 23.7125 13.8001 24.025 13.1751C25.15 11.0001 27 9.9501 29.375 10.2626C32.1375 10.6376 34.4875 10.1001 36.7 8.3501C38.8 6.7001 41.2 6.6876 43.3 8.3501C45.5125 10.1001 47.8625 10.6126 50.625 10.2501C52.9625 9.9376 54.85 10.9376 55.9125 13.1126C57.825 17.0251 57.625 16.9751 61.7125 18.9126C63.85 19.9251 64.7875 21.7251 64.6875 24.0626C64.65 24.8501 64.6 25.6376 64.525 26.4251C64.3875 27.8126 64.85 29.0001 65.65 30.1126C66.1625 30.8251 66.65 31.5626 67.075 32.3251C67.9875 33.9626 67.975 35.6251 67.075 37.2626C66.725 37.9001 66.3625 38.5501 65.9 39.1126C64.725 40.5501 64.35 42.1626 64.575 43.9626C64.6625 44.6251 64.7 45.3001 64.7 45.9751C64.6875 47.9501 63.8375 49.4751 62.1 50.4501C61.4125 50.8376 60.675 51.1501 59.9875 51.5376C59.25 51.9501 58.5375 52.4001 57.7875 52.8501C59.2875 56.0501 60.725 59.1251 62.1625 62.1876C62.6375 63.2001 63.1125 64.2001 63.575 65.2126C64.1375 66.4501 63.6625 67.2126 62.3125 67.2626C60.425 67.3376 58.55 67.3626 56.6625 67.4876C56.25 67.5126 55.7625 67.7376 55.475 68.0376C54.2375 69.3251 53.05 70.6751 51.85 72.0001C50.6875 73.2876 49.875 73.1876 49.15 71.6376C47.575 68.3001 46.0125 64.9626 44.45 61.6251C44.325 61.3626 44.1875 61.1126 44.0125 60.7626ZM31.2 12.8001C27.175 12.5626 26.8625 12.6626 25.6125 15.5501C24.6 17.8876 22.975 19.4751 20.6375 20.4876C17.8 21.7251 17.55 22.2376 17.8875 25.2751C18.15 27.6751 17.6625 29.8251 16.1875 31.8001C14.1875 34.4876 14.1875 35.0751 16.1875 37.7751C17.6375 39.7251 18.1375 41.8376 17.8875 44.2126C17.55 47.3501 17.85 47.8251 20.725 49.1376C20.75 49.1376 20.775 49.1626 20.8125 49.1626C22.9875 50.0376 24.5 51.5376 25.475 53.6876C26.9875 56.9876 27.2375 57.1001 30.875 56.7376C32.9875 56.5251 34.9 56.9126 36.6125 58.2126C37.125 58.6001 37.6875 58.9251 38.225 59.2876C39.4 60.0876 40.575 60.1001 41.7625 59.3001C42.4875 58.8126 43.2375 58.3376 43.9625 57.8501C45.1125 57.0751 46.4 56.6751 47.7875 56.7001C48.875 56.7251 49.9625 56.8001 51.05 56.8626C52.3 56.9376 53.2 56.4001 53.7625 55.2876C54.1375 54.5626 54.5125 53.8376 54.85 53.0876C55.6375 51.3376 56.9875 50.1876 58.6875 49.3876C59.1375 49.1751 59.6 48.9751 60.0375 48.7501C62 47.7501 62.475 47.0751 62.175 44.9251C61.7625 42.0376 62.375 39.5251 64.175 37.1876C65.7375 35.1626 65.7375 34.3501 64.175 32.3126C62.375 29.9751 61.7625 27.4626 62.175 24.5751C62.475 22.4501 62.0125 21.7751 60.1125 20.7876C59.7 20.5751 59.275 20.3501 58.85 20.1751C56.8875 19.3501 55.5 17.9501 54.65 16.0126C54.3625 15.3751 54.0375 14.7501 53.7125 14.1251C53.175 13.0876 52.3 12.5876 51.125 12.6251C50.45 12.6501 49.775 12.6751 49.1 12.7501C46.825 13.0126 44.8375 12.3626 42.9875 11.0251C40.3 9.0626 39.7375 9.0626 37.05 11.0126C35.175 12.3626 33.175 13.0751 31.2 12.7626V12.8001ZM46.1 59.3251C47.725 62.8001 49.25 66.0626 50.8375 69.4376C51.725 68.4626 52.65 67.6251 53.35 66.6376C54.275 65.3501 55.4375 64.8876 56.975 64.9876C58.1625 65.0626 59.3625 65.0001 60.7375 65.0001C59.2125 61.7626 57.825 58.8001 56.35 55.6751C54.95 58.8501 52.5375 59.7126 49.475 59.2876C49.2125 59.2501 48.95 59.2001 48.6875 59.2126C47.875 59.2376 47.075 59.2876 46.1 59.3376V59.3251ZM23.65 55.6751C22.1875 58.8126 20.7875 61.7876 19.2625 65.0501C21.0875 65.0501 22.675 65.0501 24.25 65.0501C24.95 65.0501 25.4625 65.3126 25.925 65.8501C26.9625 67.0501 28.0375 68.2001 29.175 69.4501C30.75 66.0876 32.275 62.8251 33.925 59.3126C32.825 59.2751 31.8875 59.1251 31 59.2501C27.7875 59.7126 25.1375 59.0876 23.6625 55.6876L23.65 55.6751Z" fill="#4C4C4C"/>
<path d="M57.4125 34.7749C57.325 44.3999 49.5125 52.1874 40.0125 52.0998C30.2625 52.0124 22.5375 44.2499 22.6 34.5999C22.6625 25.0374 30.5875 17.3624 40.2625 17.4749C49.7375 17.5874 57.4875 25.3999 57.4125 34.7624V34.7749ZM54.9375 34.7124C54.7875 26.3249 48.0875 19.7999 39.7625 19.9374C31.5375 20.0749 24.975 26.7624 25.075 34.9249C25.1625 43.1499 32 49.7748 40.25 49.6373C48.3875 49.4999 55.0875 42.6999 54.9375 34.6999V34.7124Z" fill="#277FE7"/>
<path d="M48.4375 30.1998C48.925 30.6748 48.975 31.2498 48.55 31.7748C48.1625 32.2498 47.7 32.6623 47.2625 33.0998C44.8125 35.5498 42.3625 37.9873 39.9 40.4248C38.5875 41.7373 38.2625 41.7373 36.9625 40.4623C35.05 38.5623 33.125 36.6748 31.25 34.7248C30.95 34.4123 30.7875 33.7873 30.85 33.3373C30.9 33.0248 31.425 32.5873 31.7625 32.5748C32.1875 32.5623 32.725 32.8123 33.05 33.1248C34.65 34.6373 36.1875 36.1998 37.75 37.7498C37.95 37.9623 38.175 38.1498 38.6125 38.5498C38.8625 38.1873 39.0625 37.7998 39.3375 37.5248C41.6125 35.2373 43.9125 32.9623 46.2 30.6873C46.4 30.4748 46.6125 30.2623 46.8375 30.0873C47.3875 29.6873 47.95 29.7248 48.4375 30.1998Z" fill="#277FE7"/>
</svg>
