<svg width="80" height="80" viewBox="0 0 80 80" fill="none" xmlns="http://www.w3.org/2000/svg">
<path d="M39.9625 74.5627C31.475 74.5627 22.9875 74.4877 14.5125 74.6002C10.8875 74.6502 8.625 72.0252 8.65 68.7377C8.7375 56.4752 8.675 44.2127 8.7 31.9377C8.7 31.3252 8.8625 30.6502 9.1375 30.0877C12.6875 22.9502 16.2875 15.8502 19.8375 8.7127C20.9625 6.4627 22.6875 5.3877 25.225 5.3877C35.1 5.4127 44.975 5.4127 54.8375 5.3877C57.3375 5.3877 59.05 6.4502 60.1625 8.6752C63.725 15.8002 67.35 22.9002 70.9125 30.0252C71.175 30.5502 71.325 31.2002 71.325 31.7877C71.35 44.2377 71.35 56.7002 71.3375 69.1502C71.3375 71.8002 69.7625 73.8502 67.275 74.4127C66.7 74.5377 66.0875 74.5377 65.4875 74.5377C56.975 74.5377 48.4625 74.5377 39.95 74.5377L39.9625 74.5627ZM12.1875 33.1002C12.175 33.4127 12.15 33.6252 12.15 33.8377C12.15 45.5377 12.15 57.2377 12.15 68.9377C12.15 70.5002 12.7875 71.1127 14.4 71.1127C31.45 71.1127 48.5 71.1127 65.55 71.1127C67.3 71.1127 67.8875 70.5377 67.8875 68.7752C67.8875 57.1877 67.8875 45.6002 67.8875 34.0002V33.0877H12.1875V33.1002ZM34.5375 8.8627C31.3875 8.8627 28.375 8.9002 25.3625 8.8377C24.175 8.8127 23.45 9.2502 22.925 10.3127C19.85 16.5002 16.725 22.6752 13.625 28.8502C13.5125 29.0752 13.4125 29.3127 13.2875 29.5877H31.5375C32.525 22.7002 33.525 15.8502 34.525 8.8627H34.5375ZM45.5 8.8627C46.5125 15.8377 47.5 22.7127 48.4875 29.5627H66.7375C66.6 29.2627 66.4875 29.0127 66.375 28.7752C65.375 26.7752 64.3625 24.7752 63.35 22.7627C61.225 18.5377 59.1 14.3252 56.9875 10.1002C56.65 9.4252 56.2 8.8752 55.4125 8.8627C52.15 8.8377 48.9 8.8627 45.5 8.8627ZM44.975 29.5752C43.975 22.6377 42.975 15.7627 41.9875 8.9127H38.0375C37.0375 15.8127 36.05 22.6752 35.0625 29.5752H44.975Z" fill="#4C4C4C"/>
<path d="M30.3375 45.2124C31.0875 45.9499 31.7375 46.5874 32.375 47.2374C33.2 48.0624 33.2625 49.1124 32.5625 49.8249C31.825 50.5874 30.775 50.5374 29.9 49.6749C28.275 48.0749 26.6625 46.4749 25.05 44.8624C24.1125 43.9124 24.1 42.9749 25.05 42.0249C26.65 40.4124 28.275 38.7999 29.9 37.2124C30.7625 36.3624 31.85 36.3124 32.575 37.0499C33.2875 37.7874 33.2 38.8374 32.3375 39.6999C31.75 40.2999 31.15 40.8874 30.55 41.4874C30.525 41.5124 30.55 41.5874 30.525 41.7249C30.825 41.7249 31.1125 41.7249 31.4 41.7249C36.05 41.7249 40.7 41.6874 45.35 41.7374C51.3125 41.8124 55.8625 46.5874 55.6875 52.4999C55.525 57.9249 51.05 62.2874 45.425 62.4624C43.7125 62.5124 42 62.4874 40.2875 62.4624C39.1 62.4624 38.325 61.7624 38.3 60.7624C38.275 59.7374 39.075 58.9999 40.3 58.9874C42.0375 58.9624 43.7875 59.0124 45.525 58.9624C48.7875 58.8624 51.575 56.4624 52.1125 53.3624C52.6875 49.9999 50.9 46.7999 47.725 45.6374C47 45.3749 46.2 45.1999 45.425 45.1874C40.5875 45.1499 35.7375 45.1624 30.9 45.1624C30.775 45.1624 30.65 45.1749 30.3625 45.1999L30.3375 45.2124Z" fill="#277FE7"/>
</svg>
