<svg width="80" height="80" viewBox="0 0 80 80" fill="none" xmlns="http://www.w3.org/2000/svg">
<path d="M73.4375 38.4376C73.4375 36.9251 72.8375 35.6626 71.6375 34.6626C70.825 33.9751 69.825 33.6126 68.5 33.5251L67.775 33.4751L67.75 32.7501C67.575 24.7876 64.7125 18.0876 59.2375 12.8126C53.875 7.6501 47.4375 5.0376 40.0625 5.0376C39.7 5.0376 39.325 5.0376 38.9625 5.0501C24.0375 5.5751 12.025 17.9626 12.1875 32.6876V33.4001L11.5 33.5001C8.01252 34.0376 6.52502 35.7626 6.52502 39.3126V55.1126C6.52502 58.4751 8.55002 60.4876 11.9375 60.5001C13.0625 60.5126 14.175 60.5126 15.3 60.5126C16.675 60.5126 18.075 60.5001 19.45 60.5001C21.35 60.5001 22.05 59.7876 22.05 57.8751V52.9626C22.05 50.2876 22.05 47.6001 22.0625 44.9251C22.0625 42.6501 21.475 40.6501 20.225 38.8501C19.9125 38.4001 19.625 37.9251 19.325 37.4626C18.7625 36.5751 18.2375 35.7376 17.6 34.9876C16.2375 33.3501 16.2625 31.6251 16.475 30.1376C16.4875 30.0376 16.5 29.9501 16.525 29.8376C16.5375 29.7626 16.55 29.6626 16.5625 29.5751C18.0625 17.9126 28.1125 9.1251 39.9375 9.1251C41.3 9.1251 42.675 9.2501 44.0125 9.4876C55.1375 11.4876 63.175 20.7626 63.5625 32.0376C63.5875 32.6251 63.4 33.2876 63.0625 33.8126C62.1 35.3251 61.0375 36.9251 59.725 38.8376C58.475 40.6626 57.875 42.6376 57.875 44.9126C57.8875 49.2626 57.9 53.9126 57.8625 58.5376C57.8625 59.1751 57.6 59.8751 57.175 60.3251C54.1625 63.5876 50.4375 65.8376 46.075 67.0376C43.6 67.7251 41.1 67.8501 38.1375 67.8501H37.2C36.05 67.8501 35.125 68.7751 35.125 69.9251C35.125 71.1001 36.1 72.0376 37.275 72.0001C37.3625 72.0001 37.45 72.0001 37.5375 72.0001C39.925 71.9376 42.175 71.8626 44.4125 71.5251C51.2625 70.4876 57.0625 67.1001 61.6375 61.4251C62.1375 60.8126 62.725 60.5126 63.4875 60.5126H64.1875C64.9 60.5376 65.6125 60.5501 66.3125 60.5501C67.2375 60.5501 68.0125 60.5251 68.7375 60.4876C71.475 60.3251 73.3875 58.3251 73.4 55.6126C73.45 49.5251 73.425 43.5376 73.4 38.4876L73.4375 38.4376ZM17.1125 41.5751C17.475 42.2501 17.9 43.2626 17.9125 44.3001C17.975 47.0251 17.9625 49.8001 17.95 52.4751C17.95 53.3751 17.95 54.2751 17.9375 55.1626C17.9375 55.3251 17.9125 55.4626 17.8875 55.5626V55.6751L17.7375 56.3126H10.675V37.6626H12.1375L12.7625 37.6501C13.1375 37.6501 13.5125 37.6501 13.875 37.6751C14.4875 37.7126 14.925 38.2626 15.0375 38.4376C15.1875 38.6501 15.35 38.8626 15.4875 39.0751C16.05 39.8626 16.625 40.6876 17.1 41.5626L17.1125 41.5751ZM69.3 56.3126H62.175L62.1125 55.5876L62.0875 55.3876C62.075 55.1876 62.05 55.0001 62.05 54.8001C62.05 53.9126 62.05 53.0251 62.0375 52.1501C62.025 49.6751 62.0125 47.1251 62.0875 44.6001C62.125 43.4626 62.6 42.3501 63.0625 41.3126C63.3125 40.7626 63.6625 40.3001 63.9875 39.8376C64.225 39.5001 64.4375 39.2001 64.625 38.8876C65.1 38.0376 65.775 37.6126 66.6625 37.6126C66.7875 37.6126 66.9 37.6251 67.025 37.6376C67.1875 37.6501 67.35 37.6626 67.5125 37.6626C67.6625 37.6626 67.8125 37.6501 67.95 37.6501C68.125 37.6501 68.3125 37.6376 68.5 37.6376H69.3V56.3001V56.3126Z" fill="#4C4C4C"/>
<path d="M51.45 21.2125C50.725 21.9375 49.575 22.05 48.7375 21.4625C42.925 17.4125 37.1125 17.4 31.325 21.4125C30.4875 22 29.3375 21.8875 28.6125 21.1625C27.725 20.275 27.7625 18.775 28.75 18C35.05 13.0375 44.625 12.8125 51.3 18.05C52.2875 18.825 52.3375 20.325 51.45 21.2125Z" fill="#277FE7"/>
</svg>
