<svg width="80" height="80" viewBox="0 0 80 80" fill="none" xmlns="http://www.w3.org/2000/svg">
<g clip-path="url(#clip0_326_793)">
<path d="M0 44.6625C0.4 43.725 1.1 43.375 2.1125 43.375C8.5375 43.4 14.975 43.375 21.4 43.3875C22.6375 43.3875 23.3625 44.075 23.325 45.1625C23.3 45.975 22.7375 46.625 21.9375 46.7375C21.65 46.775 21.3625 46.775 21.075 46.775C14.8 46.775 8.525 46.7625 2.2625 46.7875C1.25 46.7875 0.5 46.525 0 45.6125L0 44.6625Z" fill="#277FE7"/>
<path d="M54.85 26.4252C55.7125 26.4252 56.4625 26.4252 57.2125 26.4252C60.3375 26.4627 63.475 26.3502 66.5875 26.5627C73.2625 27.0002 79.1125 32.8877 79.9375 39.6377C80.2125 41.9002 79.5875 44.0002 79.2375 46.1502C78.7375 49.2002 78.1375 52.2377 77.575 55.2752C77.35 56.5002 76.8375 56.9377 75.6 56.9502C74.825 56.9502 74.0375 56.9502 73.25 56.9502C72.8625 58.4877 72.25 59.8502 71.2 60.9752C69.0125 63.3127 66.3375 64.2252 63.25 63.5252C60.1375 62.8127 58.0625 60.8127 57.1 57.7127C56.9125 57.1252 56.7 56.9377 56.1 56.9377C49.85 56.9627 43.6 56.9627 37.35 56.9377C36.75 56.9377 36.5125 57.1002 36.3375 57.7002C35.2625 61.3377 32.025 63.7627 28.3375 63.7502C24.675 63.7377 21.4 61.2377 20.3875 57.6252C20.2375 57.0752 20.0125 56.9252 19.475 56.9377C18.075 56.9752 16.6625 56.9627 15.25 56.9377C14.1125 56.9377 13.375 56.2502 13.3625 55.2752C13.3625 54.2627 14.125 53.5752 15.3 53.5752C16.9125 53.5752 18.525 53.5752 20.1375 53.5752C20.35 52.9627 20.525 52.3752 20.7625 51.8252C22.1625 48.6502 25.425 46.5877 28.6875 46.8002C32.3625 47.0377 35.3 49.3252 36.3125 52.8127C36.5 53.4502 36.775 53.6002 37.3875 53.5877C39.9625 53.5502 42.55 53.5627 45.125 53.5627C45.175 53.5627 45.225 53.5377 45.3625 53.5127C47.875 42.3002 50.4 31.0377 52.95 19.6752H51.8625C39.825 19.6752 27.7875 19.6752 15.75 19.6752C15.3625 19.6752 14.9625 19.6752 14.5875 19.5752C13.85 19.4002 13.3375 18.6877 13.3625 17.9377C13.375 17.2127 13.8625 16.5502 14.575 16.3627C14.9 16.2752 15.25 16.2627 15.575 16.2627C28.55 16.2627 41.525 16.2627 54.5 16.2627C56.3125 16.2627 56.975 17.0877 56.575 18.8752C56.025 21.3502 55.4625 23.8252 54.875 26.4377L54.85 26.4252ZM56.8375 53.5377C57.975 49.0252 61.5 46.8127 64.7625 46.8127C69.2625 46.8127 71.9875 49.2752 73.25 53.5002H74.5C75.1125 50.1877 75.6875 46.9377 76.3125 43.6877C76.5875 42.2252 76.8625 40.8002 76.5375 39.3002C75.375 33.8877 70.8 29.9627 65.35 29.8627C61.8625 29.8002 58.375 29.8627 54.8875 29.8252C54.275 29.8252 54.05 30.0127 53.9125 30.6127C52.7125 36.1127 51.4625 41.6127 50.2375 47.1127C49.7625 49.2377 49.2875 51.3627 48.8125 53.5377H56.825H56.8375ZM70.0375 55.2752C70.0375 52.4627 67.8 50.1877 65.025 50.2002C62.275 50.2002 60.05 52.4377 60.0375 55.2127C60.0125 58.0127 62.25 60.3377 65.0125 60.3627C67.75 60.3877 70.0375 58.0752 70.05 55.2752H70.0375ZM33.3125 55.2627C33.3125 52.4252 31.1625 50.2127 28.3875 50.1877C25.6125 50.1627 23.3875 52.3877 23.375 55.1752C23.375 58.0502 25.525 60.3127 28.3 60.3502C31.0625 60.3877 33.3 58.1127 33.3 55.2627H33.3125Z" fill="#4C4C4C"/>
<path d="M13.35 36.6001C10.7125 36.6001 8.08752 36.6001 5.45002 36.6001C5.11252 36.6001 4.76252 36.6001 4.45002 36.5001C3.77502 36.3001 3.30002 35.5501 3.33752 34.8501C3.37502 34.0626 3.96252 33.3876 4.73752 33.2501C4.91252 33.2126 5.10002 33.2251 5.28752 33.2251C10.65 33.2251 16.025 33.2251 21.3875 33.2251C22.15 33.2251 22.775 33.4376 23.15 34.1501C23.7375 35.2876 22.975 36.5751 21.6375 36.5876C19.6625 36.6251 17.675 36.5876 15.7 36.6001C14.9125 36.6001 14.1375 36.6001 13.35 36.6001Z" fill="#277FE7"/>
<path d="M14.975 26.4248C12.8625 26.4248 10.7625 26.4248 8.65001 26.4248C7.41251 26.4248 6.71251 25.8123 6.70001 24.7623C6.70001 23.6998 7.42501 23.0498 8.68751 23.0498C12.9625 23.0498 17.225 23.0498 21.5 23.0498C22.9625 23.0498 23.8125 24.4123 23.125 25.5873C22.75 26.2248 22.175 26.4248 21.4625 26.4248C19.3 26.4248 17.1375 26.4248 14.975 26.4248Z" fill="#277FE7"/>
</g>
<defs>
<clipPath id="clip0_326_793">
<rect width="80" height="80" fill="white"/>
</clipPath>
</defs>
</svg>
