<?xml version="1.0" encoding="utf-8"?>
<!-- Generator: Adobe Illustrator 28.2.0, SVG Export Plug-In . SVG Version: 6.00 Build 0)  -->
<svg version="1.1" id="Layer_1" xmlns="http://www.w3.org/2000/svg" xmlns:xlink="http://www.w3.org/1999/xlink" x="0px"
	y="0px" viewBox="0 0 24 24" style="enable-background:new 0 0 24 24;" xml:space="preserve">
	<g fill="#0e4fc7">
		<path d="M12,13.2c1.4,0,2.8-0.1,4.2,0c1.9,0.2,3.6,1,4.7,2.7c1.1,1.6,0.9,3.5-0.4,4.9c-1.4,1.6-3.2,2.5-5.3,2.9
		c-2.6,0.5-5.2,0.5-7.7-0.3c-1.6-0.5-3-1.3-4.1-2.6c-1.5-1.7-1.4-3.9,0.3-5.6c1.3-1.3,3-1.9,4.8-2C9.7,13.2,10.8,13.2,12,13.2
		C12,13.2,12,13.2,12,13.2z" />
		<path d="M18,5.8c0.1,3.2-2.5,6-5.7,6.2C8.9,12.1,6.1,9.6,6,6.2C5.9,3,8.5,0.2,11.6,0C15-0.2,17.9,2.4,18,5.8z" />
	</g>
</svg>