<?xml version="1.0" encoding="UTF-8"?>
<svg id="Layer_1" xmlns="http://www.w3.org/2000/svg" viewBox="0 0 2069.12 558.79">
  <defs>
    <style>
      .cls-1 {
        fill: #fbbf24;
      }

      .cls-2 {
        fill: #5e5e5e;
      }

      .cls-3 {
        fill: #f0f0f0;
      }

      .cls-4 {
        fill: #666;
      }
    </style>
  </defs>
  <g>
    <g>
      <path class="cls-3" d="M1024.71,237.21c-.03-4.69-3.84-8.49-8.54-8.46l-64.23.33.08,17,64.23-.33c4.69-.02,8.48-3.85,8.46-8.54Z"/>
      <path class="cls-3" d="M1025.17,327.25c-.02-4.69-3.85-8.48-8.54-8.46l-64.22.33.08,17,64.22-.32c4.69-.03,8.48-3.85,8.46-8.54Z"/>
    </g>
    <g>
      <polygon class="cls-4" points="773.95 269.84 0 271.96 0 299.27 774.09 297.16 773.95 269.84"/>
      <polygon class="cls-2" points="824.52 305.36 824.3 261.12 872.03 216.73 872.7 349.27 824.52 305.36"/>
      <rect class="cls-4" x="872.36" y="216.56" width="66" height="132.55" transform="translate(-1.42 4.59) rotate(-.29)"/>
      <rect class="cls-4" x="924.51" y="203.1" width="27.7" height="159.13" transform="translate(-1.41 4.72) rotate(-.29)"/>
      <polygon class="cls-4" points="774.12 302.62 773.93 264.39 824.3 261.12 824.52 305.36 774.12 302.62"/>
      <polygon class="cls-2" points="773.95 269.84 774.09 297.16 757.51 297.24 773.95 269.84"/>
      <polygon class="cls-2" points="924.51 282.73 924.85 349.01 910.79 349.08 924.51 282.73"/>
    </g>
  </g>
  <polygon class="cls-1" points="973.57 485.55 966.78 543.76 995.94 467.55 983.11 467.18 989.9 408.97 960.74 485.18 973.57 485.55"/>
  <polygon class="cls-1" points="1063.89 480.61 1088.68 530.83 1072.48 454.55 1062.01 460.92 1037.21 410.71 1053.41 486.98 1063.89 480.61"/>
  <polygon class="cls-1" points="1063.38 78.76 1070.81 15.03 1038.89 98.46 1052.93 98.86 1045.5 162.59 1077.42 79.16 1063.38 78.76"/>
  <polygon class="cls-1" points="962.35 80.9 934.57 24.64 952.72 110.09 964.46 102.95 992.23 159.21 974.09 73.77 962.35 80.9"/>
  <g>
    <g>
      <polygon class="cls-4" points="2069.12 271.64 1278.75 273.77 1278.89 301.08 2069.12 298.88 2069.12 271.64"/>
      <polygon class="cls-2" points="1228.33 265.57 1228.56 309.8 1180.82 354.2 1180.15 221.65 1228.33 265.57"/>
      <rect class="cls-4" x="1114.49" y="221.82" width="66" height="132.55" transform="translate(-1.44 5.81) rotate(-.29)"/>
      <polygon class="cls-2" points="1128.34 288.19 1128 221.92 1142.06 221.84 1128.34 288.19"/>
      <rect class="cls-4" x="1100.63" y="208.7" width="27.7" height="159.13" transform="translate(-1.45 5.65) rotate(-.29)"/>
      <polygon class="cls-4" points="1278.72 268.31 1278.92 306.53 1228.56 309.8 1228.33 265.57 1278.72 268.31"/>
    </g>
    <polygon class="cls-2" points="1278.89 301.08 1278.75 273.77 1295.34 273.69 1278.89 301.08"/>
  </g>
</svg>