<svg width="79" height="66" viewBox="0 0 79 66" fill="none" xmlns="http://www.w3.org/2000/svg">
<path d="M28.8729 44.6389C29.9733 43.9664 31.0158 43.2938 32.0872 42.6212C34.7514 41.0129 37.3287 39.2584 40.0219 37.7378C40.6879 37.3577 40.9485 36.8313 40.9485 36.071C40.9485 30.7489 40.9485 25.3976 40.9485 20.0755C40.9485 19.4907 40.7458 19.1106 40.2535 18.8181C35.5623 16.0986 30.871 13.3498 26.1797 10.6011C25.7164 10.3379 25.282 10.3964 24.8766 10.6596C22.0676 12.4433 19.1428 14.0224 16.247 15.7477C14.5384 16.7712 12.8009 17.7654 11.0634 18.7304C10.4842 19.0521 10.2526 19.4615 10.2526 20.134C10.2815 25.4561 10.2815 30.7489 10.2526 36.071C10.2526 36.7436 10.4842 37.153 11.0344 37.4746C14.6832 39.7555 18.3609 41.9487 22.0676 44.1126C27.2801 47.1538 32.4637 50.2242 37.7052 53.2654C38.3712 53.6455 38.6898 54.0842 38.6608 54.9029C38.6029 58.3535 38.6319 61.8333 38.6319 65.2839C38.6319 65.5178 38.6319 65.7518 38.6319 65.9565C38.3712 66.0734 38.2265 65.9272 38.0817 65.8395C31.5081 61.9211 24.9345 58.0026 18.332 54.0842C13.9303 51.4524 9.47068 48.8791 5.15587 46.1595C2.11523 44.2296 0.493555 41.3346 0.088136 37.7086C0.00126052 36.7728 0.00126074 35.8371 0.00126074 34.9013C0.00126074 29.9886 0.0591777 25.0759 0.00126074 20.1633C-0.0566562 15.8354 1.88356 12.648 5.2717 10.2209C7.00921 8.99277 8.92047 7.99854 10.7449 6.91658C13.8145 5.13281 16.8841 3.31979 19.9826 1.59451C23.3418 -0.335475 26.8168 -0.54017 30.3787 1.12663C31.566 1.68223 32.6664 2.38404 33.7958 2.99813C37.7921 5.13281 41.5856 7.61839 45.524 9.84079C48.4488 11.5076 50.1863 14.1101 51.0261 17.356C51.113 17.7362 51.1998 18.1456 51.2288 18.5257C51.2867 19.4322 51.3736 20.3387 51.3736 21.2452C51.3736 26.3334 51.3736 31.3923 51.3736 36.4804C51.3736 37.9132 51.113 39.3169 50.5628 40.662C49.694 42.8259 48.304 44.5512 46.4217 45.9256C45.2634 46.7736 43.9602 47.4169 42.744 48.1772C41.7304 48.7913 40.6879 49.3762 39.7033 50.0195C39.0083 50.4581 38.4292 50.4581 37.7052 50.0195C35.0121 48.3527 32.29 46.7736 29.5389 45.2238C29.3362 45.0191 29.1045 44.9314 28.8729 44.6389Z" fill="#0E4FC7"/>
<path d="M79 2.47181C79 2.79347 78.8262 2.96893 78.7104 3.17362C74.3666 10.7181 70.0518 18.2626 65.6501 25.7486C65.2447 26.4211 64.8972 27.1522 64.5207 27.8247C64.318 28.1757 64.318 28.4973 64.4918 28.819C64.6076 29.0529 64.7524 29.2576 64.8682 29.4915C69.2989 37.153 73.7295 44.8437 78.1602 52.5051C78.3919 52.9145 78.6235 53.3239 78.8262 53.7333C79.0289 54.1134 78.971 54.2012 78.5366 54.2304C78.4787 54.2304 78.4498 54.2304 78.3919 54.2304C76.6543 54.2304 74.9168 54.2889 73.1793 54.2012C69.0962 53.9965 65.9687 52.0665 63.8257 48.5574C62.7832 46.8321 61.7697 45.0484 60.7561 43.2938C59.1924 40.5743 57.6286 37.8256 56.0359 35.106C54.8486 33.0591 54.0667 30.8659 54.0378 28.4681C54.0088 26.0995 54.6749 23.9063 55.8911 21.8886C57.339 19.4907 58.6422 17.0052 60.0611 14.6073C61.2774 12.5311 62.4647 10.4549 63.6809 8.37872C65.4474 5.3083 68.0826 3.37832 71.5287 2.64726C72.2527 2.50105 72.9766 2.38408 73.7295 2.41332C75.2064 2.47181 76.6833 2.44257 78.1891 2.41332C78.4498 2.44257 78.7104 2.47181 79 2.47181Z" fill="#277FE7"/>
</svg>
