<svg width="400" height="140" viewBox="0 0 400 140" fill="none" xmlns="http://www.w3.org/2000/svg">
<rect width="400" height="140" fill="#F2F2F4"/>
<rect x="148" y="36" width="105" height="68" rx="4" fill="white" stroke="#D9D9D9" stroke-width="2" stroke-dasharray="3 3"/>
<rect x="275" y="36" width="105" height="68" rx="4" fill="white" stroke="#D9D9D9" stroke-width="2" stroke-dasharray="3 3"/>
<rect x="20" y="35" width="107" height="70" rx="5" fill="#D9D9D9"/>
<path d="M71.4873 65.9893C71.9079 65.9893 72.262 65.7568 72.5498 65.292C72.8486 64.8271 72.998 64.141 72.998 63.2334L73.0146 60.4941V59.8301H77.0488V60.4941L77.0322 63.2334C77.0322 63.8643 77.0765 64.3789 77.165 64.7773C77.2646 65.1758 77.4196 65.4801 77.6299 65.6904C77.8512 65.8896 78.1335 65.9893 78.4766 65.9893C78.6868 65.9893 78.8584 65.9671 78.9912 65.9229C79.124 65.8786 79.2679 65.779 79.4229 65.624C79.5889 65.458 79.7106 65.1702 79.7881 64.7607C79.8766 64.3402 79.9209 63.8034 79.9209 63.1504V59.1826H83.9385V63.1504C83.9385 65.375 83.4736 67.1237 82.5439 68.3965C81.6143 69.6582 80.3138 70.2891 78.6426 70.2891C77.1927 70.2891 76.0361 69.8076 75.1729 68.8447C74.3096 69.8076 73.1973 70.2891 71.8359 70.2891C71.2604 70.2891 70.6683 70.1673 70.0596 69.9238C70.2477 71.7389 70.3418 73.9469 70.3418 76.5479V80.7979H66.1748V76.5479C66.1748 70.5824 65.5163 65.3529 64.1992 60.8594L64 60.2285L64.6309 60.0459L67.3535 59.2158L68.0508 59L68.2002 59.6973L69.4453 65.2588C69.8105 65.5244 70.137 65.7126 70.4248 65.8232C70.7236 65.9339 71.0778 65.9893 71.4873 65.9893Z" fill="#555555"/>
</svg>
