<svg width="400" height="140" viewBox="0 0 400 140" fill="none" xmlns="http://www.w3.org/2000/svg">
<rect width="400" height="140" fill="#F2F2F4"/>
<rect x="20" y="35" width="170" height="70" rx="5" fill="#D9D9D9"/>
<rect x="210" y="35" width="170" height="70" rx="5" fill="#D9D9D9"/>
<path d="M294.191 80.7812V76.5312C294.191 70.5326 293.527 65.3031 292.199 60.8428L292 60.2119L292.631 60.0293L295.984 59L296.167 59.6475C297.628 64.4951 298.358 70.1286 298.358 76.5479V80.7812H294.191Z" fill="#555555"/>
<path d="M106.351 65.9893C107.38 65.9893 108.055 65.7292 108.376 65.209C108.631 64.7773 108.769 63.8809 108.791 62.5195C108.791 62.2982 108.791 61.9219 108.791 61.3906V59.1494H112.858V61.3242C112.858 62.4531 112.803 63.4492 112.692 64.3125C112.593 65.1647 112.399 65.9837 112.111 66.7695C111.824 67.5443 111.436 68.1807 110.949 68.6787C110.473 69.1768 109.842 69.5697 109.057 69.8574C108.282 70.1452 107.363 70.2891 106.301 70.2891C105.604 70.2891 104.856 70.1673 104.06 69.9238C104.248 71.7611 104.342 73.9691 104.342 76.5479V80.7979H100.175V76.5479C100.175 70.5824 99.5163 65.3529 98.1992 60.8594L98 60.2285L98.6309 60.0459L101.354 59.2158L102.051 59L102.2 59.6973L103.429 65.209C104.369 65.7292 105.343 65.9893 106.351 65.9893Z" fill="#555555"/>
</svg>
