<svg width="400" height="140" viewBox="0 0 400 140" fill="none" xmlns="http://www.w3.org/2000/svg">
<rect width="400" height="140" fill="#F2F2F4"/>
<rect x="21" y="36" width="73" height="68" rx="4" fill="white" stroke="#D9D9D9" stroke-width="2" stroke-dasharray="3 3"/>
<rect x="211" y="36" width="73" height="68" rx="4" fill="white" stroke="#D9D9D9" stroke-width="2" stroke-dasharray="3 3"/>
<rect x="306" y="36" width="73" height="68" rx="4" fill="white" stroke="#D9D9D9" stroke-width="2" stroke-dasharray="3 3"/>
<rect x="115" y="35" width="75" height="70" rx="5" fill="#D9D9D9"/>
<path d="M150.487 65.9893C150.908 65.9893 151.262 65.7568 151.55 65.292C151.849 64.8271 151.998 64.141 151.998 63.2334L152.015 60.4941V59.8301H156.049V60.4941L156.032 63.2334C156.032 63.8643 156.076 64.3789 156.165 64.7773C156.265 65.1758 156.42 65.4801 156.63 65.6904C156.851 65.8896 157.133 65.9893 157.477 65.9893C157.687 65.9893 157.858 65.9671 157.991 65.9229C158.124 65.8786 158.268 65.779 158.423 65.624C158.589 65.458 158.711 65.1702 158.788 64.7607C158.877 64.3402 158.921 63.8034 158.921 63.1504V59.1826H162.938V63.1504C162.938 65.375 162.474 67.1237 161.544 68.3965C160.614 69.6582 159.314 70.2891 157.643 70.2891C156.193 70.2891 155.036 69.8076 154.173 68.8447C153.31 69.8076 152.197 70.2891 150.836 70.2891C150.26 70.2891 149.668 70.1673 149.06 69.9238C149.248 71.7389 149.342 73.9469 149.342 76.5479V80.7979H145.175V76.5479C145.175 70.5824 144.516 65.3529 143.199 60.8594L143 60.2285L143.631 60.0459L146.354 59.2158L147.051 59L147.2 59.6973L148.445 65.2588C148.811 65.5244 149.137 65.7126 149.425 65.8232C149.724 65.9339 150.078 65.9893 150.487 65.9893Z" fill="#555555"/>
</svg>
