<svg width="400" height="140" viewBox="0 0 400 140" fill="none" xmlns="http://www.w3.org/2000/svg">
<rect width="400" height="140" fill="#F2F2F4"/>
<rect x="20" y="35" width="75" height="70" rx="5" fill="#D9D9D9"/>
<rect x="115" y="35" width="75" height="70" rx="5" fill="#D9D9D9"/>
<rect x="210" y="35" width="75" height="70" rx="5" fill="#D9D9D9"/>
<rect x="305" y="35" width="75" height="70" rx="5" fill="#D9D9D9"/>
<path d="M341.191 80.7812V76.5312C341.191 70.5326 340.527 65.3031 339.199 60.8428L339 60.2119L339.631 60.0293L342.984 59L343.167 59.6475C344.628 64.4951 345.358 70.1286 345.358 76.5479V80.7812H341.191Z" fill="#555555"/>
<path d="M248.351 65.9893C249.38 65.9893 250.055 65.7292 250.376 65.209C250.631 64.7773 250.769 63.8809 250.791 62.5195C250.791 62.2982 250.791 61.9219 250.791 61.3906V59.1494H254.858V61.3242C254.858 62.4531 254.803 63.4492 254.692 64.3125C254.593 65.1647 254.399 65.9837 254.111 66.7695C253.824 67.5443 253.436 68.1807 252.949 68.6787C252.473 69.1768 251.842 69.5697 251.057 69.8574C250.282 70.1452 249.363 70.2891 248.301 70.2891C247.604 70.2891 246.856 70.1673 246.06 69.9238C246.248 71.7611 246.342 73.9691 246.342 76.5479V80.7979H242.175V76.5479C242.175 70.5824 241.516 65.3529 240.199 60.8594L240 60.2285L240.631 60.0459L243.354 59.2158L244.051 59L244.2 59.6973L245.429 65.209C246.369 65.7292 247.343 65.9893 248.351 65.9893Z" fill="#555555"/>
<path d="M150.487 65.9893C150.908 65.9893 151.262 65.7568 151.55 65.292C151.849 64.8271 151.998 64.141 151.998 63.2334L152.015 60.4941V59.8301H156.049V60.4941L156.032 63.2334C156.032 63.8643 156.076 64.3789 156.165 64.7773C156.265 65.1758 156.42 65.4801 156.63 65.6904C156.851 65.8896 157.133 65.9893 157.477 65.9893C157.687 65.9893 157.858 65.9671 157.991 65.9229C158.124 65.8786 158.268 65.779 158.423 65.624C158.589 65.458 158.711 65.1702 158.788 64.7607C158.877 64.3402 158.921 63.8034 158.921 63.1504V59.1826H162.938V63.1504C162.938 65.375 162.474 67.1237 161.544 68.3965C160.614 69.6582 159.314 70.2891 157.643 70.2891C156.193 70.2891 155.036 69.8076 154.173 68.8447C153.31 69.8076 152.197 70.2891 150.836 70.2891C150.26 70.2891 149.668 70.1673 149.06 69.9238C149.248 71.7389 149.342 73.9469 149.342 76.5479V80.7979H145.175V76.5479C145.175 70.5824 144.516 65.3529 143.199 60.8594L143 60.2285L143.631 60.0459L146.354 59.2158L147.051 59L147.2 59.6973L148.445 65.2588C148.811 65.5244 149.137 65.7126 149.425 65.8232C149.724 65.9339 150.078 65.9893 150.487 65.9893Z" fill="#555555"/>
<path d="M58.3301 66.9688C59.2044 67.179 60.1341 67.2842 61.1191 67.2842C62.2259 67.2842 63.377 67.0352 64.5723 66.5371L65.4688 66.1553L65.5352 69.9902V70.4385L65.1367 70.6211C63.7754 71.1966 62.3255 71.4844 60.7871 71.4844C58.9388 71.4844 57.0296 71.0527 55.0596 70.1895C55.2367 72.2591 55.3252 74.3786 55.3252 76.5479V80.7979H51.1582V76.5479C51.1582 70.6045 50.4997 65.375 49.1826 60.8594L49 60.2285L49.6143 60.0459L52.3203 59.2158L53.0176 59L53.167 59.6973L54.5283 65.707C54.5283 65.707 54.5449 65.7181 54.5781 65.7402C54.6224 65.7624 54.6611 65.7845 54.6943 65.8066C54.7386 65.8177 54.7607 65.8288 54.7607 65.8398C54.9046 63.748 55.4746 62.1156 56.4707 60.9424C57.4779 59.7581 58.8724 59.166 60.6543 59.166C62.071 59.166 63.3714 59.5368 64.5557 60.2783L64.9043 60.4941L64.8711 60.9092L64.6221 63.3496L64.5225 64.3457L63.6426 63.8643C62.7904 63.4105 61.9105 63.1836 61.0029 63.1836C60.1175 63.1836 59.4424 63.4714 58.9775 64.0469C58.5127 64.6113 58.2803 65.5742 58.2803 66.9355V66.9521C58.2913 66.9632 58.3079 66.9688 58.3301 66.9688Z" fill="#555555"/>
</svg>
