<svg width="400" height="140" viewBox="0 0 400 140" fill="none" xmlns="http://www.w3.org/2000/svg">
<rect width="400" height="140" fill="#F2F2F4"/>
<rect x="21" y="36" width="105" height="68" rx="4" fill="white" stroke="#D9D9D9" stroke-width="2" stroke-dasharray="3 3"/>
<rect x="275" y="36" width="105" height="68" rx="4" fill="white" stroke="#D9D9D9" stroke-width="2" stroke-dasharray="3 3"/>
<rect x="147" y="35" width="107" height="70" rx="5" fill="#D9D9D9"/>
<path d="M201.351 65.9893C202.38 65.9893 203.055 65.7292 203.376 65.209C203.631 64.7773 203.769 63.8809 203.791 62.5195C203.791 62.2982 203.791 61.9219 203.791 61.3906V59.1494H207.858V61.3242C207.858 62.4531 207.803 63.4492 207.692 64.3125C207.593 65.1647 207.399 65.9837 207.111 66.7695C206.824 67.5443 206.436 68.1807 205.949 68.6787C205.473 69.1768 204.842 69.5697 204.057 69.8574C203.282 70.1452 202.363 70.2891 201.301 70.2891C200.604 70.2891 199.856 70.1673 199.06 69.9238C199.248 71.7611 199.342 73.9691 199.342 76.5479V80.7979H195.175V76.5479C195.175 70.5824 194.516 65.3529 193.199 60.8594L193 60.2285L193.631 60.0459L196.354 59.2158L197.051 59L197.2 59.6973L198.429 65.209C199.369 65.7292 200.343 65.9893 201.351 65.9893Z" fill="#555555"/>
</svg>
