<svg width="400" height="140" viewBox="0 0 400 140" fill="none" xmlns="http://www.w3.org/2000/svg">
<rect width="400" height="140" fill="#F2F2F4"/>
<rect x="21" y="36" width="73" height="68" rx="4" fill="white" stroke="#D9D9D9" stroke-width="2" stroke-dasharray="3 3"/>
<rect x="116" y="36" width="73" height="68" rx="4" fill="white" stroke="#D9D9D9" stroke-width="2" stroke-dasharray="3 3"/>
<rect x="306" y="36" width="73" height="68" rx="4" fill="white" stroke="#D9D9D9" stroke-width="2" stroke-dasharray="3 3"/>
<rect x="210" y="35" width="75" height="70" rx="5" fill="#D9D9D9"/>
<path d="M248.351 65.9893C249.38 65.9893 250.055 65.7292 250.376 65.209C250.631 64.7773 250.769 63.8809 250.791 62.5195C250.791 62.2982 250.791 61.9219 250.791 61.3906V59.1494H254.858V61.3242C254.858 62.4531 254.803 63.4492 254.692 64.3125C254.593 65.1647 254.399 65.9837 254.111 66.7695C253.824 67.5443 253.436 68.1807 252.949 68.6787C252.473 69.1768 251.842 69.5697 251.057 69.8574C250.282 70.1452 249.363 70.2891 248.301 70.2891C247.604 70.2891 246.856 70.1673 246.06 69.9238C246.248 71.7611 246.342 73.9691 246.342 76.5479V80.7979H242.175V76.5479C242.175 70.5824 241.516 65.3529 240.199 60.8594L240 60.2285L240.631 60.0459L243.354 59.2158L244.051 59L244.2 59.6973L245.429 65.209C246.369 65.7292 247.343 65.9893 248.351 65.9893Z" fill="#555555"/>
</svg>
