<svg width="400" height="140" viewBox="0 0 400 140" fill="none" xmlns="http://www.w3.org/2000/svg">
<rect width="400" height="140" fill="#F2F2F4"/>
<rect x="116" y="36" width="73" height="68" rx="4" fill="white" stroke="#D9D9D9" stroke-width="2" stroke-dasharray="3 3"/>
<rect x="211" y="36" width="73" height="68" rx="4" fill="white" stroke="#D9D9D9" stroke-width="2" stroke-dasharray="3 3"/>
<rect x="306" y="36" width="73" height="68" rx="4" fill="white" stroke="#D9D9D9" stroke-width="2" stroke-dasharray="3 3"/>
<rect x="20" y="35" width="75" height="70" rx="5" fill="#D9D9D9"/>
<path d="M58.3301 66.9688C59.2044 67.179 60.1341 67.2842 61.1191 67.2842C62.2259 67.2842 63.377 67.0352 64.5723 66.5371L65.4688 66.1553L65.5352 69.9902V70.4385L65.1367 70.6211C63.7754 71.1966 62.3255 71.4844 60.7871 71.4844C58.9388 71.4844 57.0296 71.0527 55.0596 70.1895C55.2367 72.2591 55.3252 74.3786 55.3252 76.5479V80.7979H51.1582V76.5479C51.1582 70.6045 50.4997 65.375 49.1826 60.8594L49 60.2285L49.6143 60.0459L52.3203 59.2158L53.0176 59L53.167 59.6973L54.5283 65.707C54.5283 65.707 54.5449 65.7181 54.5781 65.7402C54.6224 65.7624 54.6611 65.7845 54.6943 65.8066C54.7386 65.8177 54.7607 65.8288 54.7607 65.8398C54.9046 63.748 55.4746 62.1156 56.4707 60.9424C57.4779 59.7581 58.8724 59.166 60.6543 59.166C62.071 59.166 63.3714 59.5368 64.5557 60.2783L64.9043 60.4941L64.8711 60.9092L64.6221 63.3496L64.5225 64.3457L63.6426 63.8643C62.7904 63.4105 61.9105 63.1836 61.0029 63.1836C60.1175 63.1836 59.4424 63.4714 58.9775 64.0469C58.5127 64.6113 58.2803 65.5742 58.2803 66.9355V66.9521C58.2913 66.9632 58.3079 66.9688 58.3301 66.9688Z" fill="#555555"/>
</svg>
