<svg width="400" height="250" viewBox="0 0 400 250" fill="none" xmlns="http://www.w3.org/2000/svg">
<g clip-path="url(#clip0_1000_548)">
<rect width="400" height="250" fill="white"/>
<rect width="400" height="250" fill="#D9D9D9"/>
<path d="M170.906 132H170.633C168.737 132 167.333 131.439 166.422 130.318C166.057 130.902 165.62 131.33 165.109 131.604C164.608 131.868 163.979 132 163.223 132C161.609 132 160.393 131.435 159.572 130.305C158.779 131.435 157.526 132 155.812 132C154.819 131.991 154.017 131.736 153.406 131.234C153.379 132.766 153.046 134.042 152.408 135.062C151.779 136.092 150.859 136.863 149.646 137.373C148.443 137.883 146.958 138.139 145.189 138.139H144.492C141.73 138.139 139.643 137.482 138.23 136.17C136.818 134.867 136.111 132.925 136.111 130.346V125.41H139.037V130.332C139.037 131.954 139.484 133.162 140.377 133.955C141.279 134.748 142.651 135.145 144.492 135.145H145.189C147.04 135.145 148.407 134.807 149.291 134.133C150.175 133.458 150.617 132.442 150.617 131.084V122.826H153.57V126.299C153.57 127.238 153.762 127.921 154.145 128.35C154.527 128.778 155.111 128.992 155.895 128.992C156.624 128.992 157.166 128.801 157.521 128.418C157.877 128.026 158.055 127.429 158.055 126.627L158.068 123.059V122.785H160.939V123.059L160.953 126.6C160.962 127.42 161.145 128.021 161.5 128.404C161.855 128.787 162.416 128.979 163.182 128.979C163.829 128.979 164.285 128.801 164.549 128.445C164.822 128.081 164.959 127.475 164.959 126.627V122.785H167.734V123.059L167.748 126.586C167.748 127.133 167.844 127.584 168.035 127.939C168.236 128.286 168.541 128.55 168.951 128.732C169.361 128.906 169.885 128.992 170.523 128.992H170.906C171.134 128.992 171.248 129.462 171.248 130.4V130.551C171.248 131.517 171.134 132 170.906 132Z" fill="#555555"/>
<path d="M186.027 132H185.822C184.008 132 182.427 131.161 181.078 129.484C180.285 131.161 178.426 132 175.5 132H170.77C170.542 132 170.428 131.517 170.428 130.551V130.4C170.428 129.462 170.542 128.992 170.77 128.992H175.527C177.624 128.992 178.672 128.473 178.672 127.434C178.672 127.242 178.549 126.946 178.303 126.545C178.057 126.135 177.692 125.656 177.209 125.109L172.916 120.119C172.36 119.472 172.082 118.793 172.082 118.082C172.091 117.48 172.251 116.975 172.561 116.564C172.88 116.145 173.326 115.844 173.9 115.662L182.527 112.846V115.867L175.199 118.26L182.732 126.969C183.908 128.318 184.897 128.992 185.699 128.992H186.027C186.255 128.992 186.369 129.462 186.369 130.4V130.551C186.369 131.517 186.255 132 186.027 132Z" fill="#555555"/>
<path d="M185.891 128.992H189.432C188.465 127.971 187.982 126.827 187.982 125.561C187.982 123.92 188.516 122.566 189.582 121.5C190.658 120.424 192.02 119.887 193.67 119.887C195.538 119.887 197.051 120.598 198.209 122.02L198.332 122.17L198.25 122.334L197.252 124.152L197.074 124.453L196.814 124.207C195.93 123.368 194.905 122.949 193.738 122.949C192.954 122.949 192.289 123.191 191.742 123.674C191.195 124.148 190.922 124.772 190.922 125.547C190.922 126.331 191.323 127.037 192.125 127.666C192.845 128.268 193.406 128.568 193.807 128.568C194.098 128.568 194.686 128.468 195.57 128.268L198.811 127.488V130.51L198.619 130.564C195.42 131.521 192.59 132 190.129 132H185.891C185.663 132 185.549 131.517 185.549 130.551V130.4C185.549 129.462 185.663 128.992 185.891 128.992Z" fill="#555555"/>
<path d="M215.094 122.758L217.24 120.611L219.387 122.758L217.24 124.904L215.094 122.758ZM226.113 131.016C226.077 132.592 225.73 133.91 225.074 134.967C224.418 136.033 223.475 136.826 222.244 137.346C221.023 137.874 219.519 138.139 217.732 138.139H217.035C214.273 138.139 212.186 137.482 210.773 136.17C209.361 134.867 208.654 132.925 208.654 130.346V125.41H211.58V130.332C211.58 131.954 212.027 133.162 212.92 133.955C213.822 134.748 215.194 135.145 217.035 135.145H217.732C219.583 135.145 220.95 134.807 221.834 134.133C222.718 133.458 223.16 132.442 223.16 131.084V122.826H226.113V131.016Z" fill="#555555"/>
<path d="M238.158 126.969V131.727C238.158 133.796 237.447 135.423 236.025 136.607C234.604 137.792 232.589 138.385 229.982 138.385H228.697V135.432H229.9C231.623 135.432 232.931 135.135 233.824 134.543C234.727 133.96 235.21 133.112 235.273 132H233.346C231.696 132 230.443 131.585 229.586 130.756C228.738 129.926 228.314 128.705 228.314 127.092C228.314 126.299 228.419 125.57 228.629 124.904C228.848 124.23 229.158 123.642 229.559 123.141C229.969 122.639 230.497 122.247 231.145 121.965C231.792 121.682 232.521 121.541 233.332 121.541C234.845 121.541 236.025 122.033 236.873 123.018C237.73 123.993 238.158 125.31 238.158 126.969ZM231.145 127.037C231.145 127.702 231.318 128.195 231.664 128.514C232.02 128.833 232.576 128.992 233.332 128.992H235.301V126.955C235.301 125.278 234.626 124.439 233.277 124.439C231.855 124.439 231.145 125.305 231.145 127.037Z" fill="#555555"/>
<path d="M255.781 132H255.562C255.253 132 254.961 131.977 254.688 131.932C254.423 131.886 254.163 131.809 253.908 131.699C253.662 131.59 253.439 131.48 253.238 131.371C253.038 131.253 252.819 131.093 252.582 130.893C252.345 130.683 252.14 130.501 251.967 130.346C251.803 130.191 251.589 129.981 251.324 129.717C250.868 130.437 250.158 130.997 249.191 131.398C248.225 131.799 247.027 132 245.596 132H240.346V128.992H245.609C247.833 128.992 248.945 128.536 248.945 127.625C248.945 127.023 248.526 126.235 247.688 125.26L243.859 120.844L243.695 120.666L243.859 120.488L245.514 118.629L245.719 118.396L245.924 118.629L252.021 125.793C252.924 126.841 253.585 127.584 254.004 128.021C254.432 128.45 254.747 128.719 254.947 128.828C255.148 128.938 255.385 128.992 255.658 128.992H255.781C256.009 128.992 256.123 129.462 256.123 130.4V130.551C256.123 131.517 256.009 132 255.781 132Z" fill="#555555"/>
<path d="M255.645 128.992H258.42C259.322 128.992 259.96 128.828 260.334 128.5C260.717 128.163 260.908 127.538 260.908 126.627V122.334H263.834V126.641C263.834 128.4 263.374 129.735 262.453 130.646C261.542 131.549 260.193 132 258.406 132H255.645C255.417 132 255.303 131.517 255.303 130.551V130.4C255.303 129.462 255.417 128.992 255.645 128.992ZM256.574 136.525L258.721 134.379L260.867 136.525L258.721 138.672L256.574 136.525Z" fill="#555555"/>
</g>
<defs>
<clipPath id="clip0_1000_548">
<rect width="400" height="250" fill="white"/>
</clipPath>
</defs>
</svg>
