<svg width="1920" height="320" viewBox="0 0 1920 320" fill="none" xmlns="http://www.w3.org/2000/svg">
<g clip-path="url(#clip0_1070_485)">
<rect width="1920" height="320" fill="white"/>
<rect width="1920" height="278" fill="#277FE7" fill-opacity="0.15"/>
<g opacity="0.3" clip-path="url(#clip1_1070_485)">
<path d="M33.9633 255.662C34.2277 257.316 34.4703 258.833 34.7129 260.35C34.8053 260.928 34.8739 261.509 34.9265 262.094C35.012 262.986 34.422 263.837 33.5648 264.09C33.4865 264.11 33.4175 264.138 33.2928 264.174C33.3223 264.359 33.3492 264.527 33.3762 264.696C34.4234 271.295 35.4693 277.886 36.5165 284.485C36.5576 284.742 36.5907 285 36.5986 285.254C36.6115 285.589 36.3756 285.849 36.0736 285.848C35.7463 285.843 35.4884 285.761 35.4216 285.343C34.853 281.788 34.2512 278.229 33.6746 274.674C33.1442 271.409 32.631 268.149 32.1086 264.882L32.0264 264.368C31.353 264.443 30.7711 264.224 30.3163 263.778C30.0935 263.558 29.8779 263.23 29.8212 262.927C29.1491 258.877 28.4996 254.816 27.8593 250.761C27.4396 248.136 29.5561 245.452 32.0145 245.059C33.3432 244.846 34.6799 244.632 36.0098 244.428C36.7497 244.31 37.7435 245.064 37.8616 245.803C38.2544 248.259 38.6485 250.723 39.0413 253.179C39.1607 253.926 38.4493 254.937 37.7093 255.055C36.5 255.248 35.2907 255.442 33.9699 255.653L33.9633 255.662ZM33.9079 246.081C33.3828 246.165 32.8869 246.228 32.4042 246.322C32.0805 246.39 31.7461 246.493 31.4512 246.639C31.1179 246.799 30.7817 246.993 30.5034 247.243C28.9579 248.651 28.6483 250.898 29.803 252.558C31.1064 254.432 32.9371 254.756 35.2008 254.114L33.9159 246.08L33.9079 246.081ZM29.7633 254.605C29.7603 254.688 29.7521 254.739 29.7598 254.787C30.1705 257.356 30.58 259.916 30.9908 262.484C31.0408 262.797 31.3945 263.07 31.7312 263.033C32.2124 262.981 32.6898 262.904 33.1633 262.804C33.5029 262.733 33.738 262.366 33.6866 262.045C33.367 260.046 33.0461 258.04 32.7185 256.043C32.6993 255.922 32.5291 255.776 32.3982 255.723C31.8944 255.532 31.369 255.41 30.8719 255.21C30.4964 255.056 30.1478 254.816 29.7541 254.599L29.7633 254.605ZM35.2261 245.854L36.5238 253.969C36.7307 253.936 36.9229 253.913 37.0967 253.877C37.6313 253.75 37.8089 253.483 37.7216 252.938C37.3711 250.746 37.022 248.563 36.6716 246.372C36.6022 245.938 36.312 245.705 35.8944 245.747C35.677 245.765 35.4727 245.814 35.2261 245.854Z" fill="#277FE7"/>
<path d="M18.6388 266.526C17.1643 266.49 16.5193 265.927 16.2854 264.515C15.9527 262.486 15.62 260.456 15.3124 258.431C15.2649 258.134 15.173 257.968 14.8743 257.835C12.9668 256.979 11.6447 254.885 11.7349 252.797C11.8303 250.485 12.9482 248.75 15.0407 247.905C17.4319 246.938 19.8152 247.504 21.481 249.756C22.9624 251.775 22.874 254.538 21.191 256.413C20.6366 257.028 20.5199 257.574 20.6616 258.358C21.0123 260.244 21.2675 262.146 21.5386 264.046C21.6895 265.092 21.1142 265.933 20.1109 266.241C20.0632 266.249 20.0101 266.274 19.9092 266.307C19.9361 266.475 19.9644 266.652 19.9913 266.82C21.0601 273.605 22.1301 280.398 23.1909 287.184C23.2628 287.634 23.0703 287.961 22.7216 288.025C22.4272 288.072 22.0196 287.717 21.958 287.332C20.8772 280.574 19.7963 273.816 18.7155 267.057C18.6886 266.889 18.6603 266.712 18.6308 266.527L18.6388 266.526ZM13.1263 253.537C13.3879 255.734 15.6442 257.292 17.73 256.966C19.9419 256.613 21.5233 254.409 21.1238 252.217C20.7256 250.034 18.6521 248.497 16.4733 248.853C14.2695 249.206 12.7707 251.314 13.1276 253.545L13.1263 253.537ZM19.3188 257.972L16.6614 258.397C16.6622 258.504 16.6563 258.62 16.6755 258.74C16.9887 260.699 17.286 262.66 17.5992 264.618C17.6506 264.939 17.9963 265.213 18.333 265.176C18.8143 265.123 19.2916 265.047 19.7651 264.947C20.1432 264.862 20.3518 264.482 20.2956 264.08C20.0633 262.627 19.8322 261.182 19.5999 259.729C19.5062 259.144 19.4112 258.55 19.3188 257.972Z" fill="#277FE7"/>
<path d="M19.6939 252.511C20.1179 254.041 18.6985 255.42 17.5556 255.57C16.0852 255.764 14.7321 254.803 14.4867 253.319C14.2556 251.875 15.2273 250.501 16.6224 250.245C18.0494 249.984 19.671 251.042 19.7018 252.51L19.6939 252.511ZM18.4617 252.766C18.3783 251.989 17.7317 251.467 16.9682 251.54C16.2603 251.603 15.6762 252.339 15.7599 253.066C15.8398 253.77 16.543 254.341 17.2496 254.269C18.0131 254.196 18.5505 253.526 18.463 252.774L18.4617 252.766Z" fill="#277FE7"/>
</g>
<g opacity="0.3" clip-path="url(#clip2_1070_485)">
<path d="M329.922 64.8243C330.242 63.4343 330.542 62.0843 330.862 60.6943C330.652 60.6943 330.482 60.6943 330.312 60.6943C327.162 60.6943 324.012 60.6943 320.862 60.6943C318.912 60.6943 317.672 59.4543 317.672 57.5143C317.672 50.5543 317.672 43.6043 317.672 36.6443C317.672 34.6643 318.892 33.4543 320.892 33.4543C329.412 33.4543 337.922 33.4543 346.442 33.4543C346.642 33.4543 346.842 33.4543 347.102 33.4543C347.102 33.2643 347.122 33.0943 347.122 32.9343C347.122 31.8543 347.122 30.7843 347.122 29.7043C347.122 28.2343 347.982 27.3743 349.442 27.3743C353.062 27.3743 356.682 27.3743 360.302 27.3743C361.732 27.3743 362.602 28.2543 362.602 29.6743C362.602 41.1243 362.602 52.5643 362.602 64.0143C362.602 65.4343 361.722 66.3143 360.292 66.3143C356.662 66.3143 353.022 66.3143 349.392 66.3143C348.022 66.3143 347.142 65.4543 347.132 64.0743C347.122 62.9743 347.132 61.8643 347.132 60.7343H339.222C339.532 62.0943 339.842 63.4443 340.152 64.8343C340.852 64.8343 341.532 64.8343 342.212 64.8343C342.802 64.8343 343.142 65.1243 343.132 65.5943C343.132 66.0643 342.792 66.3343 342.192 66.3343C337.422 66.3343 332.642 66.3343 327.872 66.3343C327.272 66.3343 326.942 66.0643 326.932 65.5943C326.932 65.1243 327.272 64.8443 327.852 64.8343C328.522 64.8343 329.192 64.8343 329.912 64.8343L329.922 64.8243ZM350.892 53.4043V52.8843C350.892 47.4743 350.892 42.0643 350.892 36.6543C350.892 35.5143 350.332 34.9543 349.202 34.9543C339.752 34.9543 330.302 34.9543 320.852 34.9543C319.722 34.9543 319.162 35.5143 319.162 36.6543C319.162 42.0643 319.162 47.4743 319.162 52.8843V53.4043H350.892ZM348.612 33.4643C348.912 33.4643 349.162 33.4643 349.402 33.4643C351.112 33.4943 352.372 34.7543 352.392 36.4643C352.392 36.9143 352.392 37.3643 352.392 37.8243C352.392 44.4043 352.392 50.9843 352.392 57.5643C352.392 59.4243 351.142 60.6843 349.302 60.7043C349.092 60.7043 348.872 60.7043 348.622 60.7043C348.622 61.8143 348.622 62.8743 348.622 63.9243C348.622 64.6543 348.792 64.8243 349.542 64.8243C353.062 64.8243 356.592 64.8243 360.112 64.8243C360.952 64.8243 361.102 64.6743 361.102 63.8043C361.102 59.3443 361.102 54.8843 361.102 50.4243C361.102 43.5443 361.102 36.6743 361.102 29.7943C361.102 29.0543 360.922 28.8743 360.202 28.8743C359.362 28.8743 358.522 28.8743 357.672 28.8743C354.932 28.8743 352.182 28.8743 349.442 28.8743C348.822 28.8743 348.632 29.0643 348.622 29.6743C348.622 30.0943 348.622 30.5143 348.622 30.9343C348.622 31.7543 348.622 32.5743 348.622 33.4543L348.612 33.4643ZM319.162 54.9443C319.162 55.7643 319.162 56.5543 319.162 57.3543C319.162 58.6743 319.682 59.1943 320.992 59.1943C330.352 59.1943 339.712 59.1943 349.062 59.1943C349.222 59.1943 349.372 59.1943 349.532 59.1943C350.202 59.1343 350.832 58.6243 350.862 57.9643C350.912 56.9743 350.872 55.9743 350.872 54.9543H319.162V54.9443ZM331.472 64.7943H338.592C338.282 63.4143 337.972 62.0643 337.662 60.7243H332.392C332.082 62.0843 331.782 63.4343 331.472 64.7943Z" fill="#277FE7"/>
<path d="M354.862 59.8343C355.112 59.8343 355.362 59.8143 355.612 59.8343C356.032 59.8643 356.272 60.1343 356.292 60.5343C356.312 60.9343 356.082 61.2543 355.672 61.2843C355.112 61.3243 354.552 61.3343 353.992 61.2843C353.582 61.2443 353.382 60.9243 353.412 60.5143C353.442 60.1243 353.672 59.8843 354.072 59.8543C354.332 59.8343 354.602 59.8543 354.862 59.8543V59.8343Z" fill="#277FE7"/>
<path d="M335.051 56.1944C335.491 56.1944 335.921 56.1844 336.361 56.1944C336.821 56.2044 337.121 56.4944 337.131 56.8944C337.151 57.3244 336.851 57.6644 336.381 57.6744C335.481 57.6944 334.571 57.6944 333.671 57.6744C333.201 57.6644 332.901 57.3244 332.921 56.8944C332.941 56.4844 333.241 56.2044 333.701 56.1944C334.151 56.1844 334.601 56.1944 335.051 56.1944Z" fill="#277FE7"/>
</g>
<g opacity="0.3" clip-path="url(#clip3_1070_485)">
<path d="M324.634 149.897C326.645 146.487 328.656 143.078 330.664 139.674C331.491 138.271 332.968 137.754 334.446 138.332C334.607 138.396 334.754 138.482 334.906 138.572C339.158 141.08 343.411 143.588 347.663 146.096C349.233 147.022 349.681 148.767 348.738 150.365C344.716 157.185 340.697 163.998 336.675 170.818C335.743 172.399 333.996 172.857 332.443 171.941C328.196 169.436 323.955 166.935 319.708 164.43C318.088 163.474 317.648 161.742 318.621 160.092C320.625 156.694 322.63 153.295 324.637 149.891L324.634 149.897ZM320.516 158.815C321.51 158.626 322.283 158.942 323.036 159.394C327.107 161.811 331.184 164.215 335.268 166.609C335.997 167.038 336.589 167.558 336.892 168.373C336.9 168.385 336.926 168.393 336.963 168.407L337.085 168.2C340.687 162.093 344.288 155.987 347.89 149.88C347.978 149.731 348.07 149.576 348.124 149.406C348.448 148.458 348.089 147.517 347.202 146.994C342.961 144.493 338.704 142.006 334.48 139.475C333.438 138.854 332.131 139.082 331.425 140.293C327.882 146.365 324.294 152.409 320.726 158.458C320.669 158.556 320.614 158.648 320.513 158.821L320.516 158.815ZM328.615 163.847C326.526 162.615 324.442 161.386 322.352 160.154C322.211 160.07 322.07 159.987 321.922 159.915C320.857 159.411 319.552 159.998 319.199 161.138C318.903 162.079 319.266 162.999 320.141 163.515C324.422 166.04 328.703 168.565 332.983 171.089C333.046 171.126 333.108 171.163 333.17 171.199C334.269 171.762 335.622 171.158 335.98 169.958C336.261 169.016 335.895 168.141 334.985 167.605C332.862 166.352 330.739 165.1 328.615 163.847Z" fill="#277FE7"/>
<path d="M332.801 153.73C331.96 153.234 331.158 152.761 330.362 152.291C330.147 152.165 329.965 152.034 329.978 151.755C329.988 151.466 330.197 151.357 330.421 151.249C333.286 149.901 336.148 148.558 339.014 147.21C339.053 147.195 339.087 147.176 339.127 147.161C339.366 147.039 339.592 147.056 339.768 147.26C339.942 147.456 339.911 147.677 339.785 147.89C339.446 148.465 339.107 149.04 338.771 149.609C338.222 150.541 337.672 151.472 337.12 152.41C337.062 152.507 337.004 152.605 336.926 152.737C337.039 152.804 337.135 152.861 337.231 152.917C337.96 153.347 338.694 153.78 339.422 154.21C339.62 154.326 339.766 154.466 339.755 154.716C339.742 154.971 339.576 155.098 339.368 155.193C336.463 156.556 333.567 157.917 330.667 159.284C330.413 159.405 330.162 159.443 329.965 159.21C329.775 158.99 329.846 158.753 329.982 158.523C330.854 157.045 331.729 155.562 332.6 154.084C332.661 153.981 332.726 153.871 332.807 153.733L332.801 153.73ZM331.618 157.659L331.67 157.713C333.828 156.699 335.981 155.683 338.191 154.646C337.462 154.216 336.796 153.823 336.13 153.43C335.695 153.173 335.646 152.959 335.907 152.516C336.586 151.366 337.26 150.222 337.939 149.072C337.993 148.98 338.047 148.888 338.101 148.796C338.079 148.783 338.065 148.767 338.046 148.748C335.888 149.761 333.727 150.78 331.516 151.817C332.262 152.257 332.94 152.657 333.617 153.056C334.001 153.283 334.058 153.51 333.833 153.904C333.266 154.865 332.7 155.825 332.134 156.785C331.961 157.078 331.788 157.372 331.615 157.665L331.618 157.659Z" fill="#277FE7"/>
<path d="M326.221 164.203C326.368 164.289 326.524 164.373 326.667 164.466C326.894 164.623 326.945 164.846 326.823 165.092C326.701 165.338 326.468 165.449 326.232 165.333C325.876 165.162 325.529 164.964 325.21 164.73C324.994 164.579 324.972 164.334 325.105 164.095C325.237 163.87 325.5 163.8 325.747 163.923C325.912 164.005 326.063 164.109 326.221 164.203Z" fill="#277FE7"/>
<path d="M329.468 166.118C329.615 166.204 329.775 166.283 329.915 166.381C330.142 166.538 330.204 166.807 330.066 167.028C329.927 167.264 329.689 167.356 329.453 167.24C329.103 167.072 328.773 166.87 328.454 166.651C328.232 166.497 328.211 166.197 328.366 165.987C328.533 165.767 328.745 165.706 328.992 165.829C329.157 165.91 329.308 166.015 329.466 166.109L329.468 166.118Z" fill="#277FE7"/>
<path d="M322.963 162.281C323.11 162.367 323.266 162.451 323.409 162.544C323.636 162.701 323.705 162.959 323.578 163.186C323.436 163.428 323.21 163.527 322.979 163.414C322.624 163.243 322.279 163.04 321.957 162.811C321.742 162.661 321.722 162.409 321.876 162.174C322.026 161.945 322.247 161.882 322.488 162.001C322.653 162.083 322.805 162.187 322.963 162.281Z" fill="#277FE7"/>
<path d="M332.199 168.883C332.052 168.796 331.893 168.718 331.753 168.62C331.509 168.453 331.456 168.181 331.595 167.945C331.734 167.71 332.003 167.628 332.26 167.772C332.567 167.937 332.86 168.11 333.153 168.298C333.383 168.45 333.44 168.716 333.313 168.943C333.177 169.173 332.931 169.268 332.677 169.157C332.509 169.081 332.361 168.97 332.202 168.877L332.199 168.883Z" fill="#277FE7"/>
</g>
<g opacity="0.3" clip-path="url(#clip4_1070_485)">
<path d="M11.6681 91.1924C14.3095 94.1409 16.9509 97.0894 19.5878 100.033C20.6747 101.246 20.7199 102.81 19.7221 104.044C19.6129 104.178 19.486 104.292 19.3541 104.41C15.6769 107.704 11.9997 110.998 8.32255 114.292C6.96497 115.509 5.16683 115.408 3.92854 114.025C-1.35425 108.128 -6.63259 102.236 -11.9154 96.3393C-13.1403 94.972 -13.0482 93.1686 -11.7052 91.9655C-8.03292 88.6757 -4.36551 85.3903 -0.693207 82.1005C0.708323 80.8449 2.49225 80.9497 3.77063 82.3767C6.40311 85.3153 9.0356 88.2538 11.6725 91.1974L11.6681 91.1924ZM4.4145 84.5693C4.29345 85.574 3.75832 86.2147 3.0995 86.796C-0.43521 89.9446 -3.96101 93.1032 -7.4779 96.2717C-8.10786 96.836 -8.78209 97.2429 -9.65033 97.2857C-9.66455 97.2895 -9.67963 97.312 -9.70447 97.3432L-9.54412 97.5222C-4.81366 102.803 -0.083207 108.083 4.64725 113.364C4.76306 113.493 4.88333 113.627 5.02844 113.73C5.8346 114.325 6.83931 114.268 7.606 113.581C11.2734 110.296 14.9324 106.991 18.622 103.73C19.5299 102.926 19.7074 101.611 18.7671 100.571C14.0523 95.3572 9.37658 90.1083 4.69066 84.8776C4.61494 84.7931 4.54367 84.7135 4.41004 84.5644L4.4145 84.5693ZM-2.83293 90.7661C-1.02608 89.1475 0.775889 87.5332 2.58274 85.9145C2.70482 85.8052 2.82691 85.6958 2.94009 85.5765C3.74294 84.7139 3.57875 83.2925 2.5986 82.6111C1.79114 82.0438 0.804683 82.112 0.0477592 82.7901C-3.65384 86.1061 -7.35544 89.4222 -11.057 92.7382C-11.1108 92.7863 -11.1645 92.8345 -11.2182 92.8826C-12.0873 93.7597 -11.9208 95.2328 -10.8855 95.9365C-10.0727 96.49 -9.1276 96.4052 -8.34138 95.7008C-6.50523 94.0559 -4.66908 92.411 -2.83293 90.7661Z" fill="#277FE7"/>
<path d="M5.54352 97.8174C6.27115 97.1655 6.96459 96.5443 7.65314 95.9275C7.83871 95.7612 8.01811 95.6274 8.28058 95.7239C8.5524 95.821 8.59324 96.0532 8.62877 96.2992C9.04658 99.4383 9.45993 102.572 9.87773 105.711C9.88047 105.754 9.88809 105.792 9.89083 105.834C9.93484 106.099 9.85027 106.31 9.60191 106.416C9.36289 106.522 9.16132 106.425 8.99651 106.241C8.55109 105.744 8.10566 105.246 7.66468 104.754C6.94309 103.949 6.22149 103.143 5.49544 102.333C5.41972 102.248 5.344 102.164 5.24155 102.049C5.14388 102.137 5.06086 102.211 4.97785 102.286C4.34789 102.85 3.71305 103.419 3.08309 103.983C2.91218 104.136 2.7345 104.233 2.4996 104.147C2.26026 104.057 2.18968 103.86 2.16263 103.633C1.74209 100.452 1.32112 97.28 0.895695 94.103C0.856996 93.824 0.896594 93.5734 1.17828 93.4555C1.44574 93.3414 1.65004 93.481 1.82822 93.6799C2.97297 94.9578 4.12217 96.2406 5.26693 97.5184C5.3471 97.6079 5.43174 97.7024 5.53864 97.8217L5.54352 97.8174ZM2.15669 95.5008L2.08961 95.534C2.40253 97.8976 2.72034 100.257 3.04002 102.677C3.66998 102.113 4.24622 101.597 4.82246 101.08C5.19848 100.744 5.4177 100.762 5.76068 101.145C6.65154 102.14 7.53794 103.129 8.4288 104.123C8.50007 104.203 8.57133 104.283 8.6426 104.362C8.66214 104.345 8.68124 104.336 8.70523 104.324C8.39231 101.96 8.07493 99.5917 7.75524 97.1714C7.11064 97.7489 6.52463 98.2739 5.93863 98.7988C5.60656 99.0963 5.37311 99.0814 5.06534 98.7476C4.32147 97.9173 3.57761 97.0869 2.83374 96.2566C2.60657 96.003 2.3794 95.7494 2.15223 95.4958L2.15669 95.5008Z" fill="#277FE7"/>
<path d="M0.370709 85.8528C0.243741 85.9665 0.116344 86.0896 -0.0150779 86.1984C-0.233543 86.3672 -0.499881 86.3548 -0.678482 86.1653C-0.865562 85.9565 -0.891757 85.7111 -0.714668 85.5255C-0.443936 85.2382 -0.14605 84.9713 0.169224 84.7337C0.377922 84.5736 0.62344 84.6315 0.800754 84.8491C0.973613 85.0617 0.967768 85.291 0.780913 85.4853C0.653087 85.6177 0.507443 85.7303 0.370709 85.8528Z" fill="#277FE7"/>
</g>
<g opacity="0.3" clip-path="url(#clip5_1070_485)">
<path d="M71.4279 128.633C71.2165 127.971 71.3969 127.38 71.7043 126.782C73.721 122.832 75.7183 118.871 77.7265 114.921C77.8161 114.742 77.8235 114.611 77.7178 114.435C77.3992 113.914 77.1004 113.381 76.7983 112.85C76.5555 112.43 76.6017 112.237 77.0047 111.956C77.7777 111.413 78.0965 110.607 77.8954 109.72C77.702 108.876 77.021 108.236 76.1297 108.111C75.3156 107.998 74.6384 108.297 74.1472 108.949C73.6607 109.593 73.5919 110.316 73.9222 111.063C73.9674 111.164 74.0093 111.267 74.0459 111.368C74.1298 111.605 74.0436 111.782 73.8423 111.911C73.6278 112.048 73.3963 112.041 73.2486 111.846C73.1099 111.659 72.9983 111.443 72.9155 111.224C72.3248 109.624 73.2048 107.833 74.8497 107.26C76.4279 106.708 78.2449 107.586 78.7602 109.177C79.1605 110.409 78.9231 111.523 77.9932 112.454C77.8555 112.595 77.8324 112.691 77.9395 112.862C78.1651 113.222 78.3775 113.59 78.5749 113.962C78.6613 114.127 78.7665 114.18 78.9524 114.191C83.1452 114.412 87.3347 114.635 91.528 114.864C92.002 114.888 92.4759 114.913 92.9445 114.988C93.672 115.102 94.2205 115.688 94.3475 116.417C94.4635 117.103 94.1274 117.818 93.4966 118.183C86.9551 121.959 80.4136 125.736 73.8754 129.511C73.2151 129.892 72.4405 129.787 71.882 129.26C71.8262 129.209 71.7658 129.165 71.7086 129.119C71.6157 128.958 71.5227 128.797 71.4279 128.633ZM83.2476 123.027C86.4279 121.19 89.6116 119.352 92.792 117.516C92.9004 117.454 93.0121 117.389 93.1092 117.307C93.3956 117.067 93.4549 116.752 93.3579 116.41C93.267 116.085 93.0203 115.939 92.7048 115.893C92.6139 115.88 92.5183 115.874 92.428 115.869C87.9316 115.631 83.4338 115.397 78.9388 115.154C78.7444 115.144 78.6595 115.201 78.576 115.368C76.5475 119.404 74.5105 123.441 72.4768 127.475C72.4358 127.556 72.39 127.644 72.3664 127.732C72.27 128.05 72.3249 128.343 72.5781 128.569C72.8224 128.787 73.1082 128.819 73.4083 128.694C73.5112 128.652 73.6065 128.597 73.7017 128.542C76.8821 126.706 80.0658 124.868 83.2462 123.032L83.2476 123.027Z" fill="#277FE7"/>
</g>
<g opacity="0.3" clip-path="url(#clip6_1070_485)">
<path d="M243.194 102.171C243.31 101.972 243.402 101.751 243.552 101.578C245.699 99.1236 247.852 96.6786 250.015 94.2373C250.232 93.9957 250.507 93.7863 250.796 93.6351C252.393 92.8042 253.999 91.9971 255.604 91.1803C256.318 90.8154 256.709 90.9897 256.93 91.738C257.254 92.8567 257.774 93.8557 258.812 94.485C261.21 95.9367 264.386 94.4765 264.826 91.7222C264.879 91.3869 264.911 91.0443 264.918 90.7049C264.926 89.977 265.281 89.673 266.006 89.8294C267.333 90.1133 268.651 90.4481 269.985 90.6763C271.242 90.8894 272.337 91.3673 273.378 92.1008C275.67 93.7152 278.019 95.2529 280.341 96.8237C281.047 97.3012 281.095 97.6386 280.562 98.3238C278.935 100.423 277.312 102.522 275.679 104.616C275.466 104.887 275.387 105.132 275.431 105.479C276.121 110.773 276.791 116.069 277.466 121.364C277.479 121.472 277.494 121.585 277.508 121.693C277.565 122.263 277.327 122.567 276.741 122.642C275.368 122.822 273.994 122.992 272.62 123.167C266.336 123.968 260.056 124.768 253.772 125.569C252.914 125.679 252.675 125.5 252.568 124.662C251.885 119.308 251.202 113.949 250.525 108.594C250.488 108.305 250.382 108.11 250.148 107.93C248.07 106.338 246.001 104.735 243.931 103.132C243.682 102.955 243.468 102.738 243.24 102.533C243.224 102.411 243.209 102.293 243.194 102.171ZM250.126 105.942C250.006 104.996 249.88 104.007 249.753 103.013C249.733 102.856 249.723 102.698 249.743 102.541C249.778 102.183 250.04 101.941 250.399 101.91C250.752 101.875 251.06 102.074 251.154 102.421C251.2 102.584 251.222 102.756 251.244 102.927C252.12 109.8 252.995 116.668 253.871 123.54L253.931 124.011L275.914 121.209L275.85 120.709C274.974 113.836 274.098 106.968 273.222 100.096C273.206 99.9634 273.183 99.8269 273.176 99.6934C273.165 99.2915 273.404 98.9922 273.779 98.9295C274.174 98.8593 274.508 99.0706 274.624 99.469C274.659 99.584 274.67 99.7071 274.686 99.8296C274.803 100.751 274.92 101.671 275.038 102.592C275.049 102.681 275.079 102.761 275.101 102.848L275.023 102.754C276.357 101.12 277.696 99.4807 279.077 97.7862C278.954 97.7273 278.875 97.6976 278.803 97.6519C276.336 95.9702 273.868 94.2835 271.39 92.603C271.263 92.5147 271.106 92.4651 270.95 92.4302C269.554 92.1152 268.159 91.8101 266.759 91.5057C266.645 91.4804 266.523 91.4662 266.404 91.4464C266.013 94.0302 264.643 95.8227 262.054 96.3469C258.988 96.9667 256.894 95.5708 255.635 92.8091C254.276 93.5 252.922 94.1805 251.574 94.875C251.37 94.9806 251.177 95.1247 251.028 95.2981C249.089 97.4916 247.162 99.6937 245.23 101.896C245.16 101.975 245.062 102.037 244.934 102.143C246.72 103.459 248.417 104.711 250.108 105.954L250.126 105.942Z" fill="#277FE7"/>
</g>
<g opacity="0.3" clip-path="url(#clip7_1070_485)">
<path d="M166.438 135.646C166.619 135.732 166.802 135.813 166.98 135.905C168.291 136.576 169.035 138.008 168.827 139.451C168.807 139.587 168.784 139.723 168.76 139.858C167.279 148.074 165.793 156.288 164.321 164.506C164.046 166.039 163.211 167.073 161.674 167.461C161.213 167.578 160.689 167.59 160.217 167.508C156.63 166.886 153.048 166.238 149.467 165.58C147.511 165.222 146.277 163.459 146.625 161.523C148.126 153.16 149.633 144.799 151.146 136.439C151.457 134.725 152.836 133.602 154.62 133.57C154.659 133.57 154.698 133.548 154.737 133.536C158.637 134.239 162.538 134.943 166.439 135.646L166.438 135.646ZM165.076 151.895C165.817 147.786 166.558 143.677 167.298 139.569C167.555 138.146 166.908 137.224 165.469 136.965C162.044 136.348 158.618 135.73 155.193 135.113C153.776 134.857 152.828 135.501 152.577 136.89C151.092 145.128 149.607 153.367 148.122 161.605C147.875 162.976 148.54 163.922 149.929 164.173C153.365 164.793 156.802 165.412 160.238 166.031C161.657 166.287 162.597 165.645 162.848 164.252C163.591 160.132 164.334 156.014 165.076 151.895Z" fill="#277FE7"/>
<path d="M160.095 137.507C160.822 137.638 161.55 137.765 162.276 137.902C162.601 137.964 162.812 138.163 162.876 138.488C162.934 138.785 162.846 139.056 162.586 139.204C162.414 139.301 162.175 139.367 161.984 139.335C160.537 139.094 159.094 138.83 157.652 138.562C157.193 138.477 156.924 138.102 156.997 137.694C157.071 137.284 157.44 137.038 157.913 137.115C158.642 137.235 159.367 137.375 160.094 137.506C160.094 137.506 160.094 137.507 160.094 137.508L160.095 137.507Z" fill="#277FE7"/>
<path d="M155.893 160.747C156.701 160.896 157.239 161.666 157.093 162.461C156.948 163.257 156.176 163.783 155.364 163.641C154.541 163.497 153.99 162.711 154.15 161.908C154.309 161.112 155.083 160.596 155.893 160.747Z" fill="#277FE7"/>
</g>
<g opacity="0.3" clip-path="url(#clip8_1070_485)">
<path d="M288.035 240.617C288.104 240.662 288.168 240.705 288.244 240.74C289.293 241.232 289.892 242.045 289.994 243.188C290.398 247.909 290.796 252.629 291.199 257.356C291.362 259.28 291.543 261.2 291.672 263.124C291.787 264.856 290.294 266.256 288.541 266.07C287.495 265.958 286.46 265.778 285.424 265.633C285.276 265.612 285.122 265.589 284.939 265.563C284.76 266.791 284.583 267.963 284.429 269.143C284.414 269.245 284.583 269.408 284.7 269.488C285.541 270.082 285.932 270.882 285.762 271.888C285.587 272.892 284.956 273.537 283.957 273.789C282.709 274.102 281.418 273.35 281.061 272.118C280.703 270.892 281.398 269.6 282.649 269.224C282.954 269.136 283.072 269.009 283.105 268.697C283.242 267.601 283.412 266.509 283.576 265.387L277.616 264.519L275.86 276.582C276.031 276.607 276.179 276.628 276.328 276.65C277.985 276.891 279.642 277.132 281.299 277.374C282.75 277.585 283.532 278.626 283.331 280.047C283.215 280.847 283.097 281.653 282.981 282.454C282.893 283.057 282.63 283.26 282.03 283.173C275.893 282.279 269.762 281.387 263.626 280.493C263.043 280.408 262.837 280.142 262.92 279.573C263.043 278.727 263.16 277.881 263.289 277.036C263.492 275.719 264.558 274.936 265.907 275.127C267.577 275.358 269.249 275.613 270.918 275.856C271.072 275.879 271.226 275.901 271.415 275.929L273.176 263.838C273.004 263.813 272.839 263.789 272.679 263.766C269.325 263.277 265.971 262.789 262.611 262.299C261.022 262.068 259.994 260.997 259.961 259.502C259.95 259.091 260.048 258.662 260.197 258.281C262.565 252.196 264.963 246.11 267.35 240.017C267.805 238.851 268.627 238.176 269.901 238.045C269.937 238.039 269.97 238.009 270.008 237.992C276.019 238.867 282.03 239.742 288.04 240.618L288.035 240.617ZM275.584 262.847C279.864 263.471 284.149 264.095 288.429 264.718C289.606 264.889 290.394 264.164 290.295 262.998C289.747 256.466 289.2 249.927 288.646 243.394C288.568 242.485 288.081 241.982 287.144 241.846C281.596 241.038 276.053 240.231 270.505 239.423C269.545 239.283 268.953 239.623 268.603 240.504C266.236 246.543 263.885 252.59 261.484 258.618C260.978 259.886 261.7 260.86 262.891 261.016C267.126 261.587 271.344 262.23 275.573 262.846L275.584 262.847ZM264.346 279.234L281.705 281.761C281.789 281.181 281.87 280.629 281.95 280.076C282.09 279.112 281.881 278.828 280.915 278.688C275.933 277.962 270.95 277.237 265.968 276.511C265.842 276.493 265.716 276.474 265.59 276.462C265.128 276.429 264.734 276.688 264.657 277.138C264.534 277.822 264.45 278.518 264.346 279.234ZM274.568 264.093L272.817 276.121L274.468 276.362L276.219 264.333L274.568 264.093ZM284.422 271.635C284.504 271.071 284.093 270.528 283.52 270.456C282.942 270.378 282.423 270.78 282.345 271.355C282.276 271.909 282.662 272.42 283.221 272.508C283.798 272.592 284.333 272.209 284.416 271.64L284.422 271.635Z" fill="#277FE7"/>
</g>
<g opacity="0.3" clip-path="url(#clip9_1070_485)">
<path d="M235.572 162.122C236.096 162.603 236.122 162.866 235.664 163.462C233.732 165.972 232.09 168.666 230.754 171.55C230.707 171.652 230.666 171.755 230.587 171.939C230.714 171.874 230.78 171.849 230.842 171.809C233.379 170.105 236.164 169.43 239.187 169.726C239.551 169.762 239.817 169.9 239.908 170.267C239.993 170.618 239.813 170.858 239.537 171.06C236.916 172.988 234.643 175.272 232.864 178.036C232.59 178.465 232.346 178.909 232.152 179.411C232.315 179.32 232.478 179.23 232.641 179.14C234.308 178.206 236.065 177.624 237.999 177.766C239.898 177.901 241.37 178.865 242.593 180.267C244.324 182.254 245.235 184.63 245.672 187.215C246.003 189.192 245.984 191.179 245.682 193.156C245.61 193.618 245.363 193.877 244.989 193.872C244.631 193.867 244.386 193.626 244.322 193.178C243.842 190.02 242.64 187.197 240.607 184.753C240.135 184.185 239.587 183.688 239.099 183.135C238.845 182.854 238.573 182.824 238.228 182.886C236.515 183.211 235.032 184.019 233.662 185.085C232.399 186.07 231.361 187.229 230.758 188.749C230.574 189.21 230.456 189.692 230.292 190.22C231.186 190.233 232 190.245 232.814 190.257C233.728 190.27 234.643 190.278 235.558 190.296C236.296 190.312 236.91 190.841 236.91 191.557C236.907 193.147 236.904 194.738 236.78 196.322C236.643 198.101 235.877 199.639 234.731 200.987C234.669 201.058 234.607 201.134 234.484 201.282C234.827 201.287 235.1 201.281 235.373 201.295C235.893 201.323 236.171 201.677 236.068 202.19C235.915 202.945 235.763 203.705 235.58 204.454C235.333 205.474 234.555 206.091 233.53 206.076C228.455 206.003 223.376 205.929 218.302 205.855C217.271 205.841 216.512 205.207 216.294 204.179C216.133 203.425 216.003 202.661 215.872 201.903C215.783 201.387 216.067 201.035 216.582 201.022C216.85 201.016 217.118 201.03 217.447 201.035C217.363 200.91 217.313 200.822 217.249 200.739C215.888 199.041 215.229 197.101 215.271 194.903C215.292 193.771 215.304 192.638 215.32 191.511C215.334 190.554 215.893 190.011 216.843 190.02C218.445 190.043 220.047 190.066 221.715 190.091C221.03 186.77 219.606 183.882 217.454 181.339C215.355 182.153 213.453 183.284 211.709 184.674C210.855 185.351 210.06 186.102 209.246 186.831C208.99 187.064 208.739 187.251 208.383 187.092C208.011 186.927 207.955 186.612 207.976 186.236C208.247 181.483 211.965 177.455 216.619 176.905C217.211 176.836 217.822 176.912 218.57 176.923C218.183 175.723 217.866 174.586 217.457 173.488C216.795 171.723 215.822 170.134 214.661 168.665C214.606 168.598 214.551 168.535 214.502 168.468C214.288 168.192 214.237 167.892 214.449 167.597C214.655 167.306 214.934 167.249 215.271 167.356C216.826 167.858 218.25 168.609 219.529 169.652C219.624 169.731 219.724 169.799 219.909 169.946C219.844 169.569 219.803 169.291 219.746 169.022C219.343 167.168 218.727 165.394 217.907 163.693C217.75 163.372 217.684 163.067 217.936 162.777C218.203 162.472 218.521 162.513 218.862 162.657C221.887 163.921 223.928 166.133 225.005 169.268C225.189 169.801 225.317 170.359 225.481 170.943C225.558 170.857 225.624 170.791 225.676 170.714C228.073 167.171 231.111 164.358 234.817 162.291C234.913 162.241 234.995 162.165 235.082 162.099C235.249 162.102 235.421 162.104 235.588 162.107L235.572 162.122ZM216.691 191.433C216.67 192.895 216.568 194.33 216.649 195.752C216.76 197.808 217.676 199.504 219.229 200.819C219.404 200.965 219.67 201.062 219.903 201.071C220.676 201.113 221.449 201.103 222.223 201.114C222.753 201.122 223.063 201.384 223.057 201.811C223.05 202.238 222.738 202.496 222.208 202.489C220.747 202.468 219.281 202.446 217.821 202.425C217.669 202.423 217.518 202.421 217.371 202.419C217.365 202.485 217.354 202.516 217.359 202.542C217.425 202.908 217.49 203.275 217.556 203.636C217.697 204.369 217.831 204.484 218.564 204.495C223.472 204.566 228.379 204.637 233.287 204.709C233.383 204.71 233.484 204.711 233.58 204.713C233.934 204.703 234.174 204.521 234.26 204.177C234.383 203.695 234.466 203.202 234.58 202.663L234.095 202.656C231.27 202.615 228.444 202.574 225.619 202.533C225.508 202.531 225.392 202.535 225.281 202.528C224.877 202.491 224.613 202.22 224.613 201.844C224.619 201.463 224.88 201.189 225.28 201.159C225.392 201.15 225.503 201.162 225.619 201.164C227.772 201.195 229.92 201.231 232.073 201.247C232.29 201.25 232.544 201.161 232.718 201.025C233.956 200.049 234.808 198.795 235.235 197.257C235.736 195.431 235.44 193.564 235.583 191.697L216.691 191.423L216.691 191.433ZM237.192 171.062C236.979 171.074 236.797 171.071 236.62 171.089C233.951 171.406 231.665 172.531 229.787 174.481C229.515 174.765 229.307 175.143 229.16 175.517C228.919 176.126 228.758 176.767 228.547 177.387C228.378 177.878 227.94 178.073 227.555 177.83C227.169 177.588 227.194 177.233 227.306 176.844C228.429 172.973 230.114 169.368 232.246 165.976C232.334 165.833 232.422 165.69 232.51 165.547C232.404 165.525 232.358 165.535 232.328 165.56C227.828 169.088 224.824 173.672 223.122 179.161C223.08 179.305 223.177 179.533 223.277 179.673C224.05 180.74 224.843 181.796 225.626 182.858C225.706 182.967 225.77 183.086 225.854 183.227C226.109 181.969 226.35 180.752 226.61 179.541C226.707 179.074 227.039 178.853 227.427 178.941C227.81 179.028 228.002 179.381 227.91 179.843C227.768 180.557 227.606 181.27 227.474 181.989C227.309 182.882 227.175 183.781 227.009 184.772C227.127 184.666 227.163 184.646 227.183 184.615C227.893 183.436 228.722 182.357 229.692 181.393C229.779 181.307 229.846 181.184 229.888 181.071C230.859 178.28 232.466 175.899 234.453 173.771C235.31 172.852 236.243 171.995 237.192 171.062ZM224.97 190.143C225.251 189.251 225.541 188.385 225.792 187.509C225.861 187.278 225.885 187 225.822 186.773C225.154 184.385 223.925 182.334 222.227 180.564C222.138 180.47 221.988 180.36 221.881 180.374C220.873 180.503 219.87 180.658 218.766 180.817C219.913 182.276 220.878 183.695 221.522 185.285C222.161 186.859 222.663 188.488 223.241 190.118L224.965 190.143L224.97 190.143ZM237.224 181.713C235.972 180.943 234.693 180.58 233.318 180.586C233.07 180.582 232.786 180.671 232.582 180.807C229.937 182.58 228.188 185.062 227.073 188.042C226.815 188.723 226.628 189.436 226.39 190.179C227.219 190.191 227.947 190.191 228.674 190.217C228.922 190.226 228.969 190.103 229.012 189.893C229.438 187.747 230.53 186.007 232.143 184.584C233.612 183.282 235.25 182.277 237.224 181.708L237.224 181.713ZM209.684 184.542C212.862 181.844 216.293 179.829 220.418 179.112C217.069 176.844 211.055 179.239 209.684 184.542ZM223.405 174.656C223.54 174.385 223.662 174.037 223.868 173.756C224.306 173.145 224.341 172.497 224.215 171.774C223.782 169.204 222.738 166.991 220.704 165.34C220.454 165.136 220.179 164.957 219.914 164.767C220.603 166.734 221.125 168.697 221.399 170.73C221.45 171.096 221.428 171.507 221.601 171.809C222.158 172.779 222.787 173.705 223.4 174.661L223.405 174.656ZM221.92 178.377C222.094 177.885 222.284 177.363 222.468 176.84C222.489 176.789 222.525 176.733 222.526 176.682C222.528 176.558 222.525 176.424 222.486 176.31C221.53 173.578 219.883 171.403 217.443 169.874C217.338 169.806 217.223 169.758 217.002 169.647C218.474 172.005 219.394 174.438 219.887 177.05C219.906 177.158 219.98 177.298 220.07 177.351C220.676 177.7 221.294 178.028 221.925 178.377L221.92 178.377ZM244.412 188.376C244.357 186.568 243.486 183.925 242.403 182.277C241.769 181.316 241.034 180.466 240.052 179.855C238.614 178.959 237.097 178.973 235.519 179.403C239.889 180.985 242.453 184.358 244.407 188.376L244.412 188.376Z" fill="#277FE7"/>
</g>
<g opacity="0.3" clip-path="url(#clip10_1070_485)">
<path d="M165.14 79.8718C164.47 75.6042 163.801 71.3428 163.131 67.0752C163.145 67.0409 163.178 67.0038 163.173 66.9725C163.135 65.1383 164.528 63.1115 166.941 62.797C168.116 62.6446 169.281 62.4297 170.451 62.2461L170.895 62.1764C170.864 61.9824 170.842 61.8385 170.82 61.7008C170.553 59.9988 170.286 58.2967 170.019 56.5947C169.97 56.2818 169.921 55.9689 169.929 55.6535C169.985 53.5223 171.448 51.8565 173.569 51.5236C178.456 50.7567 183.348 49.9888 188.235 49.2219C190.85 48.8115 192.89 50.2929 193.307 52.9076C193.578 54.6347 193.85 56.368 194.121 58.0951C194.143 58.2327 194.163 58.3641 194.188 58.5206C195.564 58.3046 196.878 58.0983 198.192 57.8921C200.72 57.4954 202.797 59.0095 203.194 61.5376C203.788 65.3234 204.382 69.1029 204.976 72.8887C205.369 75.3917 203.848 77.4704 201.347 77.8695C200.152 78.057 198.957 78.2446 197.756 78.4331C197.618 78.4547 197.48 78.4763 197.318 78.5019C197.351 78.7146 197.376 78.8711 197.399 79.0212C197.687 80.8547 197.993 82.6852 198.244 84.5245C198.482 86.2888 197.482 88.0423 195.88 88.7873C195.684 88.8823 195.479 88.9658 195.275 89.0555L179.202 91.5781C179.168 91.5642 179.132 91.5378 179.093 91.5375C176.791 91.4115 175.27 90.0537 174.908 87.7894C174.637 86.0624 174.365 84.329 174.094 82.6019C174.073 82.4643 174.051 82.3266 174.025 82.1577C173.831 82.1881 173.687 82.2107 173.549 82.2323C172.298 82.4287 171.055 82.6366 169.801 82.8205C168.002 83.0773 166.269 82.1694 165.444 80.5485C165.345 80.3205 165.245 80.0926 165.14 79.8718ZM197.064 76.8426C198.428 76.6286 199.723 76.4253 201.024 76.2211C202.682 75.9608 203.568 74.7446 203.309 73.0926C202.722 69.3506 202.133 65.6024 201.546 61.8604C201.283 60.1833 200.075 59.3086 198.385 59.5674C196.645 59.8404 194.9 60.1144 193.16 60.3874C184.501 61.7464 175.842 63.1054 167.183 64.4644C165.532 64.7237 164.652 65.9389 164.913 67.6034C165.5 71.3454 166.088 75.0937 166.676 78.8357C166.936 80.4939 168.151 81.374 169.804 81.121C170.986 80.9354 172.169 80.7498 173.351 80.5642C173.476 80.5446 173.6 80.5124 173.767 80.4734C173.74 80.3044 173.717 80.1605 173.696 80.0229C173.427 78.3083 173.157 76.5875 172.888 74.8729C172.77 74.122 173.011 73.7827 173.756 73.6659C180.832 72.5553 187.902 71.4457 194.978 70.3351C195.729 70.2173 196.063 70.4662 196.18 71.2109C196.449 72.9254 196.719 74.6462 196.988 76.3608C197.01 76.4985 197.032 76.6424 197.064 76.8426ZM174.647 75.2572L174.714 75.689C175.333 79.6312 175.951 83.5672 176.57 87.5095C176.831 89.174 178.035 90.0622 179.692 89.802C184.554 89.039 189.421 88.2751 194.283 87.5121C195.941 87.2519 196.808 86.0386 196.547 84.3741C195.928 80.4319 195.31 76.4959 194.692 72.5536L194.624 72.1219L174.647 75.2572ZM192.527 58.762L192.469 58.3928C192.193 56.6345 191.918 54.8824 191.642 53.124C191.39 51.5158 190.172 50.617 188.564 50.8694C183.671 51.6372 178.785 52.4041 173.892 53.172C172.303 53.4214 171.413 54.6512 171.66 56.2281C171.938 57.999 172.215 59.7636 172.493 61.5345L172.549 61.8911L192.526 58.7558L192.527 58.762Z" fill="#277FE7"/>
<path d="M184.861 80.4568C186.488 80.2015 188.108 79.9472 189.735 79.6919C190.435 79.5819 190.952 80.0971 190.781 80.7203C190.675 81.1087 190.395 81.2873 190.008 81.3482C188.838 81.5318 187.668 81.7154 186.498 81.899C184.42 82.2251 182.343 82.5511 180.26 82.878C179.678 82.9694 179.292 82.7543 179.179 82.2846C179.051 81.7533 179.356 81.3272 179.949 81.2277C181.589 80.9704 183.222 80.7141 184.861 80.4568Z" fill="#277FE7"/>
<path d="M185.607 85.4564C183.98 85.7117 182.36 85.9661 180.733 86.2214C180.17 86.3097 179.761 86.0341 179.683 85.5335C179.615 85.1017 179.861 84.7104 180.287 84.6051C180.565 84.5359 180.855 84.5032 181.142 84.4581C184.089 83.9956 187.042 83.5321 189.989 83.0696C190.121 83.049 190.252 83.0283 190.377 83.0087C190.857 82.9654 191.249 83.2565 191.32 83.707C191.39 84.1513 191.103 84.5683 190.63 84.6617C190.051 84.7718 189.46 84.8453 188.878 84.9366C187.79 85.1075 186.695 85.2793 185.606 85.4502L185.607 85.4564Z" fill="#277FE7"/>
<path d="M180.984 77.6481C181.503 77.5666 182.021 77.4788 182.542 77.4036C183.113 77.3267 183.533 77.5942 183.622 78.0803C183.706 78.5737 183.38 78.984 182.792 79.0826C181.767 79.2499 180.741 79.4109 179.708 79.5667C179.132 79.657 178.724 79.3813 178.64 78.888C178.553 78.3758 178.859 77.9945 179.457 77.8877C179.963 77.8019 180.471 77.7286 180.978 77.6491L180.984 77.6481Z" fill="#277FE7"/>
</g>
<g opacity="0.3" clip-path="url(#clip11_1070_485)">
<path d="M98.3071 56.4881L94.1334 57.4861C92.8665 57.4031 92.2887 56.6239 92.1464 55.444C91.0148 55.4125 90.1393 54.9786 89.5234 54.063C89.4194 53.9089 89.326 53.7522 89.2326 53.5955C87.0196 44.341 84.8066 35.0864 82.5936 25.8318C82.6057 25.8121 82.623 25.7912 82.6245 25.7741C82.6874 24.0025 83.497 23.0146 85.2161 22.6035C94.7641 20.3204 104.312 18.0372 113.86 15.754C115.796 15.2911 117.299 16.2184 117.764 18.1656C119.323 24.6846 120.882 31.2035 122.439 37.7172C122.997 40.0507 123.562 42.3882 124.115 44.7229C124.384 45.85 124.083 46.8339 123.251 47.6369C123.033 47.8457 122.644 47.9499 122.556 48.1892C122.459 48.4415 122.65 48.7932 122.673 49.1009C122.732 49.9315 122.301 50.4931 121.628 50.9058L117.455 51.9038C117.401 51.8888 117.347 51.8737 117.29 51.8705C116.453 51.7853 115.879 51.3241 115.64 50.5141C115.584 50.3261 115.549 50.1331 115.5 49.9267L99.1599 53.834C99.1979 53.9928 99.2333 54.1409 99.2675 54.2838C99.3776 54.7441 99.4058 55.2129 99.1378 55.6126C98.9142 55.9402 98.5897 56.1968 98.3058 56.4828L98.3071 56.4881ZM99.7768 20.3524C94.9896 21.4971 90.2077 22.6406 85.4204 23.7853C84.1403 24.0915 83.6091 24.9569 83.9178 26.248C86.0182 35.0316 88.1199 43.8206 90.2203 52.6042C90.5328 53.9112 91.3968 54.4374 92.7034 54.1249C102.262 51.8392 111.826 49.5523 121.384 47.2666C122.67 46.9592 123.212 46.0912 122.905 44.8107C120.801 36.0112 118.698 27.217 116.594 18.4175C116.287 17.1317 115.423 16.6055 114.132 16.9141C109.345 18.0588 104.563 19.2023 99.7756 20.3471L99.7768 20.3524ZM97.9841 54.132L93.3185 55.2476C93.3641 55.4381 93.3968 55.5981 93.4388 55.7503C93.5561 56.1474 93.8314 56.3165 94.24 56.2244C95.3679 55.9603 96.4894 55.6921 97.6148 55.4174C98.0168 55.3213 98.1778 55.059 98.1054 54.6624C98.0754 54.4905 98.0244 54.3237 97.9788 54.1332L97.9841 54.132ZM121.337 48.5421L116.666 49.659C116.697 49.786 116.721 49.8865 116.745 49.9871C116.895 50.6167 117.118 50.7536 117.748 50.6031C118.779 50.3565 119.816 50.1085 120.847 49.8619C121.403 49.7291 121.555 49.4746 121.42 48.9138C121.394 48.8026 121.366 48.6862 121.331 48.5381L121.337 48.5421Z" fill="#277FE7"/>
<path d="M106.345 47.7749C102.336 48.7337 98.3262 49.6925 94.3113 50.6526C93.338 50.8854 92.8201 50.5673 92.5861 49.5884C90.8969 42.5244 89.2077 35.4605 87.5185 28.3965C87.287 27.4282 87.589 26.6567 88.3717 26.2346C88.5454 26.1427 88.7386 26.0854 88.9343 26.0385C96.6256 24.1994 104.317 22.3602 112.008 20.521C113.193 20.2377 114.06 20.7744 114.346 21.9703C116.04 29.0554 117.735 36.1458 119.43 43.2309C119.646 44.1358 119.311 44.6746 118.406 44.8909C114.386 45.8523 110.36 46.8149 106.34 47.7762L106.345 47.7749ZM118.277 43.6743L114.376 27.361L106.246 29.3052C106.336 29.6809 106.427 30.0394 106.509 30.4058C106.732 31.4321 106.223 32.3202 105.222 32.6213C105.023 32.6799 104.939 32.7727 104.896 32.9676C104.741 33.6983 104.569 34.4276 104.403 35.1609C104.298 35.6335 104.049 35.9727 103.564 36.0944C103.062 36.2199 102.676 36.0324 102.354 35.6451C101.88 35.0649 101.406 34.4847 100.913 33.9201C100.828 33.8229 100.642 33.7444 100.512 33.7642C99.4103 33.927 98.5755 33.3826 98.3096 32.2938C98.2286 31.9552 98.1476 31.6166 98.0641 31.2673L89.9338 33.2115L93.8309 49.5089L98.4647 48.4008C98.3711 48.0092 98.285 47.6494 98.1977 47.2843C97.9858 46.3281 98.4644 45.4529 99.391 45.1418C99.7895 45.0074 100.207 44.9299 100.614 44.8325C101.022 44.7351 101.424 44.6389 101.863 44.5339C101.824 44.3699 101.797 44.2588 101.77 44.1477C101.558 43.2587 101.356 42.3673 101.133 41.4808C100.973 40.859 101.122 40.3591 101.588 39.9232C102.149 39.3919 102.702 38.8513 103.242 38.3027C103.692 37.8481 104.205 37.7254 104.813 37.927C105.571 38.1763 106.331 38.4085 107.088 38.6472C107.65 38.8259 107.99 39.1923 108.118 39.7769C108.323 40.6789 108.548 41.5759 108.764 42.4755C108.793 42.5972 108.82 42.7136 108.856 42.8617C109.649 42.672 110.387 42.4843 111.13 42.3178C112.225 42.0784 113.121 42.6419 113.39 43.7241C113.474 44.0733 113.558 44.4225 113.644 44.7823L118.272 43.6755L118.277 43.6743ZM113.569 23.8453C113.445 23.3267 113.334 22.8611 113.223 22.3955C113.045 21.6547 112.874 21.5447 112.144 21.7192C104.558 23.5331 96.9675 25.3483 89.382 27.1622C89.255 27.1925 89.1255 27.2123 89.0089 27.2626C88.7546 27.3681 88.5968 27.5737 88.6495 27.8408C88.7686 28.4556 88.9365 29.0643 89.0795 29.6623C89.1427 29.6695 89.1664 29.675 89.1876 29.67C91.8642 29.0299 94.5408 28.3899 97.2174 27.7498C97.3126 27.7271 97.4191 27.6345 97.4649 27.5452C97.656 27.1751 97.9563 26.9578 98.3531 26.8629C100.247 26.4101 102.135 25.9585 104.029 25.5057C104.383 25.4209 104.739 25.4365 105.035 25.6678C105.214 25.8096 105.371 25.8112 105.578 25.7619C108.117 25.1547 110.661 24.5463 113.2 23.9391L113.581 23.848L113.569 23.8453ZM98.5425 28.0763C98.8576 29.3938 99.1651 30.6796 99.4725 31.9654C99.6054 32.521 99.8623 32.6833 100.418 32.5505C101.851 32.2077 103.285 31.8649 104.718 31.5221C105.295 31.3843 105.448 31.1351 105.309 30.5531C105.025 29.3678 104.743 28.1878 104.46 27.0026C104.436 26.902 104.401 26.804 104.363 26.6902L98.5385 28.0828L98.5425 28.0763ZM112.48 45.0606C112.405 44.7484 112.339 44.4733 112.275 44.2034C112.104 43.4891 111.907 43.3683 111.177 43.5429C107.485 44.4258 103.798 45.3074 100.106 46.1903C99.979 46.2207 99.852 46.251 99.7341 46.296C99.4573 46.4014 99.3152 46.6255 99.3599 46.9057C99.4243 47.3155 99.5482 47.7166 99.6481 48.1346L112.481 45.0659L112.48 45.0606ZM107.692 43.1176C107.438 42.054 107.198 41.0262 106.938 40.0088C106.915 39.9135 106.784 39.8106 106.675 39.7752C105.94 39.5314 105.208 39.2981 104.463 39.0846C104.349 39.0504 104.16 39.1013 104.072 39.1782C103.514 39.6976 102.969 40.2251 102.441 40.7765C102.342 40.8784 102.286 41.0876 102.313 41.2265C102.455 41.9141 102.629 42.5942 102.793 43.2768C102.867 43.589 102.943 43.9064 103.02 44.2292L107.681 43.1148L107.692 43.1176ZM97.4968 28.9417L89.3823 30.882L89.6506 32.0038L97.7651 30.0634L97.4968 28.9417ZM105.975 28.1003L114.095 26.1586L113.826 25.0369L105.707 26.9785L105.975 28.1003ZM103.245 34.8336C103.393 34.1885 103.52 33.6211 103.661 33.0168L102.058 33.4001C102.45 33.8713 102.819 34.3145 103.245 34.8336Z" fill="#277FE7"/>
</g>
<g opacity="0.3" clip-path="url(#clip12_1070_485)">
<path d="M84.201 198.053C85.6226 198.469 86.3971 199.41 86.5196 200.905C86.8088 200.949 87.1226 201.052 87.2157 201.346C87.4265 202.023 87.4265 202.728 87.2157 203.41C87.1275 203.699 86.8235 203.812 86.5049 203.851V204.159C86.5049 206.076 86.5049 207.992 86.5049 209.908C86.5049 211.423 85.7451 212.452 84.299 212.903C84.2696 212.913 84.2402 212.932 84.1961 212.957C84.6078 213.707 85.098 214.383 85.6814 214.996C86.652 216.015 87.7892 216.775 89.1912 217.049C91.0196 217.407 92.6226 216.873 94.0441 215.731C95.4265 214.623 96.3578 213.182 97.0049 211.555C97.299 210.82 97.5049 210.046 97.7402 209.286C97.8382 208.977 98.0196 208.825 98.2745 208.889C98.5147 208.953 98.6226 209.168 98.549 209.472C98.0147 211.727 97.098 213.79 95.5 215.505C94.3382 216.755 92.951 217.637 91.2304 217.907C90.8873 217.961 90.5392 217.985 90.1961 217.985C88.25 217.995 86.3088 217.961 84.3628 217.995C82.3039 218.034 80.598 217.265 79.1373 215.868C78.3186 215.089 77.6667 214.187 77.1275 213.197C77.049 213.055 76.9706 212.986 76.7941 212.981C75.2598 212.922 74.0196 211.668 74.0098 210.134C73.9951 207.046 73.9951 203.959 74.0098 200.871C74.0196 199.268 75.3137 198.014 76.9412 198.004C78.9706 197.994 81 198.004 83.0343 198.004C83.2059 198.004 83.2941 197.95 83.3726 197.803C84.25 196.21 85.3824 194.857 86.9657 193.916C86.9853 193.907 86.9951 193.882 87.0392 193.833C86.8775 193.833 86.7549 193.833 86.6275 193.833C85.5686 193.843 84.5098 193.809 83.4559 193.877C82.1373 193.96 81.0049 194.554 80.0343 195.421C79.5588 195.847 79.1569 196.352 78.7206 196.823C78.6716 196.872 78.6373 196.935 78.5931 196.984C78.4167 197.19 78.1863 197.225 77.9951 197.082C77.8088 196.94 77.7794 196.7 77.9363 196.48C78.4314 195.793 78.9951 195.176 79.652 194.642C81.0245 193.534 82.5784 192.97 84.3628 193C86.2108 193.029 88.0588 193.034 89.9069 193C92.0147 192.961 93.75 193.769 95.2206 195.225C96.8529 196.847 97.8235 198.837 98.4216 201.028C98.8284 202.518 99.0147 204.037 99 205.581C98.9804 207.272 97.598 208.713 95.902 208.82C94.1765 208.933 92.6177 207.703 92.3873 206.017C92.3088 205.429 92.3333 204.821 92.2794 204.228C92.0392 201.41 91.1471 198.847 89.2843 196.676C89.0098 196.352 88.6961 196.063 88.3971 195.764C88.1667 195.534 88.1324 195.294 88.3137 195.107C88.4853 194.926 88.7255 194.941 88.9559 195.147C90.6324 196.671 91.75 198.553 92.4363 200.699C92.9363 202.253 93.1569 203.856 93.1667 205.488C93.1716 206.59 93.8431 207.517 94.8627 207.865C96.4216 208.399 98.1275 207.277 98.152 205.64C98.1912 202.674 97.5392 199.876 95.9069 197.357C95.0784 196.083 94.0392 195.024 92.6373 194.387C90.5931 193.456 88.652 193.72 86.8333 194.995C85.7353 195.764 84.9167 196.793 84.2451 197.945C84.2304 197.974 84.2206 198.009 84.201 198.053ZM85.6716 205.507C85.6716 204.017 85.6716 202.523 85.6716 201.033C85.6716 199.729 84.7843 198.842 83.4853 198.842C81.3333 198.842 79.1814 198.842 77.0294 198.842C75.7304 198.842 74.8431 199.734 74.8431 201.033C74.8431 204.008 74.8431 206.982 74.8431 209.957C74.8431 211.276 75.7255 212.163 77.0441 212.163C79.1863 212.163 81.3284 212.163 83.4755 212.163C84.7941 212.163 85.6765 211.276 85.6765 209.957C85.6765 208.472 85.6765 206.992 85.6765 205.507H85.6716ZM77.9804 213.006C78.0049 213.065 78.0196 213.104 78.0392 213.138C78.5196 213.947 79.0833 214.697 79.7696 215.339C81.0588 216.544 82.5539 217.221 84.3529 217.167C85.1667 217.142 85.9853 217.167 86.799 217.162C86.8726 217.162 86.9412 217.152 87.0343 217.147C87 217.113 86.9902 217.093 86.9804 217.088C85.3922 216.142 84.2451 214.785 83.3677 213.182C83.2941 213.045 83.2108 212.991 83.049 212.991C81.4363 212.996 79.8235 212.991 78.2059 212.991C78.1373 212.991 78.0735 212.996 77.9804 213.001V213.006Z" fill="#277FE7"/>
<path d="M92.8382 208.889C92.6912 209.404 92.5588 209.923 92.3922 210.433C91.7108 212.481 90.6373 214.285 89.049 215.77C89.0196 215.799 88.9853 215.829 88.951 215.858C88.7157 216.059 88.4804 216.064 88.3088 215.868C88.152 215.692 88.1912 215.461 88.3824 215.246C88.902 214.667 89.4608 214.113 89.9216 213.491C90.9412 212.114 91.5735 210.555 91.9608 208.894C91.9755 208.835 91.9853 208.776 92.0049 208.717C92.0833 208.502 92.2402 208.399 92.4657 208.428C92.6863 208.458 92.8186 208.644 92.8333 208.889H92.8382Z" fill="#277FE7"/>
<path d="M97.3333 205.091C97.3333 206.007 96.5735 206.757 95.6568 206.752C94.7401 206.747 93.9951 205.988 94.0049 205.066C94.0147 204.159 94.7598 203.419 95.6715 203.419C96.5931 203.419 97.3382 204.169 97.3382 205.091H97.3333ZM96.5 205.091C96.5 204.64 96.1274 204.262 95.6764 204.253C95.2254 204.248 94.8431 204.615 94.8333 205.066C94.8235 205.527 95.2058 205.919 95.6666 205.914C96.1176 205.914 96.4951 205.537 96.4951 205.086L96.5 205.091Z" fill="#277FE7"/>
</g>
<g opacity="0.3" clip-path="url(#clip13_1070_485)">
<path d="M178.464 295.047C178.285 296.153 177.949 297.184 177.159 298.021C176.211 299.03 175.025 299.502 173.672 299.584C157.905 300.547 142.146 301.509 126.379 302.472C123.35 302.649 121.22 300.715 121.026 297.688C120.912 295.818 121.102 295.594 122.997 295.479C123.868 295.426 124.739 295.372 125.695 295.314C125.677 295.018 125.663 294.781 125.648 294.544C125.136 286.162 124.624 277.77 124.112 269.388C124.009 267.696 124.464 266.25 125.744 265.102C126.605 264.328 127.662 263.975 128.804 263.905C141.39 263.137 153.977 262.36 166.564 261.599C169.601 261.414 171.713 263.34 171.9 266.393C172.413 274.801 172.926 283.201 173.44 291.609C173.454 291.846 173.469 292.083 173.487 292.387C174.612 292.319 175.68 292.279 176.735 292.181C177.478 292.11 178.01 292.349 178.34 293.025L178.464 295.047ZM128.07 295.127L171.108 292.499L171.071 291.898C170.556 283.456 170.041 275.014 169.525 266.572C169.416 264.779 168.428 263.905 166.635 264.015C154.107 264.78 141.572 265.545 129.044 266.31C128.731 266.329 128.401 266.349 128.11 266.452C126.986 266.818 126.409 267.796 126.492 269.149C127.009 277.625 127.528 286.109 128.045 294.585L128.078 295.126L128.07 295.127ZM123.363 297.851C123.543 298.298 123.634 298.675 123.822 298.977C124.423 299.926 125.336 300.133 126.401 300.059C142.049 299.095 157.707 298.148 173.355 297.184C173.618 297.168 173.88 297.152 174.14 297.102C175.282 296.896 176.075 295.838 175.976 294.63L175.367 294.667C169.183 295.044 163 295.422 156.816 295.791C156.368 295.818 156.035 295.932 155.778 296.313C155.358 296.941 154.751 297.157 154.007 297.194C151.222 297.338 148.439 297.508 145.658 297.703C144.871 297.752 144.209 297.614 143.688 297.009C143.423 296.702 143.104 296.628 142.698 296.653C136.482 297.05 130.256 297.421 124.039 297.801L123.354 297.843L123.363 297.851Z" fill="#277FE7"/>
</g>
<circle opacity="0.3" cx="152.5" cy="221.5" r="5.5" fill="#277FE7"/>
<circle opacity="0.3" cx="53.5" cy="66.5" r="5" stroke="#277FE7"/>
<circle opacity="0.3" cx="334" cy="100" r="4" fill="#277FE7"/>
<circle opacity="0.3" cx="130.5" cy="96.5" r="2.5" fill="#277FE7"/>
<circle opacity="0.3" cx="9.5" cy="221.5" r="2.5" fill="#277FE7"/>
<circle opacity="0.3" cx="345.5" cy="218.5" r="2.5" fill="#277FE7"/>
<circle opacity="0.3" cx="246" cy="27" r="3.5" stroke="#277FE7"/>
<circle opacity="0.3" cx="32" cy="139" r="3.5" stroke="#277FE7"/>
<path opacity="0.3" d="M62.8237 271.66C62.9886 270.908 63.9057 270.617 64.4744 271.136L70.2325 276.389C70.8012 276.908 70.595 277.847 69.8613 278.081L62.433 280.441C61.6993 280.674 60.9885 280.025 61.1534 279.273L62.8237 271.66Z" fill="#277FE7"/>
<path opacity="0.3" d="M-1.26003 24.5866C-1.09506 23.8347 -0.177987 23.5433 0.390711 24.0621L10.0642 32.8872C10.6329 33.406 10.4267 34.3459 9.69302 34.579L-2.78647 38.544C-3.52013 38.7771 -4.231 38.1285 -4.06603 37.3766L-1.26003 24.5866Z" fill="#277FE7"/>
<path opacity="0.3" d="M105.651 154.292C105.561 153.527 106.332 152.952 107.039 153.256L110.701 154.832C111.408 155.136 111.52 156.092 110.903 156.552L107.708 158.935C107.091 159.395 106.207 159.015 106.117 158.25L105.651 154.292Z" fill="#277FE7"/>
<path opacity="0.3" d="M279.651 49.2915C279.561 48.527 280.332 47.9518 281.039 48.2561L284.701 49.832C285.408 50.1363 285.52 51.092 284.903 51.5522L281.708 53.9352C281.091 54.3954 280.207 54.015 280.117 53.2505L279.651 49.2915Z" fill="#277FE7"/>
<path opacity="0.3" d="M55.6332 3.968L56.6278 10.6979C56.6841 11.0786 56.3071 11.3775 55.9492 11.2359L49.6237 8.7323C49.2658 8.59065 49.1954 8.11469 49.497 7.87558L54.828 3.64929C55.1296 3.41018 55.5769 3.58724 55.6332 3.968Z" stroke="#277FE7"/>
<path opacity="0.3" d="M293.075 172.451L296.23 175.602C296.503 175.874 296.378 176.339 296.007 176.439L291.7 177.596C291.329 177.695 290.988 177.355 291.088 176.984L292.239 172.676C292.338 172.304 292.803 172.179 293.075 172.451Z" stroke="#277FE7"/>
<path opacity="0.3" d="M231.151 242.726L235.126 244.746C235.469 244.92 235.495 245.4 235.173 245.61L231.436 248.044C231.114 248.254 230.685 248.036 230.664 247.651L230.425 243.199C230.405 242.815 230.808 242.552 231.151 242.726Z" stroke="#277FE7"/>
<g opacity="0.3" clip-path="url(#clip14_1070_485)">
<path d="M39.6618 174.831C39.6834 176.446 38.8778 177.716 37.9242 178.896C35.7738 181.537 33.3313 183.864 30.3435 185.566C29.6288 185.979 28.8661 186.318 28.1068 186.618C19.6738 189.947 11.2662 193.342 2.80132 196.59C-0.103226 197.7 -3.17568 198.148 -6.2953 197.625C-7.03333 197.505 -7.76116 197.27 -8.45327 196.983C-9.95653 196.345 -10.7502 194.997 -10.6299 193.362C-10.5512 192.379 -10.5112 191.393 -10.3713 190.423C-10.095 188.522 -10.4576 186.705 -10.9945 184.919C-11.3822 183.654 -11.9118 182.407 -12.348 181.16C-12.5295 180.653 -12.6851 180.117 -12.7472 179.582C-12.918 178.156 -11.9436 177.36 -10.6304 177.943C-9.79671 178.305 -9.09313 178.904 -8.29856 179.356C-7.64556 179.733 -7.0219 180.177 -6.31023 180.419C-2.18816 181.778 0.68964 178.756 1.19944 175.886C-0.54911 174.579 -1.37001 172.831 -1.09872 170.633C-1.01155 169.908 -0.670159 169.306 -0.0779372 168.867C0.789351 168.226 1.73145 168.152 2.7067 168.589C3.63688 169.006 4.55729 169.445 5.47769 169.884C7.19607 170.736 9.02541 171.302 10.9236 171.617C15.6256 172.411 20.3412 173.051 25.1006 172.572C27.5238 172.324 29.9161 171.809 32.3079 171.387C33.6539 171.155 34.9926 171.093 36.3097 171.543C37.5817 171.975 38.5131 172.82 39.2792 173.862L39.6682 174.847L39.6618 174.831ZM11.5502 173.535C10.8058 173.399 10.1226 173.277 9.42329 173.161C9.22644 173.892 9.04277 174.562 8.84294 175.239C8.64609 175.97 8.2286 176.284 7.6585 176.117C7.11093 175.96 6.926 175.491 7.11308 174.783C7.30653 174.09 7.48383 173.404 7.68706 172.689C7.59055 172.634 7.51658 172.589 7.43283 172.566C5.89386 171.979 4.4046 172.511 3.7269 174.01C3.34256 174.834 3.16101 175.746 2.88933 176.618C2.17548 178.972 0.940845 180.953 -1.39231 181.949C-4.17782 183.124 -6.82044 182.674 -9.26365 180.932C-9.75552 180.584 -10.2538 180.221 -10.7456 179.874L-10.8783 179.964C-10.7542 180.325 -10.6526 180.677 -10.5123 181.033C-9.49924 183.787 -8.29574 186.504 -8.47437 189.599C-7.79075 189.628 -7.13307 189.686 -6.47199 189.705C-3.77281 189.778 -1.063 189.641 1.44149 188.559C3.02173 187.879 4.52885 186.966 5.98453 186.018C8.58851 184.337 11.3171 182.923 14.3772 182.35C17.1695 181.807 19.9775 181.352 22.7978 181.023C26.8315 180.55 30.546 179.363 33.7634 176.824C34.8769 175.955 35.8845 174.959 36.7509 173.796C35.6673 173.085 34.5236 172.79 33.3001 173.049C29.4713 173.851 25.6234 174.605 21.6761 174.54C21.5438 174.536 21.3236 174.735 21.2713 174.886C21.1047 175.363 20.9831 175.859 20.8453 176.361C20.6519 177.054 20.2344 177.368 19.6868 177.211C19.1456 177.07 18.9156 176.582 19.0929 175.896C19.2111 175.438 19.3455 174.975 19.4671 174.479C18.6997 174.427 17.9935 174.388 17.281 174.334C17.1105 174.942 16.966 175.522 16.7989 176.092C16.6186 176.723 16.2045 176.999 15.6859 176.868C15.1447 176.727 14.9049 176.261 15.0626 175.62C15.1906 175.14 15.3186 174.66 15.4661 174.136C14.7022 174.045 14.0156 173.962 13.3065 173.868C13.1164 174.522 12.9684 175.14 12.7754 175.739C12.5854 176.393 12.1488 176.659 11.6173 176.495C11.1085 176.341 10.8912 175.886 11.0553 175.261C11.1965 174.72 11.3538 174.172 11.5243 173.564L11.5502 173.535ZM-8.67294 191.414C-8.73418 192.11 -8.80519 192.829 -8.86005 193.541C-8.91236 194.402 -8.56376 195.048 -7.76197 195.329C-6.97633 195.616 -6.14859 195.868 -5.32979 195.955C-2.71862 196.231 -0.155902 195.817 2.27376 194.876C10.419 191.716 18.5259 188.459 26.6486 185.289C28.9103 184.396 30.9863 183.222 32.7902 181.595C34.2637 180.266 35.7373 178.938 36.8512 177.266C37.1824 176.78 37.4268 176.217 37.7066 175.696L37.5812 175.615C37.5812 175.615 37.4549 175.721 37.4094 175.795C34.0444 179.569 29.7934 181.714 24.8521 182.489C22.4637 182.872 20.0502 183.097 17.649 183.448C13.9988 183.993 10.5556 185.11 7.44994 187.176C6.02657 188.111 4.58067 189.037 3.06462 189.785C0.633678 191.006 -2.01917 191.381 -4.69964 191.45C-6.01246 191.483 -7.32484 191.423 -8.67932 191.398L-8.67294 191.414ZM3.9238 171.151C3.17387 170.812 2.51747 170.474 1.84789 170.197C1.3811 170.008 0.893039 170.238 0.713623 170.682C0.335233 171.616 0.898072 173.372 1.75981 173.947C2.15521 172.82 2.84309 171.914 3.9238 171.151Z" fill="#277FE7"/>
</g>
<g opacity="0.3" clip-path="url(#clip15_1070_485)">
<path d="M390.033 280.54C390.385 279.875 390.718 279.284 391.01 278.666C391.225 278.217 391.385 277.738 391.585 277.285C391.666 277.101 391.639 276.968 391.508 276.806C390.51 275.51 389.521 274.185 388.509 272.886C388.287 272.589 388.192 272.295 388.195 271.932C388.096 266.985 385.874 263.352 381.452 261.139C376.082 258.45 369.222 260.615 366.26 265.88C366.02 266.306 365.707 266.586 365.259 266.783C363.789 267.369 362.325 267.99 360.877 268.614C360.754 268.66 360.603 268.81 360.59 268.917C360.489 270.061 360.403 271.208 360.313 272.371C360.297 272.43 360.33 272.486 360.358 272.557C360.456 272.488 360.53 272.445 360.624 272.391C361.696 271.697 362.848 271.531 364.077 271.845C365.302 272.173 366.512 272.497 367.737 272.825C368.475 273.023 368.702 273.416 368.504 274.154C367.571 277.638 366.642 281.106 365.708 284.59C365.511 285.328 365.136 285.544 364.413 285.35C363.188 285.022 361.948 284.69 360.723 284.361C358.42 283.744 357.131 281.532 357.722 279.207C358.051 277.919 358.406 276.653 358.75 275.369C358.818 275.118 358.826 274.851 358.796 274.606C357.268 264.784 364.083 255.583 373.9 254.196C384.965 252.636 394.724 261.437 394.262 272.608C394.108 276.49 392.786 279.948 390.384 283.007C390.218 283.215 390.088 283.465 390.016 283.731C389.673 284.952 389.356 286.196 389.028 287.421C388.363 289.901 386.159 291.161 383.679 290.496C382.498 290.18 381.303 289.86 380.122 289.543C379.399 289.35 379.182 288.975 379.38 288.237C380.314 284.754 381.243 281.285 382.176 277.802C382.378 277.049 382.752 276.833 383.505 277.035C384.73 277.363 385.941 277.687 387.166 278.015C388.406 278.348 389.331 279.086 389.904 280.252C389.948 280.327 389.976 280.398 390.062 280.548L390.033 280.54ZM361.279 266.523C362.332 266.077 363.362 265.657 364.381 265.218C364.56 265.14 364.73 264.98 364.836 264.818C368.379 258.918 375.918 256.524 382.095 259.508C387.11 261.927 389.695 266.037 389.961 271.598C389.966 271.757 390.026 271.948 390.116 272.082C390.743 272.931 391.389 273.768 392.03 274.62C392.078 274.68 392.143 274.73 392.209 274.779C393.776 267.162 389.119 258.21 379.875 256.161C370.828 254.148 363.311 260.059 361.279 266.523ZM366.614 274.36C366.54 274.34 366.519 274.302 366.475 274.291C365.515 274.033 364.541 273.772 363.582 273.515C362.224 273.152 360.947 273.901 360.565 275.27C360.177 276.716 359.785 278.178 359.398 279.624C359.034 280.982 359.794 282.277 361.148 282.656C362.063 282.901 362.993 283.15 363.908 283.395C363.997 283.419 364.089 283.428 364.182 283.437L366.614 274.36ZM381.241 288.024C382.289 288.305 383.292 288.574 384.311 288.847C385.625 289.199 386.92 288.438 387.287 287.128C387.682 285.652 388.078 284.176 388.469 282.715C388.829 281.372 388.065 280.091 386.726 279.717C385.81 279.472 384.881 279.222 383.965 278.977C383.877 278.953 383.784 278.945 383.677 278.932L381.237 288.039L381.241 288.024Z" fill="#277FE7"/>
</g>
</g>
<defs>
<clipPath id="clip0_1070_485">
<rect width="1920" height="320" fill="white"/>
</clipPath>
<clipPath id="clip1_1070_485">
<rect width="27" height="41" fill="white" transform="translate(10.9321 248.389) rotate(-9.08606)"/>
</clipPath>
<clipPath id="clip2_1070_485">
<rect width="44.93" height="38.95" fill="white" transform="translate(317.661 27.3743)"/>
</clipPath>
<clipPath id="clip3_1070_485">
<rect width="21" height="30" fill="white" transform="translate(332.24 137) rotate(30.5318)"/>
</clipPath>
<clipPath id="clip4_1070_485">
<rect width="21" height="30" fill="white" transform="translate(21.6591 102.345) rotate(138.145)"/>
</clipPath>
<clipPath id="clip5_1070_485">
<rect width="26.0709" height="18.84" fill="white" transform="translate(63 114.035) rotate(-30)"/>
</clipPath>
<clipPath id="clip6_1070_485">
<rect width="38" height="34" fill="white" transform="translate(242 92.8047) rotate(-7.26395)"/>
</clipPath>
<clipPath id="clip7_1070_485">
<rect width="17.949" height="32.4791" fill="white" transform="translate(151.762 133) rotate(10.2193)"/>
</clipPath>
<clipPath id="clip8_1070_485">
<rect width="32" height="43" fill="white" transform="translate(263.197 237) rotate(8.28555)"/>
</clipPath>
<clipPath id="clip9_1070_485">
<rect width="38" height="44" fill="white" transform="translate(208.321 161.727) rotate(0.830702)"/>
</clipPath>
<clipPath id="clip10_1070_485">
<rect width="40.4434" height="40.4434" fill="white" transform="translate(161 53.4963) rotate(-8.91966)"/>
</clipPath>
<clipPath id="clip11_1070_485">
<rect width="36" height="36" fill="white" transform="translate(82 23.3726) rotate(-13.4483)"/>
</clipPath>
<clipPath id="clip12_1070_485">
<rect width="25" height="25" fill="white" transform="translate(74 193)"/>
</clipPath>
<clipPath id="clip13_1070_485">
<rect width="57.4915" height="38.3474" fill="white" transform="translate(119 264.504) rotate(-3.49417)"/>
</clipPath>
<clipPath id="clip14_1070_485">
<rect width="54" height="27" fill="white" transform="translate(-18 175.831) rotate(-21.546)"/>
</clipPath>
<clipPath id="clip15_1070_485">
<rect width="35.7267" height="33.9694" fill="white" transform="translate(363.792 250) rotate(15)"/>
</clipPath>
</defs>
</svg>
