<svg width="740" height="537" viewBox="0 0 740 537" fill="none" xmlns="http://www.w3.org/2000/svg">
<g opacity="0.5" clip-path="url(#clip0_1239_1170)">
<path d="M93.1247 453.434C93.5937 456.366 94.0239 459.057 94.4542 461.747C94.6181 462.772 94.7397 463.804 94.8331 464.84C94.9847 466.422 93.9383 467.932 92.418 468.38C92.2792 468.417 92.1567 468.466 91.9355 468.53C91.9879 468.858 92.0357 469.156 92.0835 469.455C93.9407 481.159 95.7957 492.849 97.653 504.553C97.7258 505.008 97.7846 505.466 97.7987 505.916C97.8215 506.511 97.4032 506.972 96.8674 506.97C96.287 506.961 95.8296 506.815 95.7112 506.075C94.7027 499.769 93.6354 493.457 92.6128 487.153C91.6721 481.361 90.7619 475.58 89.8353 469.786L89.6896 468.875C88.4952 469.007 87.4632 468.618 86.6566 467.827C86.2615 467.437 85.8791 466.856 85.7785 466.317C84.5865 459.135 83.4345 451.932 82.2989 444.741C81.5545 440.086 85.3082 435.325 89.6685 434.628C92.025 434.251 94.3956 433.872 96.7544 433.509C98.0667 433.299 99.8292 434.638 100.039 435.947C100.735 440.303 101.434 444.674 102.131 449.03C102.343 450.354 101.081 452.147 99.7686 452.357C97.6238 452.7 95.4789 453.043 93.1365 453.417L93.1247 453.434ZM93.0265 436.441C92.0952 436.59 91.2158 436.701 90.3596 436.868C89.7856 436.989 89.1925 437.171 88.6695 437.43C88.0782 437.714 87.4819 438.058 86.9885 438.502C84.2474 440.999 83.6982 444.984 85.7462 447.927C88.0579 451.251 91.3048 451.827 95.3195 450.688L93.0406 436.439L93.0265 436.441ZM85.6759 451.559C85.6704 451.706 85.6558 451.796 85.6695 451.881C86.398 456.437 87.1242 460.978 87.8528 465.533C87.9415 466.088 88.5688 466.572 89.166 466.506C90.0195 466.413 90.8662 466.278 91.706 466.1C92.3082 465.974 92.7251 465.323 92.634 464.754C92.0672 461.209 91.498 457.65 90.917 454.108C90.8829 453.895 90.5811 453.636 90.3489 453.542C89.4554 453.203 88.5236 452.987 87.6419 452.632C86.9759 452.359 86.3577 451.932 85.6595 451.547L85.6759 451.559ZM95.3643 436.038L97.666 450.43C98.0329 450.371 98.3738 450.331 98.682 450.268C99.6301 450.043 99.9451 449.569 99.7903 448.601C99.1688 444.715 98.5495 440.843 97.928 436.957C97.8051 436.188 97.2902 435.774 96.5497 435.848C96.1641 435.881 95.8018 435.968 95.3643 436.038Z" fill="#ED1100"/>
<path d="M65.9458 472.702C63.3307 472.638 62.1868 471.639 61.772 469.135C61.1819 465.536 60.5918 461.937 60.0463 458.345C59.9621 457.818 59.7991 457.523 59.2692 457.287C55.8862 455.769 53.5413 452.056 53.7014 448.352C53.8705 444.251 55.8532 441.175 59.5643 439.676C63.8053 437.961 68.0322 438.964 70.9866 442.959C73.6141 446.539 73.4573 451.441 70.4723 454.765C69.4891 455.857 69.2821 456.824 69.5334 458.215C70.1553 461.561 70.6079 464.934 71.0888 468.302C71.3565 470.157 70.336 471.649 68.5567 472.197C68.4721 472.21 68.3778 472.254 68.1989 472.312C68.2468 472.611 68.2968 472.924 68.3446 473.223C70.2402 485.257 72.1379 497.304 74.0193 509.34C74.1468 510.137 73.8055 510.718 73.1869 510.831C72.6648 510.915 71.9419 510.286 71.8326 509.602C69.9157 497.616 67.9988 485.63 66.0819 473.644C66.0341 473.345 65.984 473.031 65.9317 472.704L65.9458 472.702ZM56.169 449.665C56.6331 453.562 60.6348 456.324 64.3341 455.747C68.2569 455.119 71.0616 451.211 70.3531 447.324C69.647 443.451 65.9694 440.725 62.1053 441.357C58.1966 441.983 55.5384 445.722 56.1713 449.679L56.169 449.665ZM67.1518 457.53L62.4388 458.283C62.4402 458.473 62.4297 458.679 62.4638 458.893C63.0193 462.366 63.5466 465.844 64.1021 469.317C64.1932 469.887 64.8063 470.373 65.4035 470.307C66.257 470.214 67.1037 470.078 67.9435 469.9C68.614 469.749 68.984 469.077 68.8843 468.363C68.4722 465.786 68.0624 463.224 67.6504 460.647C67.4842 459.608 67.3157 458.555 67.1518 457.53Z" fill="#ED1100"/>
<path d="M67.8172 447.845C68.5693 450.557 66.0518 453.003 64.0248 453.269C61.4171 453.613 59.0172 451.909 58.5819 449.278C58.1721 446.716 59.8954 444.279 62.3698 443.825C64.9006 443.362 67.7766 445.238 67.8313 447.843L67.8172 447.845ZM65.6319 448.297C65.4839 446.919 64.3372 445.992 62.983 446.121C61.7276 446.235 60.6917 447.539 60.8401 448.829C60.9817 450.077 62.229 451.089 63.4821 450.962C64.8363 450.833 65.7894 449.644 65.6342 448.311L65.6319 448.297Z" fill="#ED1100"/>
</g>
<g opacity="0.5" clip-path="url(#clip1_1239_1170)">
<path d="M618.026 114.97C618.593 112.504 619.125 110.11 619.693 107.645C619.32 107.645 619.019 107.645 618.717 107.645C613.131 107.645 607.544 107.645 601.957 107.645C598.499 107.645 596.3 105.446 596.3 102.005C596.3 89.661 596.3 77.3347 596.3 64.9907C596.3 61.4791 598.463 59.3331 602.01 59.3331C617.121 59.3331 632.214 59.3331 647.325 59.3331C647.68 59.3331 648.034 59.3331 648.496 59.3331C648.496 58.9961 648.531 58.6946 648.531 58.4108C648.531 56.4954 648.531 54.5977 648.531 52.6822C648.531 50.0751 650.056 48.5498 652.646 48.5498C659.066 48.5498 665.486 48.5498 671.907 48.5498C674.443 48.5498 675.986 50.1105 675.986 52.629C675.986 72.9363 675.986 93.2259 675.986 113.533C675.986 116.052 674.425 117.612 671.889 117.612C665.451 117.612 658.995 117.612 652.557 117.612C650.127 117.612 648.566 116.087 648.549 113.64C648.531 111.689 648.549 109.72 648.549 107.716H634.52C635.07 110.128 635.619 112.522 636.169 114.987C637.411 114.987 638.617 114.987 639.823 114.987C640.869 114.987 641.472 115.502 641.454 116.335C641.454 117.169 640.851 117.648 639.787 117.648C631.327 117.648 622.85 117.648 614.39 117.648C613.326 117.648 612.74 117.169 612.723 116.335C612.723 115.502 613.326 115.005 614.354 114.987C615.543 114.987 616.731 114.987 618.008 114.987L618.026 114.97ZM655.217 94.7157V93.7934C655.217 84.1984 655.217 74.6034 655.217 65.0085C655.217 62.9866 654.224 61.9934 652.22 61.9934C635.46 61.9934 618.7 61.9934 601.939 61.9934C599.935 61.9934 598.942 62.9866 598.942 65.0085C598.942 74.6034 598.942 84.1984 598.942 93.7934V94.7157H655.217ZM651.174 59.3508C651.706 59.3508 652.149 59.3508 652.575 59.3508C655.608 59.404 657.842 61.6387 657.878 64.6715C657.878 65.4696 657.878 66.2677 657.878 67.0835C657.878 78.7536 657.878 90.4236 657.878 102.094C657.878 105.393 655.661 107.627 652.397 107.663C652.025 107.663 651.635 107.663 651.191 107.663C651.191 109.631 651.191 111.511 651.191 113.374C651.191 114.668 651.493 114.97 652.823 114.97C659.066 114.97 665.327 114.97 671.57 114.97C673.059 114.97 673.325 114.704 673.325 113.161C673.325 105.251 673.325 97.3405 673.325 89.4304C673.325 77.2283 673.325 65.0439 673.325 52.8418C673.325 51.5294 673.006 51.2101 671.729 51.2101C670.239 51.2101 668.75 51.2101 667.242 51.2101C662.383 51.2101 657.505 51.2101 652.646 51.2101C651.546 51.2101 651.209 51.5471 651.191 52.629C651.191 53.3739 651.191 54.1188 651.191 54.8637C651.191 56.318 651.191 57.7723 651.191 59.3331L651.174 59.3508ZM598.942 97.4469C598.942 98.9013 598.942 100.302 598.942 101.721C598.942 104.062 599.864 104.985 602.188 104.985C618.788 104.985 635.389 104.985 651.972 104.985C652.255 104.985 652.522 104.985 652.805 104.985C653.994 104.878 655.111 103.974 655.164 102.803C655.253 101.047 655.182 99.2737 655.182 97.4647H598.942V97.4469ZM620.775 114.917H633.403C632.853 112.469 632.303 110.075 631.753 107.698H622.406C621.857 110.11 621.325 112.504 620.775 114.917Z" fill="#ED1100"/>
<path d="M662.259 106.119C662.702 106.119 663.145 106.084 663.589 106.119C664.334 106.172 664.759 106.651 664.795 107.361C664.83 108.07 664.422 108.638 663.695 108.691C662.702 108.762 661.709 108.78 660.716 108.691C659.988 108.62 659.634 108.052 659.687 107.325C659.74 106.634 660.148 106.208 660.857 106.155C661.319 106.119 661.797 106.155 662.259 106.155V106.119Z" fill="#ED1100"/>
<path d="M627.124 99.6641C627.905 99.6641 628.667 99.6464 629.448 99.6641C630.264 99.6819 630.796 100.196 630.813 100.906C630.849 101.668 630.317 102.271 629.483 102.289C627.887 102.324 626.273 102.324 624.677 102.289C623.843 102.271 623.311 101.668 623.347 100.906C623.382 100.178 623.914 99.6819 624.73 99.6641C625.528 99.6464 626.326 99.6641 627.124 99.6641Z" fill="#ED1100"/>
</g>
<g opacity="0.5" clip-path="url(#clip2_1239_1170)">
<path d="M608.647 265.853C612.214 259.805 615.781 253.758 619.342 247.721C620.809 245.232 623.428 244.317 626.051 245.341C626.335 245.454 626.595 245.607 626.866 245.767C634.408 250.215 641.95 254.663 649.492 259.111C652.276 260.753 653.07 263.847 651.398 266.682C644.265 278.777 637.137 290.862 630.004 302.956C628.35 305.761 625.252 306.573 622.498 304.948C614.966 300.506 607.444 296.07 599.912 291.628C597.038 289.932 596.257 286.86 597.983 283.934C601.538 277.907 605.093 271.88 608.654 265.842L608.647 265.853ZM601.344 281.668C603.108 281.334 604.478 281.895 605.814 282.696C613.033 286.982 620.265 291.247 627.508 295.492C628.8 296.254 629.85 297.175 630.388 298.62C630.402 298.642 630.448 298.655 630.515 298.68L630.731 298.313C637.119 287.483 643.506 276.653 649.894 265.823C650.05 265.557 650.213 265.282 650.309 264.981C650.883 263.299 650.246 261.632 648.674 260.704C641.152 256.268 633.602 251.856 626.11 247.369C624.263 246.266 621.945 246.672 620.692 248.819C614.408 259.587 608.045 270.308 601.717 281.036C601.615 281.21 601.519 281.373 601.338 281.679L601.344 281.668ZM615.709 290.594C612.003 288.408 608.307 286.229 604.601 284.043C604.351 283.895 604.101 283.748 603.838 283.62C601.949 282.726 599.635 283.766 599.009 285.789C598.483 287.458 599.128 289.089 600.68 290.005C608.272 294.483 615.864 298.96 623.456 303.438C623.566 303.503 623.676 303.568 623.787 303.633C625.736 304.631 628.136 303.559 628.77 301.432C629.27 299.761 628.619 298.209 627.007 297.258C623.241 295.036 619.475 292.815 615.709 290.594Z" fill="#ED1100"/>
<path d="M623.133 272.65C621.641 271.77 620.218 270.931 618.806 270.098C618.426 269.874 618.103 269.642 618.125 269.147C618.144 268.635 618.514 268.442 618.911 268.249C623.993 265.859 629.069 263.478 634.151 261.087C634.221 261.06 634.281 261.027 634.352 260.999C634.776 260.782 635.177 260.813 635.49 261.176C635.798 261.522 635.742 261.915 635.519 262.293C634.918 263.312 634.316 264.332 633.721 265.342C632.746 266.994 631.772 268.646 630.792 270.308C630.689 270.482 630.587 270.655 630.449 270.89C630.649 271.008 630.819 271.108 630.99 271.209C632.282 271.971 633.584 272.739 634.876 273.501C635.226 273.707 635.485 273.956 635.467 274.399C635.442 274.852 635.148 275.077 634.779 275.244C629.627 277.662 624.491 280.076 619.348 282.5C618.898 282.715 618.453 282.783 618.102 282.37C617.766 281.979 617.892 281.559 618.133 281.151C619.679 278.53 621.23 275.899 622.776 273.278C622.884 273.095 622.999 272.901 623.143 272.656L623.133 272.65ZM621.035 279.619L621.127 279.714C624.954 277.917 628.772 276.113 632.692 274.274C631.4 273.512 630.218 272.815 629.036 272.118C628.265 271.663 628.179 271.282 628.642 270.497C629.845 268.458 631.042 266.428 632.245 264.389C632.341 264.225 632.437 264.062 632.533 263.899C632.493 263.876 632.469 263.848 632.435 263.814C628.608 265.611 624.774 267.419 620.854 269.258C622.176 270.038 623.378 270.747 624.58 271.456C625.261 271.857 625.361 272.26 624.962 272.959C623.958 274.662 622.953 276.365 621.949 278.068C621.642 278.589 621.335 279.109 621.029 279.629L621.035 279.619Z" fill="#ED1100"/>
<path d="M611.463 291.224C611.724 291.377 612 291.526 612.254 291.69C612.657 291.969 612.747 292.366 612.53 292.801C612.314 293.237 611.901 293.434 611.482 293.228C610.851 292.925 610.234 292.574 609.67 292.159C609.287 291.892 609.247 291.456 609.484 291.032C609.718 290.634 610.183 290.51 610.622 290.727C610.914 290.872 611.183 291.058 611.463 291.224Z" fill="#ED1100"/>
<path d="M617.222 294.621C617.483 294.774 617.765 294.914 618.013 295.088C618.416 295.366 618.526 295.843 618.281 296.235C618.035 296.653 617.614 296.818 617.195 296.612C616.574 296.314 615.989 295.956 615.423 295.566C615.03 295.294 614.992 294.763 615.267 294.389C615.563 294 615.938 293.891 616.377 294.109C616.669 294.254 616.938 294.439 617.218 294.605L617.222 294.621Z" fill="#ED1100"/>
<path d="M605.684 287.816C605.944 287.969 606.221 288.119 606.475 288.283C606.878 288.561 607 289.018 606.775 289.422C606.523 289.85 606.122 290.026 605.713 289.826C605.082 289.523 604.471 289.162 603.9 288.757C603.518 288.49 603.484 288.044 603.756 287.628C604.023 287.221 604.414 287.108 604.843 287.32C605.135 287.465 605.403 287.65 605.684 287.816Z" fill="#ED1100"/>
<path d="M622.065 299.525C621.805 299.371 621.522 299.232 621.274 299.058C620.841 298.762 620.747 298.28 620.994 297.862C621.24 297.444 621.717 297.299 622.174 297.555C622.717 297.848 623.238 298.155 623.757 298.488C624.165 298.757 624.265 299.228 624.041 299.632C623.8 300.04 623.363 300.208 622.912 300.011C622.614 299.876 622.352 299.68 622.071 299.515L622.065 299.525Z" fill="#ED1100"/>
</g>
<g opacity="0.5" clip-path="url(#clip3_1239_1170)">
<path d="M53.5831 161.735C58.2678 166.964 62.9525 172.194 67.6293 177.414C69.5568 179.566 69.6371 182.339 67.8674 184.529C67.6738 184.766 67.4486 184.967 67.2148 185.177C60.693 191.019 54.1713 196.862 47.6496 202.704C45.2418 204.861 42.0527 204.682 39.8565 202.231C30.4872 191.772 21.1257 181.322 11.7564 170.863C9.58386 168.438 9.74729 165.24 12.1291 163.106C18.6421 157.271 25.1465 151.444 31.6596 145.61C34.1453 143.383 37.3092 143.569 39.5765 146.1C44.2453 151.311 48.9142 156.523 53.591 161.744L53.5831 161.735ZM40.7184 149.988C40.5037 151.77 39.5547 152.907 38.3862 153.938C32.1172 159.522 25.8639 165.124 19.6265 170.743C18.5092 171.744 17.3134 172.466 15.7736 172.542C15.7483 172.548 15.7216 172.588 15.6775 172.644L15.9619 172.961C24.3517 182.326 32.7414 191.692 41.1312 201.057C41.3366 201.286 41.5499 201.524 41.8073 201.707C43.2371 202.763 45.019 202.661 46.3788 201.442C52.8831 195.615 59.3725 189.754 65.9164 183.972C67.5266 182.545 67.8413 180.212 66.1736 178.368C57.8117 169.121 49.519 159.812 41.2082 150.535C41.0739 150.385 40.9475 150.244 40.7105 149.98L40.7184 149.988ZM27.8646 160.979C31.0692 158.108 34.2651 155.245 37.4697 152.374C37.6862 152.18 37.9027 151.986 38.1035 151.775C39.5274 150.245 39.2362 147.724 37.4978 146.515C36.0657 145.509 34.3162 145.63 32.9737 146.833C26.4087 152.714 19.8437 158.595 13.2787 164.476C13.1834 164.562 13.0881 164.647 12.9928 164.733C11.4515 166.288 11.7468 168.901 13.583 170.149C15.0245 171.131 16.7006 170.98 18.0951 169.731C21.3516 166.814 24.6081 163.896 27.8646 160.979Z" fill="#ED1100"/>
<path d="M42.7209 173.484C44.0113 172.328 45.2412 171.226 46.4624 170.132C46.7915 169.837 47.1097 169.6 47.5752 169.771C48.0573 169.943 48.1297 170.355 48.1927 170.792C48.9337 176.359 49.6668 181.917 50.4078 187.485C50.4127 187.56 50.4262 187.627 50.4311 187.702C50.5091 188.173 50.3591 188.546 49.9187 188.733C49.4947 188.923 49.1373 188.75 48.845 188.424C48.055 187.542 47.265 186.66 46.4829 185.787C45.2031 184.358 43.9233 182.93 42.6356 181.492C42.5013 181.342 42.367 181.193 42.1853 180.99C42.0121 181.145 41.8648 181.277 41.7176 181.409C40.6003 182.41 39.4744 183.418 38.3571 184.419C38.054 184.691 37.7389 184.862 37.3223 184.71C36.8978 184.55 36.7726 184.201 36.7246 183.799C35.9788 178.157 35.2322 172.531 34.4776 166.897C34.409 166.402 34.4792 165.957 34.9788 165.748C35.4532 165.546 35.8155 165.793 36.1315 166.146C38.1618 168.412 40.2 170.688 42.2303 172.954C42.3725 173.113 42.5226 173.28 42.7122 173.492L42.7209 173.484ZM36.7141 169.376L36.5951 169.434C37.1501 173.626 37.7138 177.811 38.2807 182.103C39.398 181.102 40.42 180.187 41.442 179.271C42.1089 178.674 42.4977 178.707 43.106 179.386C44.686 181.15 46.2581 182.905 47.8381 184.668C47.9645 184.809 48.0909 184.951 48.2173 185.092C48.2519 185.061 48.2858 185.046 48.3283 185.024C47.7734 180.832 47.2105 176.631 46.6435 172.338C45.5002 173.363 44.4609 174.294 43.4216 175.225C42.8326 175.752 42.4186 175.726 41.8728 175.134C40.5535 173.661 39.2342 172.189 37.9149 170.716C37.512 170.266 37.1091 169.816 36.7062 169.367L36.7141 169.376Z" fill="#ED1100"/>
<path d="M28.5492 156.742C28.324 156.943 28.0981 157.162 27.865 157.355C27.4775 157.654 27.0722 157.62 26.7223 157.282C26.3724 156.943 26.3101 156.49 26.6329 156.154C27.113 155.644 27.6335 155.162 28.2005 154.749C28.5707 154.465 28.9982 154.559 29.3308 154.913C29.6389 155.257 29.6168 155.738 29.2767 156.09C29.05 156.325 28.7917 156.524 28.5492 156.742Z" fill="#ED1100"/>
<path d="M23.5691 161.203C23.3439 161.405 23.1258 161.632 22.8848 161.816C22.4974 162.115 22.0092 162.076 21.7098 161.724C21.3859 161.362 21.3567 160.912 21.6795 160.575C22.151 160.073 22.6699 159.624 23.2125 159.201C23.5913 158.91 24.1088 159.034 24.3822 159.409C24.6628 159.81 24.6532 160.2 24.3131 160.552C24.0864 160.787 23.8281 160.987 23.5856 161.204L23.5691 161.203Z" fill="#ED1100"/>
<path d="M33.5466 152.264C33.3214 152.466 33.0955 152.684 32.8624 152.877C32.475 153.177 32.0026 153.155 31.6858 152.819C31.354 152.448 31.3076 152.013 31.6216 151.684C32.1018 151.174 32.6301 150.701 33.1893 150.28C33.5594 149.996 33.9949 150.098 34.3093 150.484C34.6159 150.861 34.6056 151.268 34.2742 151.613C34.0474 151.847 33.7891 152.047 33.5466 152.264Z" fill="#ED1100"/>
<path d="M17.4292 164.335C17.6544 164.133 17.8725 163.906 18.1135 163.722C18.5269 163.399 19.0143 163.455 19.3382 163.817C19.6621 164.178 19.6558 164.677 19.274 165.035C18.8308 165.463 18.3804 165.867 17.9056 166.26C17.526 166.569 17.0465 166.521 16.7297 166.185C16.4137 165.832 16.3854 165.365 16.7096 164.995C16.9284 164.751 17.1946 164.561 17.4371 164.343L17.4292 164.335Z" fill="#ED1100"/>
</g>
<g opacity="0.5" clip-path="url(#clip4_1239_1170)">
<path d="M159.571 228.139C159.196 226.964 159.516 225.917 160.061 224.857C163.638 217.85 167.18 210.825 170.742 203.819C170.901 203.502 170.914 203.269 170.726 202.958C170.161 202.033 169.631 201.089 169.095 200.147C168.665 199.401 168.747 199.059 169.461 198.561C170.833 197.598 171.398 196.168 171.041 194.595C170.698 193.099 169.49 191.963 167.91 191.741C166.466 191.542 165.265 192.072 164.394 193.228C163.531 194.371 163.409 195.653 163.995 196.977C164.075 197.157 164.149 197.339 164.214 197.519C164.363 197.938 164.21 198.252 163.853 198.481C163.472 198.724 163.062 198.713 162.8 198.367C162.554 198.035 162.356 197.652 162.209 197.262C161.162 194.425 162.722 191.248 165.64 190.232C168.439 189.253 171.661 190.811 172.575 193.632C173.285 195.817 172.864 197.793 171.215 199.444C170.97 199.694 170.929 199.865 171.119 200.167C171.52 200.806 171.896 201.459 172.246 202.119C172.4 202.412 172.586 202.506 172.916 202.525C180.352 202.917 187.782 203.312 195.22 203.719C196.06 203.762 196.901 203.805 197.732 203.939C199.022 204.142 199.995 205.18 200.22 206.472C200.426 207.69 199.83 208.959 198.711 209.604C187.109 216.303 175.507 223.001 163.912 229.696C162.74 230.372 161.367 230.186 160.376 229.251C160.277 229.16 160.17 229.082 160.069 229.001C159.904 228.716 159.739 228.43 159.571 228.139ZM180.534 218.196C186.174 214.939 191.821 211.679 197.461 208.422C197.654 208.311 197.852 208.197 198.024 208.051C198.532 207.626 198.637 207.068 198.465 206.46C198.304 205.885 197.866 205.625 197.307 205.544C197.145 205.52 196.976 205.509 196.816 205.501C188.841 205.078 180.864 204.665 172.892 204.233C172.547 204.214 172.396 204.317 172.248 204.612C168.651 211.771 165.038 218.93 161.431 226.086C161.358 226.229 161.277 226.384 161.235 226.541C161.064 227.105 161.162 227.624 161.611 228.025C162.044 228.412 162.551 228.469 163.083 228.247C163.266 228.173 163.435 228.076 163.603 227.978C169.244 224.721 174.891 221.461 180.531 218.205L180.534 218.196Z" fill="#ED1100"/>
</g>
<g opacity="0.5" clip-path="url(#clip5_1239_1170)">
<path d="M464.209 181.207C464.414 180.854 464.579 180.462 464.843 180.155C468.651 175.802 472.47 171.466 476.307 167.136C476.691 166.707 477.18 166.336 477.691 166.068C480.525 164.594 483.373 163.163 486.218 161.714C487.486 161.067 488.178 161.376 488.57 162.703C489.145 164.687 490.068 166.459 491.909 167.575C496.162 170.15 501.794 167.56 502.575 162.675C502.669 162.08 502.726 161.473 502.739 160.871C502.753 159.58 503.381 159.041 504.668 159.318C507.021 159.822 509.358 160.416 511.725 160.82C513.955 161.198 515.895 162.046 517.742 163.347C521.808 166.21 525.973 168.937 530.091 171.723C531.343 172.57 531.429 173.168 530.484 174.384C527.597 178.107 524.719 181.828 521.823 185.544C521.446 186.025 521.304 186.458 521.383 187.074C522.607 196.463 523.795 205.856 524.992 215.248C525.016 215.439 525.042 215.639 525.066 215.83C525.168 216.841 524.745 217.38 523.707 217.513C521.272 217.832 518.834 218.134 516.397 218.444C505.252 219.865 494.115 221.285 482.97 222.705C481.448 222.899 481.024 222.582 480.834 221.097C479.624 211.601 478.412 202.096 477.211 192.599C477.145 192.086 476.958 191.739 476.542 191.422C472.857 188.598 469.187 185.755 465.517 182.912C465.074 182.597 464.694 182.213 464.291 181.85C464.263 181.632 464.236 181.424 464.209 181.207ZM476.504 187.895C476.29 186.218 476.066 184.463 475.842 182.699C475.806 182.421 475.788 182.141 475.824 181.863C475.886 181.228 476.35 180.798 476.987 180.743C477.614 180.681 478.159 181.035 478.327 181.65C478.409 181.939 478.447 182.244 478.486 182.548C480.04 194.737 481.592 206.918 483.146 219.107L483.252 219.941L522.239 214.972L522.126 214.085C520.573 201.896 519.02 189.715 517.466 177.526C517.436 177.292 517.397 177.049 517.384 176.813C517.365 176.1 517.789 175.569 518.454 175.458C519.153 175.333 519.747 175.708 519.953 176.415C520.015 176.619 520.033 176.837 520.061 177.054C520.269 178.687 520.478 180.321 520.686 181.954C520.706 182.111 520.76 182.254 520.797 182.408L520.66 182.24C523.026 179.343 525.4 176.435 527.85 173.43C527.632 173.326 527.491 173.273 527.364 173.192C522.988 170.209 518.611 167.218 514.217 164.237C513.991 164.081 513.712 163.993 513.436 163.931C510.96 163.372 508.486 162.831 506.004 162.291C505.801 162.246 505.584 162.221 505.374 162.186C504.679 166.769 502.251 169.948 497.658 170.877C492.22 171.977 488.507 169.501 486.274 164.603C483.864 165.828 481.461 167.035 479.071 168.267C478.71 168.454 478.367 168.71 478.102 169.017C474.665 172.908 471.247 176.813 467.821 180.72C467.695 180.859 467.522 180.97 467.295 181.158C470.462 183.491 473.472 185.712 476.471 187.917L476.504 187.895Z" fill="#ED1100"/>
</g>
<g opacity="0.5" clip-path="url(#clip6_1239_1170)">
<path d="M328.077 240.577C328.398 240.731 328.722 240.874 329.038 241.037C331.363 242.227 332.683 244.767 332.314 247.326C332.279 247.568 332.238 247.808 332.195 248.047C329.568 262.619 326.934 277.188 324.322 291.762C323.834 294.481 322.354 296.315 319.628 297.003C318.811 297.21 317.88 297.232 317.045 297.087C310.683 295.984 304.328 294.834 297.978 293.668C294.51 293.032 292.321 289.906 292.938 286.473C295.599 271.64 298.273 256.812 300.957 241.984C301.507 238.945 303.952 236.953 307.117 236.897C307.187 236.895 307.255 236.857 307.325 236.836C314.242 238.083 321.161 239.33 328.078 240.577L328.077 240.577ZM325.662 269.395C326.975 262.109 328.289 254.821 329.603 247.535C330.058 245.012 328.91 243.377 326.359 242.917C320.284 241.822 314.209 240.727 308.133 239.631C305.621 239.179 303.938 240.321 303.494 242.784C300.86 257.395 298.226 272.007 295.592 286.617C295.154 289.05 296.334 290.727 298.797 291.171C304.891 292.271 310.986 293.369 317.08 294.467C319.598 294.921 321.265 293.783 321.711 291.312C323.028 284.006 324.345 276.701 325.662 269.395Z" fill="#ED1100"/>
<path d="M316.827 243.879C318.116 244.111 319.407 244.337 320.695 244.58C321.272 244.689 321.645 245.041 321.759 245.619C321.863 246.145 321.707 246.626 321.245 246.888C320.94 247.06 320.516 247.177 320.178 247.121C317.611 246.694 315.052 246.225 312.494 245.75C311.681 245.6 311.204 244.933 311.333 244.21C311.464 243.483 312.118 243.046 312.957 243.184C314.25 243.395 315.537 243.644 316.826 243.876C316.826 243.877 316.826 243.879 316.825 243.88L316.827 243.879Z" fill="#ED1100"/>
<path d="M309.375 285.095C310.807 285.361 311.762 286.725 311.504 288.136C311.245 289.548 309.877 290.481 308.437 290.229C306.977 289.972 306 288.579 306.283 287.155C306.565 285.743 307.938 284.829 309.375 285.095Z" fill="#ED1100"/>
</g>
<g opacity="0.5" clip-path="url(#clip7_1239_1170)">
<path d="M543.737 426.75C543.86 426.829 543.973 426.907 544.109 426.968C545.968 427.841 547.031 429.282 547.212 431.309C547.928 439.683 548.634 448.055 549.348 456.438C549.638 459.849 549.959 463.255 550.187 466.667C550.391 469.739 547.743 472.222 544.635 471.892C542.78 471.694 540.943 471.375 539.107 471.118C538.844 471.08 538.57 471.04 538.246 470.993C537.928 473.172 537.616 475.25 537.342 477.344C537.315 477.523 537.615 477.812 537.822 477.955C539.314 479.009 540.008 480.427 539.706 482.211C539.395 483.993 538.277 485.136 536.504 485.583C534.291 486.138 532.002 484.805 531.368 482.619C530.733 480.444 531.967 478.153 534.185 477.486C534.725 477.33 534.934 477.105 534.994 476.552C535.236 474.607 535.538 472.671 535.828 470.681L525.259 469.142L522.143 490.536C522.447 490.58 522.711 490.618 522.974 490.657C525.913 491.085 528.852 491.513 531.791 491.941C534.365 492.315 535.752 494.161 535.395 496.682C535.188 498.101 534.98 499.531 534.773 500.95C534.617 502.02 534.151 502.381 533.087 502.226C522.203 500.641 511.33 499.058 500.446 497.473C499.412 497.322 499.046 496.85 499.193 495.84C499.412 494.341 499.62 492.84 499.848 491.342C500.209 489.006 502.098 487.617 504.491 487.955C507.453 488.366 510.42 488.818 513.379 489.249C513.652 489.289 513.926 489.329 514.26 489.377L517.383 467.934C517.079 467.89 516.785 467.847 516.502 467.806C510.553 466.939 504.604 466.073 498.646 465.205C495.829 464.795 494.004 462.896 493.946 460.243C493.927 459.516 494.1 458.755 494.364 458.079C498.565 447.287 502.817 436.492 507.05 425.685C507.858 423.618 509.316 422.421 511.575 422.189C511.638 422.178 511.698 422.125 511.764 422.094C522.425 423.647 533.086 425.199 543.747 426.752L543.737 426.75ZM521.654 466.177C529.245 467.283 536.845 468.389 544.435 469.495C546.523 469.799 547.921 468.512 547.746 466.445C546.774 454.859 545.803 443.263 544.82 431.675C544.682 430.063 543.819 429.171 542.157 428.929C532.317 427.496 522.487 426.065 512.647 424.632C510.945 424.384 509.894 424.987 509.273 426.55C505.075 437.26 500.905 447.985 496.647 458.677C495.751 460.925 497.031 462.653 499.143 462.93C506.653 463.942 514.135 465.082 521.634 466.174L521.654 466.177ZM501.723 495.239L532.51 499.722C532.66 498.693 532.802 497.713 532.945 496.733C533.194 495.024 532.822 494.521 531.11 494.271C522.273 492.984 513.436 491.697 504.6 490.411C504.377 490.378 504.154 490.346 503.929 490.323C503.11 490.265 502.412 490.725 502.275 491.522C502.057 492.735 501.908 493.969 501.723 495.239ZM519.853 468.385L516.746 489.719L519.675 490.146L522.782 468.812L519.853 468.385ZM537.329 481.762C537.475 480.763 536.746 479.799 535.73 479.671C534.705 479.532 533.783 480.245 533.645 481.267C533.523 482.249 534.208 483.156 535.2 483.31C536.223 483.459 537.171 482.78 537.318 481.771L537.329 481.762Z" fill="#ED1100"/>
</g>
<g opacity="0.5" clip-path="url(#clip8_1239_1170)">
<path d="M450.691 287.533C451.62 288.386 451.667 288.852 450.853 289.909C447.427 294.36 444.515 299.139 442.146 304.254C442.063 304.435 441.988 304.617 441.849 304.944C442.075 304.828 442.192 304.784 442.301 304.713C446.8 301.692 451.74 300.494 457.103 301.02C457.747 301.084 458.219 301.328 458.38 301.979C458.532 302.602 458.212 303.026 457.723 303.384C453.074 306.805 449.043 310.855 445.888 315.758C445.402 316.517 444.969 317.305 444.625 318.195C444.914 318.035 445.203 317.875 445.492 317.715C448.448 316.059 451.565 315.027 454.995 315.278C458.363 315.518 460.974 317.227 463.143 319.715C466.212 323.238 467.828 327.452 468.604 332.037C469.19 335.543 469.156 339.066 468.621 342.574C468.493 343.394 468.056 343.853 467.393 343.843C466.756 343.834 466.323 343.408 466.209 342.612C465.358 337.012 463.225 332.005 459.621 327.671C458.784 326.663 457.81 325.782 456.946 324.802C456.496 324.302 456.013 324.249 455.401 324.359C452.363 324.936 449.733 326.368 447.303 328.259C445.063 330.007 443.222 332.062 442.152 334.758C441.826 335.575 441.617 336.43 441.325 337.366C442.912 337.389 444.355 337.41 445.798 337.431C447.421 337.455 449.043 337.469 450.665 337.502C451.974 337.53 453.063 338.468 453.063 339.737C453.058 342.558 453.053 345.379 452.833 348.188C452.59 351.344 451.232 354.072 449.198 356.462C449.089 356.589 448.979 356.724 448.76 356.986C449.37 356.994 449.854 356.983 450.338 357.008C451.26 357.058 451.753 357.686 451.57 358.597C451.299 359.935 451.029 361.282 450.705 362.611C450.266 364.421 448.887 365.515 447.068 365.489C438.068 365.358 429.06 365.227 420.061 365.097C418.232 365.07 416.886 363.946 416.5 362.124C416.214 360.787 415.983 359.432 415.751 358.086C415.594 357.171 416.096 356.548 417.011 356.525C417.486 356.514 417.961 356.539 418.544 356.547C418.395 356.326 418.307 356.17 418.193 356.022C415.78 353.01 414.611 349.57 414.685 345.672C414.723 343.664 414.743 341.656 414.772 339.657C414.797 337.959 415.788 336.996 417.473 337.012C420.315 337.053 423.156 337.094 426.114 337.137C424.9 331.248 422.374 326.126 418.557 321.615C414.834 323.059 411.46 325.064 408.367 327.53C406.853 328.732 405.444 330.062 404 331.356C403.545 331.77 403.101 332.101 402.469 331.818C401.809 331.525 401.71 330.967 401.747 330.301C402.227 321.872 408.822 314.727 417.075 313.751C418.126 313.629 419.209 313.764 420.536 313.783C419.849 311.655 419.287 309.638 418.562 307.692C417.388 304.562 415.663 301.743 413.602 299.138C413.506 299.018 413.409 298.907 413.321 298.787C412.942 298.298 412.851 297.767 413.227 297.243C413.593 296.728 414.087 296.625 414.685 296.816C417.443 297.706 419.969 299.039 422.238 300.888C422.406 301.028 422.584 301.149 422.912 301.41C422.796 300.741 422.722 300.247 422.622 299.771C421.907 296.483 420.814 293.335 419.361 290.32C419.082 289.749 418.964 289.209 419.411 288.695C419.885 288.154 420.449 288.226 421.055 288.482C426.42 290.723 430.039 294.647 431.948 300.208C432.275 301.153 432.503 302.142 432.793 303.178C432.93 303.025 433.048 302.908 433.139 302.772C437.39 296.488 442.779 291.499 449.35 287.833C449.522 287.744 449.667 287.609 449.822 287.493C450.117 287.497 450.422 287.501 450.718 287.506L450.691 287.533ZM417.204 339.518C417.166 342.111 416.986 344.656 417.129 347.178C417.327 350.823 418.951 353.833 421.705 356.164C422.015 356.424 422.488 356.595 422.9 356.611C424.271 356.685 425.643 356.669 427.014 356.688C427.955 356.702 428.504 357.167 428.494 357.924C428.483 358.682 427.929 359.14 426.988 359.126C424.397 359.088 421.798 359.051 419.207 359.013C418.939 359.009 418.67 359.005 418.41 359.001C418.399 359.12 418.38 359.175 418.389 359.22C418.505 359.87 418.621 360.52 418.737 361.161C418.987 362.461 419.226 362.665 420.526 362.684C429.23 362.81 437.933 362.937 446.637 363.063C446.807 363.065 446.986 363.068 447.157 363.07C447.785 363.052 448.211 362.73 448.363 362.12C448.582 361.265 448.729 360.391 448.931 359.435L448.07 359.422C443.06 359.35 438.049 359.277 433.038 359.204C432.841 359.202 432.635 359.208 432.438 359.196C431.722 359.131 431.253 358.649 431.254 357.983C431.264 357.307 431.728 356.821 432.437 356.767C432.635 356.752 432.832 356.773 433.038 356.776C436.856 356.831 440.666 356.896 444.484 356.924C444.87 356.929 445.32 356.771 445.629 356.529C447.824 354.799 449.335 352.575 450.092 349.847C450.982 346.609 450.456 343.297 450.71 339.986L417.204 339.5L417.204 339.518ZM453.563 303.388C453.186 303.41 452.863 303.405 452.549 303.437C447.816 303.998 443.762 305.994 440.43 309.452C439.948 309.956 439.579 310.626 439.319 311.289C438.891 312.369 438.605 313.506 438.231 314.606C437.931 315.478 437.155 315.823 436.471 315.393C435.787 314.963 435.832 314.333 436.03 313.642C438.021 306.778 441.01 300.385 444.791 294.368C444.947 294.114 445.103 293.861 445.259 293.608C445.071 293.568 444.99 293.586 444.936 293.63C436.956 299.888 431.629 308.018 428.61 317.753C428.534 318.008 428.708 318.412 428.883 318.661C430.255 320.552 431.662 322.426 433.051 324.309C433.192 324.503 433.305 324.714 433.454 324.963C433.908 322.733 434.334 320.575 434.795 318.427C434.969 317.599 435.557 317.206 436.245 317.362C436.924 317.518 437.265 318.143 437.1 318.963C436.849 320.228 436.562 321.493 436.328 322.768C436.036 324.352 435.798 325.947 435.503 327.704C435.712 327.516 435.776 327.48 435.812 327.426C437.071 325.335 438.542 323.421 440.261 321.711C440.416 321.558 440.536 321.341 440.61 321.141C442.332 316.19 445.181 311.967 448.706 308.193C450.226 306.562 451.88 305.043 453.563 303.388ZM431.887 337.23C432.385 335.648 432.9 334.113 433.344 332.558C433.467 332.149 433.51 331.656 433.399 331.253C432.214 327.018 430.034 323.38 427.023 320.241C426.864 320.074 426.598 319.879 426.409 319.903C424.621 320.133 422.842 320.408 420.884 320.69C422.917 323.276 424.629 325.794 425.772 328.613C426.906 331.405 427.796 334.294 428.821 337.185L431.878 337.229L431.887 337.23ZM453.621 322.279C451.399 320.914 449.131 320.269 446.692 320.28C446.253 320.273 445.749 320.43 445.387 320.671C440.697 323.817 437.594 328.219 435.617 333.504C435.16 334.711 434.828 335.976 434.405 337.294C435.875 337.315 437.166 337.315 438.456 337.361C438.896 337.377 438.979 337.159 439.057 336.786C439.811 332.98 441.747 329.895 444.608 327.371C447.215 325.062 450.119 323.278 453.621 322.27L453.621 322.279ZM404.776 327.295C410.413 322.511 416.498 318.938 423.815 317.665C417.875 313.644 407.207 317.89 404.776 327.295ZM429.111 309.762C429.351 309.282 429.566 308.664 429.932 308.167C430.71 307.083 430.771 305.933 430.548 304.652C429.78 300.094 427.928 296.168 424.321 293.24C423.878 292.878 423.39 292.56 422.919 292.225C424.142 295.712 425.069 299.195 425.554 302.799C425.643 303.449 425.606 304.179 425.912 304.712C426.9 306.434 428.015 308.076 429.102 309.771L429.111 309.762ZM426.478 316.362C426.787 315.49 427.123 314.563 427.45 313.637C427.487 313.546 427.552 313.446 427.553 313.355C427.556 313.136 427.55 312.899 427.482 312.697C425.786 307.851 422.865 303.993 418.538 301.282C418.352 301.161 418.147 301.076 417.755 300.878C420.366 305.061 421.998 309.376 422.872 314.009C422.905 314.201 423.036 314.449 423.196 314.543C424.272 315.161 425.367 315.743 426.487 316.362L426.478 316.362ZM466.369 334.096C466.272 330.89 464.726 326.202 462.805 323.28C461.682 321.574 460.377 320.067 458.635 318.983C456.085 317.394 453.395 317.419 450.596 318.181C458.346 320.987 462.895 326.969 466.36 334.096L466.369 334.096Z" fill="#ED1100"/>
</g>
<g opacity="0.5" clip-path="url(#clip9_1239_1170)">
<path d="M325.774 141.657C324.586 134.088 323.4 126.53 322.212 118.961C322.237 118.9 322.295 118.834 322.286 118.779C322.219 115.526 324.691 111.931 328.969 111.373C331.053 111.103 333.119 110.722 335.194 110.396L335.982 110.273C335.928 109.928 335.888 109.673 335.849 109.429C335.376 106.41 334.902 103.392 334.428 100.373C334.341 99.8181 334.254 99.2632 334.268 98.7037C334.369 94.924 336.964 91.9695 340.725 91.3792C349.392 90.019 358.069 88.6571 366.735 87.297C371.373 86.569 374.992 89.1965 375.731 93.8337C376.212 96.8968 376.695 99.971 377.175 103.034C377.214 103.278 377.25 103.511 377.294 103.789C379.735 103.406 382.065 103.04 384.395 102.674C388.878 101.971 392.563 104.656 393.267 109.14C394.32 115.854 395.372 122.557 396.426 129.272C397.123 133.711 394.427 137.398 389.99 138.105C387.871 138.438 385.752 138.771 383.621 139.105C383.377 139.143 383.133 139.182 382.844 139.227C382.903 139.604 382.947 139.882 382.989 140.148C383.499 143.4 384.043 146.646 384.487 149.908C384.909 153.037 383.135 156.147 380.295 157.469C379.947 157.637 379.583 157.785 379.222 157.944L350.715 162.418C350.654 162.394 350.59 162.347 350.522 162.346C346.439 162.123 343.742 159.715 343.1 155.699C342.619 152.636 342.137 149.562 341.656 146.499C341.618 146.254 341.579 146.01 341.532 145.711C341.188 145.765 340.933 145.805 340.689 145.843C338.47 146.191 336.265 146.56 334.042 146.886C330.851 147.342 327.778 145.731 326.315 142.857C326.138 142.452 325.961 142.048 325.774 141.657ZM382.394 136.284C384.813 135.904 387.11 135.544 389.418 135.182C392.358 134.72 393.93 132.563 393.47 129.633C392.428 122.996 391.385 116.349 390.343 109.712C389.877 106.738 387.734 105.186 384.737 105.645C381.652 106.13 378.556 106.615 375.471 107.1C360.114 109.51 344.756 111.92 329.399 114.331C326.47 114.79 324.909 116.946 325.372 119.898C326.414 126.534 327.457 133.182 328.499 139.819C328.961 142.76 331.116 144.321 334.047 143.872C336.144 143.543 338.241 143.214 340.338 142.885C340.56 142.85 340.779 142.793 341.075 142.723C341.028 142.424 340.988 142.169 340.95 141.924C340.472 138.884 339.993 135.832 339.516 132.791C339.307 131.459 339.736 130.857 341.056 130.65C353.606 128.68 366.145 126.712 378.695 124.743C380.027 124.534 380.619 124.975 380.826 126.296C381.303 129.337 381.782 132.389 382.26 135.43C382.298 135.674 382.338 135.929 382.394 136.284ZM342.636 133.472L342.756 134.238C343.853 141.23 344.949 148.211 346.046 155.202C346.51 158.154 348.644 159.73 351.585 159.268C360.207 157.915 368.84 156.56 377.462 155.207C380.402 154.746 381.941 152.594 381.477 149.642C380.38 142.65 379.284 135.669 378.187 128.677L378.067 127.911L342.636 133.472ZM374.348 104.217L374.245 103.562C373.756 100.444 373.268 97.3361 372.779 94.2176C372.331 91.3653 370.171 89.7712 367.319 90.2188C358.641 91.5807 349.975 92.9409 341.298 94.3027C338.479 94.7451 336.9 96.9261 337.339 99.7228C337.832 102.864 338.323 105.993 338.816 109.134L338.915 109.767L374.346 104.206L374.348 104.217Z" fill="#ED1100"/>
<path d="M360.751 142.694C363.636 142.241 366.51 141.79 369.395 141.337C370.638 141.142 371.555 142.056 371.251 143.161C371.063 143.85 370.567 144.167 369.879 144.275C367.804 144.601 365.729 144.926 363.654 145.252C359.97 145.83 356.286 146.408 352.591 146.988C351.559 147.15 350.874 146.769 350.675 145.936C350.447 144.993 350.988 144.238 352.041 144.061C354.948 143.605 357.844 143.15 360.751 142.694Z" fill="#ED1100"/>
<path d="M362.075 151.561C359.19 152.014 356.316 152.465 353.431 152.918C352.432 153.075 351.707 152.586 351.568 151.698C351.448 150.932 351.884 150.238 352.64 150.052C353.132 149.929 353.646 149.871 354.156 149.791C359.383 148.97 364.62 148.148 369.847 147.328C370.08 147.292 370.313 147.255 370.535 147.22C371.387 147.143 372.082 147.66 372.207 148.459C372.331 149.247 371.821 149.986 370.983 150.152C369.957 150.347 368.908 150.478 367.876 150.639C365.946 150.943 364.004 151.247 362.073 151.55L362.075 151.561Z" fill="#ED1100"/>
<path d="M353.875 137.713C354.796 137.568 355.716 137.413 356.638 137.279C357.652 137.143 358.397 137.617 358.555 138.479C358.704 139.354 358.124 140.082 357.083 140.257C355.265 140.554 353.445 140.839 351.612 141.115C350.592 141.276 349.867 140.787 349.718 139.912C349.564 139.003 350.106 138.327 351.168 138.138C352.065 137.985 352.965 137.856 353.864 137.714L353.875 137.713Z" fill="#ED1100"/>
</g>
<g opacity="0.5" clip-path="url(#clip10_1239_1170)">
<path d="M207.243 100.186L199.84 101.956C197.593 101.809 196.569 100.427 196.316 98.3341C194.309 98.2783 192.757 97.5086 191.664 95.8848C191.48 95.6115 191.314 95.3336 191.149 95.0557C187.224 78.6421 183.299 62.2286 179.374 45.815C179.395 45.7801 179.426 45.743 179.429 45.7126C179.54 42.5707 180.976 40.8185 184.025 40.0894C200.959 36.0401 217.893 31.9907 234.827 27.9414C238.261 27.1203 240.925 28.765 241.751 32.2185C244.516 43.7803 247.28 55.3421 250.043 66.8944C251.033 71.033 252.034 75.1787 253.014 79.3196C253.492 81.3185 252.957 83.0635 251.483 84.4876C251.095 84.8581 250.406 85.0428 250.249 85.4672C250.078 85.9147 250.416 86.5384 250.457 87.0842C250.562 88.5573 249.798 89.5534 248.604 90.2853L241.202 92.0554C241.107 92.0286 241.011 92.0019 240.91 91.9962C239.426 91.8451 238.407 91.0272 237.984 89.5905C237.885 89.2571 237.823 88.9148 237.735 88.5488L208.755 95.4787C208.823 95.7602 208.885 96.023 208.946 96.2764C209.141 97.0928 209.191 97.9242 208.716 98.6331C208.319 99.2141 207.744 99.6692 207.24 100.176L207.243 100.186ZM209.849 36.0968C201.359 38.1271 192.878 40.1552 184.387 42.1854C182.117 42.7283 181.175 44.2632 181.722 46.5531C185.448 62.1314 189.175 77.7191 192.9 93.2975C193.454 95.6155 194.987 96.5487 197.304 95.9946C214.257 91.9408 231.219 87.8847 248.172 83.8309C250.452 83.2857 251.412 81.7463 250.869 79.4753C247.137 63.8688 243.408 48.2717 239.676 32.6651C239.131 30.3847 237.598 29.4515 235.309 29.9988C226.819 32.0291 218.338 34.0572 209.847 36.0874L209.849 36.0968ZM206.67 96.0071L198.395 97.9858C198.476 98.3237 198.534 98.6074 198.608 98.8773C198.816 99.5816 199.305 99.8815 200.029 99.7182C202.03 99.2497 204.019 98.7741 206.015 98.2869C206.728 98.1164 207.013 97.6513 206.885 96.9478C206.832 96.643 206.741 96.3472 206.66 96.0094L206.67 96.0071ZM248.088 86.0931L239.804 88.074C239.858 88.2993 239.9 88.4776 239.943 88.6559C240.21 89.7726 240.605 90.0154 241.722 89.7485C243.551 89.311 245.39 88.8713 247.219 88.4338C248.204 88.1983 248.473 87.747 248.236 86.7523C248.188 86.5552 248.139 86.3487 248.076 86.086L248.088 86.0931Z" fill="#ED1100"/>
<path d="M221.499 84.7323C214.388 86.4328 207.276 88.1333 200.156 89.836C198.429 90.2488 197.511 89.6847 197.096 87.9485C194.1 75.4202 191.104 62.8918 188.108 50.3634C187.698 48.646 188.233 47.2778 189.621 46.5292C189.929 46.3662 190.272 46.2644 190.619 46.1814C204.26 42.9195 217.901 39.6576 231.542 36.3957C233.644 35.8932 235.181 36.8452 235.688 38.9661C238.693 51.532 241.7 64.1073 244.704 76.6732C245.088 78.278 244.494 79.2337 242.889 79.6173C235.759 81.3223 228.62 83.0295 221.49 84.7345L221.499 84.7323ZM242.661 77.4595L235.742 48.5269L221.323 51.9751C221.482 52.6414 221.644 53.2773 221.79 53.927C222.185 55.7472 221.282 57.3223 219.506 57.8563C219.154 57.9603 219.005 58.1249 218.929 58.4705C218.653 59.7666 218.348 61.0599 218.054 62.3605C217.867 63.1987 217.426 63.8003 216.565 64.0161C215.676 64.2386 214.992 63.9062 214.421 63.2193C213.579 62.1902 212.738 61.1611 211.864 60.1598C211.714 59.9874 211.383 59.8482 211.153 59.8833C209.199 60.172 207.718 59.2066 207.247 57.2756C207.103 56.675 206.96 56.0744 206.811 55.455L192.392 58.9031L199.304 87.8075L207.522 85.8423C207.356 85.1478 207.203 84.5097 207.048 83.8622C206.673 82.1662 207.521 80.614 209.165 80.0622C209.871 79.8238 210.612 79.6864 211.335 79.5136C212.057 79.3409 212.77 79.1704 213.549 78.9842C213.479 78.6933 213.432 78.4962 213.385 78.2991C213.008 76.7225 212.65 75.1414 212.254 73.5693C211.97 72.4664 212.234 71.5798 213.061 70.8067C214.056 69.8644 215.037 68.9057 215.994 67.9326C216.793 67.1264 217.703 66.9088 218.78 67.2663C220.126 67.7085 221.474 68.1203 222.815 68.5437C223.813 68.8606 224.415 69.5104 224.643 70.5472C225.006 72.1471 225.406 73.7379 225.788 75.3333C225.839 75.5492 225.889 75.7556 225.951 76.0184C227.359 75.6819 228.668 75.349 229.985 75.0537C231.927 74.6291 233.515 75.6285 233.994 77.5478C234.142 78.1672 234.29 78.7866 234.443 79.4247L242.652 77.4618L242.661 77.4595ZM234.311 42.2915C234.091 41.3718 233.893 40.546 233.696 39.7202C233.382 38.4063 233.077 38.2113 231.783 38.5209C218.329 41.7379 204.867 44.9572 191.413 48.1742C191.188 48.2281 190.958 48.2631 190.752 48.3523C190.3 48.5395 190.021 48.9041 190.114 49.3778C190.325 50.4682 190.623 51.5479 190.877 52.6083C190.989 52.6212 191.031 52.631 191.068 52.622C195.815 51.4868 200.563 50.3517 205.31 49.2165C205.479 49.1761 205.667 49.0119 205.749 48.8536C206.088 48.1971 206.62 47.8118 207.324 47.6435C210.683 46.8404 214.032 46.0395 217.39 45.2364C218.019 45.0861 218.651 45.1137 219.175 45.524C219.493 45.7753 219.771 45.7782 220.137 45.6907C224.641 44.6139 229.153 43.5348 233.656 42.458L234.332 42.2964L234.311 42.2915ZM207.66 49.7955C208.219 52.1322 208.764 54.4127 209.309 56.6931C209.545 57.6785 210.001 57.9664 210.986 57.7308C213.528 57.1228 216.071 56.5149 218.613 55.9069C219.636 55.6624 219.907 55.2205 219.66 54.1882C219.157 52.0861 218.657 49.9933 218.154 47.8912C218.112 47.7129 218.05 47.5391 217.982 47.3371L207.653 49.8071L207.66 49.7955ZM232.379 79.9183C232.246 79.3646 232.129 78.8766 232.015 78.398C231.712 77.1311 231.363 76.9168 230.069 77.2264C223.52 78.7923 216.981 80.356 210.433 81.9219C210.208 81.9757 209.982 82.0296 209.773 82.1093C209.282 82.2961 209.03 82.6937 209.11 83.1907C209.224 83.9174 209.444 84.6288 209.621 85.3702L232.381 79.9277L232.379 79.9183ZM223.888 76.4722C223.437 74.5859 223.011 72.763 222.549 70.9585C222.509 70.7896 222.277 70.607 222.083 70.5442C220.78 70.1118 219.481 69.6981 218.161 69.3194C217.958 69.2588 217.622 69.349 217.466 69.4854C216.477 70.4067 215.51 71.3422 214.574 72.3201C214.399 72.5009 214.299 72.8719 214.348 73.1182C214.6 74.3378 214.908 75.5439 215.198 76.7545C215.33 77.3082 215.465 77.8712 215.601 78.4437L223.867 76.4673L223.888 76.4722ZM205.805 51.3303L191.414 54.7717L191.89 56.7612L206.281 53.3198L205.805 51.3303ZM220.841 49.838L235.242 46.3944L234.767 44.4049L220.366 47.8485L220.841 49.838ZM216.001 61.7799C216.263 60.6359 216.488 59.6295 216.738 58.5579L213.895 59.2376C214.591 60.0733 215.245 60.8594 216.001 61.7799Z" fill="#ED1100"/>
</g>
<g opacity="0.5" clip-path="url(#clip11_1239_1170)">
<path d="M182.224 351.26C184.746 351.999 186.119 353.668 186.337 356.319C186.85 356.397 187.406 356.58 187.571 357.101C187.945 358.301 187.945 359.552 187.571 360.761C187.415 361.273 186.876 361.473 186.311 361.543V362.091C186.311 365.489 186.311 368.888 186.311 372.287C186.311 374.972 184.963 376.798 182.398 377.597C182.346 377.615 182.294 377.65 182.216 377.693C182.946 379.023 183.815 380.223 184.85 381.309C186.571 383.117 188.588 384.464 191.075 384.951C194.318 385.586 197.161 384.638 199.682 382.613C202.134 380.648 203.785 378.093 204.933 375.207C205.455 373.903 205.82 372.53 206.237 371.183C206.411 370.635 206.733 370.366 207.185 370.479C207.611 370.592 207.802 370.974 207.672 371.513C206.724 375.511 205.098 379.171 202.264 382.213C200.203 384.43 197.743 385.994 194.691 386.472C194.083 386.568 193.466 386.611 192.857 386.611C189.406 386.629 185.963 386.568 182.511 386.629C178.86 386.698 175.834 385.334 173.244 382.856C171.792 381.474 170.635 379.875 169.679 378.119C169.54 377.867 169.401 377.745 169.088 377.737C166.367 377.632 164.167 375.407 164.15 372.686C164.124 367.21 164.124 361.734 164.15 356.258C164.167 353.416 166.462 351.19 169.349 351.173C172.948 351.156 176.547 351.173 180.155 351.173C180.46 351.173 180.616 351.077 180.755 350.817C182.311 347.992 184.32 345.593 187.128 343.924C187.163 343.906 187.18 343.863 187.258 343.776C186.971 343.776 186.754 343.776 186.528 343.776C184.65 343.793 182.772 343.733 180.903 343.854C178.564 344.002 176.556 345.054 174.835 346.592C173.991 347.349 173.278 348.244 172.505 349.078C172.418 349.165 172.357 349.278 172.279 349.365C171.966 349.73 171.557 349.791 171.218 349.539C170.887 349.287 170.835 348.861 171.114 348.47C171.992 347.253 172.991 346.158 174.156 345.21C176.591 343.246 179.347 342.246 182.511 342.298C185.789 342.35 189.067 342.359 192.344 342.298C196.083 342.229 199.16 343.663 201.768 346.245C204.663 349.122 206.385 352.651 207.446 356.536C208.167 359.179 208.497 361.873 208.471 364.611C208.437 367.61 205.985 370.166 202.977 370.357C199.917 370.557 197.152 368.375 196.743 365.385C196.604 364.342 196.648 363.264 196.552 362.212C196.126 357.214 194.544 352.668 191.24 348.817C190.753 348.244 190.197 347.731 189.666 347.201C189.258 346.792 189.197 346.366 189.519 346.036C189.823 345.714 190.249 345.74 190.658 346.106C193.631 348.809 195.613 352.147 196.83 355.954C197.717 358.709 198.108 361.552 198.126 364.446C198.134 366.402 199.325 368.045 201.134 368.662C203.898 369.609 206.924 367.619 206.967 364.716C207.037 359.457 205.881 354.494 202.986 350.026C201.516 347.766 199.673 345.888 197.187 344.758C193.561 343.107 190.118 343.576 186.893 345.836C184.946 347.201 183.494 349.026 182.303 351.069C182.277 351.121 182.259 351.182 182.224 351.26ZM184.833 364.481C184.833 361.838 184.833 359.187 184.833 356.545C184.833 354.233 183.259 352.659 180.955 352.659C177.138 352.659 173.322 352.659 169.505 352.659C167.201 352.659 165.628 354.241 165.628 356.545C165.628 361.821 165.628 367.097 165.628 372.373C165.628 374.712 167.193 376.285 169.531 376.285C173.33 376.285 177.13 376.285 180.938 376.285C183.276 376.285 184.841 374.712 184.841 372.373C184.841 369.74 184.841 367.115 184.841 364.481H184.833ZM171.192 377.78C171.235 377.884 171.261 377.954 171.296 378.015C172.148 379.449 173.148 380.779 174.365 381.918C176.652 384.056 179.303 385.255 182.494 385.16C183.937 385.116 185.389 385.16 186.832 385.151C186.963 385.151 187.084 385.134 187.249 385.125C187.189 385.064 187.171 385.029 187.154 385.021C184.337 383.343 182.303 380.935 180.746 378.093C180.616 377.85 180.468 377.754 180.181 377.754C177.321 377.763 174.461 377.754 171.592 377.754C171.47 377.754 171.357 377.763 171.192 377.771V377.78Z" fill="#ED1100"/>
<path d="M197.543 370.478C197.282 371.391 197.048 372.312 196.752 373.216C195.544 376.85 193.64 380.048 190.823 382.682C190.771 382.734 190.71 382.786 190.649 382.839C190.232 383.195 189.814 383.204 189.51 382.856C189.232 382.543 189.301 382.134 189.64 381.752C190.562 380.726 191.553 379.744 192.37 378.64C194.179 376.198 195.3 373.434 195.987 370.487C196.013 370.383 196.03 370.278 196.065 370.174C196.204 369.791 196.482 369.609 196.882 369.661C197.274 369.713 197.508 370.044 197.534 370.478H197.543Z" fill="#ED1100"/>
<path d="M205.515 363.741C205.515 365.367 204.168 366.697 202.542 366.688C200.916 366.679 199.595 365.332 199.612 363.698C199.63 362.09 200.951 360.777 202.568 360.777C204.203 360.777 205.524 362.107 205.524 363.741H205.515ZM204.037 363.741C204.037 362.942 203.377 362.272 202.577 362.255C201.777 362.246 201.099 362.898 201.082 363.698C201.064 364.515 201.742 365.21 202.559 365.202C203.359 365.202 204.029 364.532 204.029 363.733L204.037 363.741Z" fill="#ED1100"/>
</g>
<g opacity="0.5" clip-path="url(#clip12_1239_1170)">
<path d="M349.405 523.284C349.088 525.246 348.492 527.074 347.092 528.56C345.409 530.349 343.307 531.185 340.907 531.332C312.943 533.039 284.993 534.746 257.029 536.453C251.658 536.766 247.879 533.338 247.536 527.968C247.334 524.652 247.671 524.255 251.032 524.05C252.577 523.956 254.122 523.861 255.817 523.758C255.785 523.233 255.76 522.813 255.734 522.393C254.826 507.526 253.917 492.643 253.01 477.776C252.826 474.776 253.634 472.212 255.904 470.176C257.431 468.802 259.305 468.176 261.33 468.052C283.654 466.689 305.976 465.311 328.3 463.963C333.686 463.634 337.433 467.05 337.764 472.465C338.675 487.378 339.584 502.275 340.495 517.187C340.521 517.607 340.546 518.027 340.579 518.567C342.574 518.445 344.468 518.375 346.339 518.201C347.657 518.075 348.601 518.499 349.186 519.698L349.405 523.284ZM260.028 523.426L336.36 518.765L336.295 517.7C335.381 502.727 334.466 487.755 333.552 472.783C333.358 469.602 331.607 468.053 328.427 468.247C306.208 469.604 283.975 470.961 261.756 472.318C261.201 472.352 260.616 472.388 260.1 472.57C258.107 473.218 257.084 474.952 257.23 477.353C258.148 492.385 259.067 507.432 259.985 522.465L260.043 523.425L260.028 523.426ZM251.68 528.257C252 529.051 252.161 529.718 252.495 530.255C253.561 531.937 255.18 532.305 257.069 532.174C284.822 530.465 312.592 528.784 340.346 527.074C340.811 527.046 341.276 527.018 341.737 526.929C343.763 526.565 345.169 524.687 344.993 522.544L343.913 522.61C332.946 523.28 321.98 523.949 311.012 524.604C310.217 524.653 309.627 524.854 309.171 525.53C308.426 526.644 307.35 527.026 306.029 527.092C301.091 527.348 296.155 527.65 291.222 527.996C289.827 528.081 288.652 527.837 287.728 526.764C287.259 526.22 286.693 526.089 285.973 526.133C274.949 526.836 263.906 527.495 252.879 528.169L251.664 528.243L251.68 528.257Z" fill="#ED1100"/>
</g>
<circle opacity="0.5" cx="303.357" cy="392.844" r="9.7546" fill="#ED1100"/>
<circle opacity="0.5" cx="127.774" cy="117.942" r="9.2546" stroke="#ED1100"/>
<circle opacity="0.5" cx="625.259" cy="177.356" r="7.09425" fill="#ED1100"/>
<circle opacity="0.5" cx="264.339" cy="171.148" r="4.43391" fill="#ED1100"/>
<circle opacity="0.5" cx="49.7379" cy="392.844" r="4.43391" fill="#ED1100"/>
<circle opacity="0.5" cx="645.655" cy="387.524" r="4.43391" fill="#ED1100"/>
<circle opacity="0.5" cx="469.186" cy="47.8853" r="6.59425" stroke="#ED1100"/>
<circle opacity="0.5" cx="89.6428" cy="246.525" r="6.59425" stroke="#ED1100"/>
<path opacity="0.5" d="M144.652 479.073C144.855 478.902 145.117 478.819 145.382 478.841L153.348 479.521C153.612 479.543 153.856 479.67 154.027 479.873L159.18 485.986C159.351 486.188 159.434 486.451 159.411 486.715L158.732 494.681C158.71 494.945 158.583 495.19 158.38 495.361L152.267 500.513C152.064 500.684 151.802 500.767 151.538 500.745L143.572 500.066C143.307 500.043 143.063 499.916 142.892 499.714L137.74 493.601C137.569 493.398 137.485 493.135 137.508 492.871L138.187 484.905C138.21 484.641 138.336 484.396 138.539 484.226L144.652 479.073Z" fill="#ED1100"/>
<path opacity="0.5" d="M30.9955 40.8712C31.1983 40.7003 31.4607 40.6169 31.725 40.6394L43.8295 41.6717C44.0938 41.6942 44.3383 41.8208 44.5092 42.0236L52.3385 51.3127C52.5095 51.5155 52.5928 51.7779 52.5703 52.0421L51.5381 64.1467C51.5155 64.4109 51.389 64.6554 51.1862 64.8263L41.8971 72.6557C41.6943 72.8266 41.4319 72.91 41.1676 72.8874L29.0631 71.8552C28.7988 71.8327 28.5543 71.7061 28.3834 71.5033L20.5541 62.2142C20.3831 62.0114 20.2998 61.749 20.3223 61.4848L21.3545 49.3802C21.3771 49.1159 21.5036 48.8714 21.7064 48.7005L30.9955 40.8712Z" fill="#ED1100"/>
<path opacity="0.5" d="M219.696 270.95C219.832 270.723 220.052 270.558 220.309 270.493L225.167 269.263C225.424 269.198 225.696 269.237 225.924 269.373L230.228 271.938C230.456 272.073 230.621 272.294 230.686 272.551L231.916 277.408C231.981 277.665 231.941 277.938 231.806 278.166L229.241 282.47C229.105 282.698 228.885 282.862 228.628 282.928L223.77 284.158C223.513 284.223 223.241 284.183 223.013 284.048L218.709 281.483C218.481 281.347 218.316 281.126 218.251 280.869L217.021 276.012C216.956 275.755 216.996 275.483 217.131 275.255L219.696 270.95Z" fill="#ED1100"/>
<path opacity="0.5" d="M528.296 84.7259C528.432 84.498 528.653 84.3334 528.91 84.2683L533.767 83.0381C534.024 82.973 534.296 83.0127 534.524 83.1484L538.829 85.713C539.056 85.8488 539.221 86.0695 539.286 86.3266L540.516 91.1837C540.582 91.4408 540.542 91.7132 540.406 91.941L537.841 96.2454C537.706 96.4733 537.485 96.6379 537.228 96.703L532.371 97.9332C532.114 97.9983 531.841 97.9586 531.613 97.8229L527.309 95.2583C527.081 95.1226 526.917 94.9019 526.852 94.6448L525.621 89.7876C525.556 89.5305 525.596 89.2581 525.732 89.0303L528.296 84.7259Z" fill="#ED1100"/>
<path opacity="0.5" d="M131.579 4.37545C131.712 4.37335 131.84 4.42401 131.935 4.51628L137.119 9.53874C137.214 9.63101 137.269 9.75733 137.271 9.88993L137.385 17.107C137.388 17.2396 137.337 17.3676 137.245 17.4628L132.222 22.6468C132.13 22.7421 132.004 22.7968 131.871 22.7989L124.654 22.9131C124.521 22.9152 124.393 22.8646 124.298 22.7723L119.114 17.7498C119.019 17.6576 118.964 17.5312 118.962 17.3986L118.848 10.1816C118.846 10.049 118.896 9.92099 118.989 9.82575L124.011 4.64172C124.103 4.54648 124.23 4.4918 124.362 4.4897L131.579 4.37545Z" stroke="#ED1100"/>
<path opacity="0.5" d="M551.106 303.704C551.211 303.624 551.344 303.588 551.476 303.605L556.811 304.304C556.942 304.321 557.062 304.39 557.142 304.495L560.421 308.762C560.502 308.867 560.537 309 560.52 309.131L559.821 314.467C559.804 314.598 559.735 314.717 559.63 314.798L555.363 318.077C555.258 318.157 555.125 318.193 554.994 318.176L549.658 317.477C549.527 317.46 549.408 317.391 549.327 317.286L546.048 313.019L545.654 313.322L546.048 313.019C545.968 312.914 545.932 312.781 545.949 312.649L546.648 307.314C546.665 307.183 546.734 307.063 546.839 306.983L551.106 303.704Z" stroke="#ED1100"/>
<path opacity="0.5" d="M440.691 428.933C440.766 428.823 440.881 428.748 441.012 428.724L446.301 427.737C446.431 427.713 446.566 427.741 446.675 427.816L451.114 430.858C451.223 430.933 451.298 431.049 451.322 431.179L452.31 436.468C452.334 436.599 452.305 436.733 452.23 436.843L449.188 441.281C449.113 441.39 448.998 441.466 448.868 441.49L443.578 442.477C443.448 442.501 443.313 442.473 443.204 442.398L438.765 439.356L438.484 439.766L438.765 439.356C438.656 439.281 438.581 439.165 438.557 439.035L437.569 433.745C437.545 433.615 437.574 433.48 437.649 433.371L440.691 428.933Z" stroke="#ED1100"/>
<g opacity="0.5" clip-path="url(#clip13_1239_1170)">
<path d="M103.231 310.073C103.27 312.939 101.841 315.191 100.15 317.283C96.3358 321.967 92.004 326.094 86.7048 329.114C85.4373 329.846 84.0846 330.446 82.738 330.978C67.7814 336.883 52.8702 342.903 37.8571 348.666C32.7057 350.633 27.2565 351.427 21.7237 350.5C20.4147 350.288 19.1239 349.871 17.8964 349.362C15.2302 348.23 13.8226 345.839 14.036 342.941C14.1755 341.197 14.2465 339.447 14.4946 337.727C14.9847 334.355 14.3416 331.133 13.3894 327.966C12.7018 325.721 11.7624 323.51 10.9888 321.299C10.6669 320.4 10.3909 319.449 10.2809 318.499C9.97781 315.97 11.706 314.559 14.0351 315.593C15.5137 316.234 16.7615 317.298 18.1708 318.099C19.3289 318.767 20.435 319.556 21.6972 319.984C29.0079 322.395 34.1119 317.036 35.0161 311.944C31.9149 309.626 30.459 306.526 30.9401 302.628C31.0947 301.342 31.7002 300.275 32.7505 299.496C34.2887 298.359 35.9596 298.229 37.6893 299.003C39.339 299.742 40.9714 300.521 42.6038 301.3C45.6515 302.812 48.8959 303.815 52.2625 304.373C60.6018 305.782 68.9651 306.916 77.4062 306.067C81.704 305.628 85.9468 304.714 90.1889 303.966C92.576 303.553 94.9504 303.444 97.2863 304.243C99.5422 305.008 101.194 306.507 102.553 308.355L103.243 310.102L103.231 310.073ZM53.3738 307.775C52.0536 307.535 50.8419 307.318 49.6016 307.112C49.2525 308.409 48.9267 309.597 48.5723 310.797C48.2232 312.093 47.4827 312.65 46.4716 312.354C45.5005 312.076 45.1725 311.245 45.5043 309.988C45.8474 308.76 46.1618 307.544 46.5223 306.276C46.3511 306.178 46.2199 306.097 46.0714 306.056C43.3419 305.015 40.7006 305.959 39.4987 308.618C38.817 310.079 38.495 311.696 38.0132 313.244C36.7471 317.419 34.5574 320.932 30.4194 322.699C25.4792 324.782 20.7923 323.983 16.4591 320.894C15.5867 320.278 14.7031 319.634 13.8307 319.018L13.5954 319.177C13.8156 319.818 13.9958 320.443 14.2446 321.073C16.0413 325.959 18.1758 330.777 17.859 336.266C19.0714 336.317 20.2378 336.419 21.4103 336.453C26.1975 336.583 31.0035 336.34 35.4453 334.421C38.248 333.215 40.921 331.597 43.5027 329.915C48.121 326.933 52.9603 324.426 58.3876 323.409C63.3399 322.447 68.3201 321.639 73.3222 321.055C80.4762 320.217 87.064 318.112 92.7703 313.608C94.7451 312.067 96.5321 310.302 98.0688 308.238C96.1469 306.977 94.1187 306.454 91.9486 306.913C85.1581 308.336 78.3336 309.674 71.3326 309.557C71.0981 309.551 70.7076 309.903 70.6148 310.172C70.3192 311.017 70.1036 311.897 69.8592 312.788C69.5161 314.016 68.7757 314.573 67.8046 314.294C66.8447 314.044 66.4368 313.179 66.7513 311.962C66.9609 311.151 67.1992 310.329 67.4148 309.449C66.0539 309.357 64.8015 309.289 63.5378 309.192C63.2354 310.271 62.979 311.3 62.6827 312.311C62.3629 313.43 61.6285 313.919 60.7087 313.686C59.7488 313.436 59.3236 312.61 59.6033 311.474C59.8303 310.622 60.0573 309.771 60.3189 308.84C58.964 308.68 57.7463 308.532 56.4886 308.366C56.1516 309.526 55.8891 310.623 55.5468 311.685C55.2097 312.844 54.4354 313.315 53.4929 313.025C52.5903 312.753 52.2051 311.945 52.4961 310.837C52.7465 309.877 53.0255 308.906 53.3279 307.826L53.3738 307.775ZM17.5068 339.484C17.3982 340.719 17.2722 341.994 17.1749 343.257C17.0821 344.784 17.7004 345.93 19.1224 346.428C20.5158 346.938 21.9839 347.384 23.4361 347.539C28.0671 348.028 32.6123 347.293 36.9214 345.625C51.3675 340.02 65.7457 334.244 80.1518 328.622C84.1631 327.038 87.845 324.955 91.0442 322.07C93.6577 319.714 96.2711 317.358 98.2466 314.392C98.834 313.531 99.2676 312.532 99.7638 311.608L99.5413 311.464C99.5413 311.464 99.3174 311.652 99.2367 311.783C93.2686 318.477 85.7293 322.281 76.9655 323.656C72.7295 324.335 68.449 324.734 64.1904 325.356C57.7165 326.323 51.6098 328.304 46.1017 331.968C43.5773 333.627 41.0129 335.269 38.3241 336.595C34.0126 338.761 29.3077 339.427 24.5537 339.549C22.2253 339.608 19.8977 339.5 17.4955 339.456L17.5068 339.484ZM39.8479 303.547C38.5178 302.947 37.3537 302.347 36.1661 301.856C35.3382 301.52 34.4726 301.928 34.1544 302.716C33.4833 304.372 34.4816 307.487 36.0099 308.506C36.7112 306.507 37.9312 304.9 39.8479 303.547Z" fill="#ED1100"/>
</g>
<g opacity="0.5" clip-path="url(#clip14_1239_1170)">
<path d="M724.637 497.553C725.262 496.374 725.851 495.326 726.369 494.23C726.751 493.434 727.035 492.584 727.39 491.782C727.534 491.455 727.485 491.218 727.253 490.931C725.484 488.634 723.729 486.283 721.933 483.979C721.541 483.453 721.373 482.93 721.377 482.286C721.202 473.514 717.261 467.07 709.419 463.145C699.894 458.377 687.727 462.215 682.475 471.554C682.048 472.309 681.494 472.806 680.699 473.154C678.091 474.195 675.496 475.295 672.927 476.403C672.708 476.484 672.441 476.75 672.418 476.94C672.239 478.968 672.087 481.004 671.927 483.065C671.899 483.17 671.956 483.269 672.007 483.395C672.18 483.273 672.313 483.196 672.479 483.101C674.379 481.87 676.422 481.576 678.602 482.132C680.775 482.714 682.922 483.289 685.094 483.872C686.403 484.222 686.806 484.919 686.455 486.228C684.8 492.406 683.151 498.558 681.496 504.736C681.145 506.045 680.481 506.428 679.198 506.085C677.026 505.503 674.827 504.913 672.654 504.331C668.57 503.237 666.283 499.313 667.332 495.189C667.916 492.905 668.545 490.66 669.155 488.383C669.275 487.938 669.289 487.465 669.237 487.03C666.526 469.609 678.614 453.292 696.024 450.83C715.648 448.064 732.958 463.673 732.138 483.486C731.864 490.371 729.52 496.505 725.26 501.929C724.965 502.299 724.734 502.742 724.608 503.213C723.999 505.379 723.436 507.585 722.854 509.758C721.676 514.156 717.766 516.391 713.368 515.212C711.274 514.651 709.153 514.083 707.059 513.522C705.776 513.178 705.393 512.514 705.744 511.205C707.399 505.027 709.048 498.876 710.703 492.698C711.061 491.362 711.725 490.979 713.06 491.337C715.232 491.919 717.379 492.494 719.552 493.076C721.751 493.666 723.392 494.975 724.409 497.043C724.486 497.176 724.536 497.302 724.689 497.567L724.637 497.553ZM673.64 472.694C675.507 471.903 677.334 471.158 679.142 470.38C679.46 470.241 679.76 469.957 679.949 469.671C686.232 459.205 699.603 454.96 710.558 460.252C719.453 464.543 724.038 471.832 724.509 481.695C724.518 481.978 724.624 482.315 724.784 482.554C725.896 484.058 727.041 485.544 728.18 487.055C728.263 487.162 728.38 487.249 728.497 487.337C731.275 473.828 723.016 457.95 706.622 454.315C690.576 450.745 677.245 461.23 673.64 472.694ZM683.103 486.593C682.972 486.558 682.933 486.491 682.855 486.47C681.153 486.014 679.426 485.551 677.724 485.095C675.316 484.45 673.051 485.779 672.373 488.207C671.686 490.772 670.991 493.364 670.304 495.929C669.658 498.338 671.007 500.635 673.408 501.307C675.031 501.742 676.68 502.183 678.304 502.618C678.461 502.66 678.625 502.676 678.789 502.692L683.103 486.593ZM709.044 510.827C710.902 511.325 712.682 511.802 714.489 512.286C716.819 512.91 719.116 511.562 719.766 509.239C720.468 506.621 721.169 504.003 721.864 501.412C722.502 499.03 721.147 496.758 718.771 496.094C717.148 495.659 715.499 495.217 713.876 494.782C713.719 494.74 713.555 494.724 713.365 494.701L709.037 510.853L709.044 510.827Z" fill="#ED1100"/>
</g>
<defs>
<clipPath id="clip0_1239_1170">
<rect width="47.8862" height="72.7161" fill="white" transform="translate(52.2776 440.534) rotate(-9.08606)"/>
</clipPath>
<clipPath id="clip1_1239_1170">
<rect width="79.6862" height="69.0803" fill="white" transform="translate(596.282 48.5498)"/>
</clipPath>
<clipPath id="clip2_1239_1170">
<rect width="37.2448" height="53.2069" fill="white" transform="translate(622.138 242.979) rotate(30.5318)"/>
</clipPath>
<clipPath id="clip3_1239_1170">
<rect width="37.2448" height="53.2069" fill="white" transform="translate(71.3027 181.515) rotate(138.145)"/>
</clipPath>
<clipPath id="clip4_1239_1170">
<rect width="46.2385" height="33.4139" fill="white" transform="translate(144.623 202.249) rotate(-30)"/>
</clipPath>
<clipPath id="clip5_1239_1170">
<rect width="67.3954" height="60.3012" fill="white" transform="translate(462.091 164.595) rotate(-7.26395)"/>
</clipPath>
<clipPath id="clip6_1239_1170">
<rect width="31.8337" height="57.6038" fill="white" transform="translate(302.049 235.885) rotate(10.2193)"/>
</clipPath>
<clipPath id="clip7_1239_1170">
<rect width="56.754" height="76.2632" fill="white" transform="translate(499.685 420.335) rotate(8.28555)"/>
</clipPath>
<clipPath id="clip8_1239_1170">
<rect width="67.3954" height="78.0368" fill="white" transform="translate(402.359 286.832) rotate(0.830702)"/>
</clipPath>
<clipPath id="clip9_1239_1170">
<rect width="71.729" height="71.729" fill="white" transform="translate(318.433 94.8779) rotate(-8.91966)"/>
</clipPath>
<clipPath id="clip10_1239_1170">
<rect width="63.8483" height="63.8483" fill="white" transform="translate(178.321 41.4531) rotate(-13.4483)"/>
</clipPath>
<clipPath id="clip11_1239_1170">
<rect width="44.3391" height="44.3391" fill="white" transform="translate(164.132 342.298)"/>
</clipPath>
<clipPath id="clip12_1239_1170">
<rect width="101.965" height="68.0116" fill="white" transform="translate(243.943 469.114) rotate(-3.49417)"/>
</clipPath>
<clipPath id="clip13_1239_1170">
<rect width="95.7724" height="47.8862" fill="white" transform="translate(0.9646 311.848) rotate(-21.546)"/>
</clipPath>
<clipPath id="clip14_1239_1170">
<rect width="63.3636" height="60.2469" fill="white" transform="translate(678.097 443.39) rotate(15)"/>
</clipPath>
</defs>
</svg>
