<svg width="169" height="79" viewBox="0 0 169 79" fill="none" xmlns="http://www.w3.org/2000/svg">
<path fill-rule="evenodd" clip-rule="evenodd" d="M136.094 59.0777C133.628 57.3617 130.424 56.3798 126.477 56.3798C122.779 56.3798 119.575 57.3617 116.865 59.0777C114.151 61.2811 112.672 63.9808 112.672 67.4111C112.672 70.8432 114.151 73.2943 116.865 75.4994C119.575 77.2155 122.78 78.1973 126.477 78.1973C130.424 78.1973 133.628 77.2155 136.094 75.4994C139.052 73.2943 140.285 70.8432 140.285 67.4111C140.284 63.9808 139.052 61.2811 136.094 59.0777ZM126.476 62.508C128.204 62.508 129.436 62.9989 130.669 63.7331C131.656 64.715 132.395 65.6933 132.395 66.9202C132.639 70.3522 130.669 72.0683 126.476 72.0683C124.75 72.0683 123.272 71.5773 122.04 70.5954C121.052 69.6154 120.56 68.3903 120.56 66.9193C120.805 65.6924 121.301 64.7141 122.285 63.7322C123.518 62.9989 124.75 62.508 126.476 62.508ZM167.896 57.114H159.021L150.393 65.2059V50.4985H142.256V77.7064H150.393V66.6751L158.527 77.7064H168.884L158.282 65.9401L167.896 57.114ZM69.0327 56.8708C64.8406 56.8708 61.637 57.8526 59.1708 59.5651C56.7055 61.5288 55.4725 63.9808 55.226 67.4111C55.226 74.0284 59.9101 77.4623 69.5265 77.7064H81.6073V72.0692H70.0185C66.8139 71.8223 64.5951 71.0873 63.8549 69.6172C62.8691 68.1462 62.8691 66.676 63.6084 65.2068C64.5951 63.4908 66.5666 62.5089 69.0327 62.5089H73.9633L68.539 69.6172H76.1821L81.6064 62.7548V56.8717L69.0327 56.8708ZM92.4541 50.4985H84.0717V77.4623H99.3561C102.81 77.4623 105.52 76.4804 107.493 74.5193C109.713 72.8033 110.698 70.3522 110.945 67.4111C110.945 61.5279 108.481 58.34 103.549 57.3617L96.6471 57.1149L92.9479 62.5089H96.1533C101.085 62.5089 103.303 63.9817 103.303 67.412C103.056 70.3531 100.838 72.0692 96.6471 72.0692H92.4541V50.4985ZM0 50.4985V77.4623H8.38243V56.6248H16.272C17.997 57.114 19.2301 58.0959 18.9846 60.0551C18.9846 61.2802 18.4908 62.2621 17.5051 62.5071L9.61551 63.2413L18.2444 77.7046H28.3528L19.9703 66.4301C25.1482 66.1833 27.6135 63.489 27.1197 58.5859C27.1197 55.888 25.8866 53.9269 23.6687 52.4577C21.6954 51.2326 19.2301 50.4976 16.272 50.4976L0 50.4985Z" fill="white"/>
<path fill-rule="evenodd" clip-rule="evenodd" d="M41.4193 56.8706C37.2281 56.8706 34.0235 57.8525 31.5574 59.5649C29.0921 61.2809 27.859 63.9806 27.859 67.1659C27.6135 74.0282 32.2976 77.463 41.6658 77.463H53.993V72.069H42.4069C39.2005 71.8222 36.9826 71.0871 36.2433 69.617C35.2566 68.146 35.2566 66.6759 35.9968 65.2066C36.9826 63.4906 38.9541 62.5087 41.4202 62.5087H46.3507L40.9274 69.617H48.5705L53.9939 62.5087V56.8715L41.4193 56.8706ZM85.3048 7.35418L98.124 15.1984L118.586 7.6001C125.492 5.39402 134.367 2.94203 144.968 0C118.835 2.20697 99.1115 4.41215 85.3048 7.35418ZM75.4437 15.6893L64.1023 12.7473C57.6922 14.4642 51.5286 17.1595 45.8588 20.5924C40.1871 24.0227 35.7504 27.9466 32.7914 32.1137H52.0224C53.5019 29.9068 55.9672 27.4548 59.1717 25.0037C63.8549 21.0825 69.2801 18.1404 75.4437 15.6893ZM89.004 20.3456L79.3885 17.1586C77.1688 18.1404 74.458 19.3655 71.2516 21.5707C66.814 24.5127 62.8692 28.1898 59.4182 32.1137H77.4152C79.8805 28.1898 83.8253 24.2686 89.004 20.3456ZM67.0613 0H28.6001L67.0604 10.2962C84.0717 15.4425 99.8499 21.3275 114.399 27.4548L67.0613 0Z" fill="white"/>
</svg>
