<?xml version="1.0" encoding="utf-8"?>
<!-- Generator: Adobe Illustrator 28.2.0, SVG Export Plug-In . SVG Version: 6.00 Build 0)  -->
<svg version="1.1" id="Layer_1" xmlns="http://www.w3.org/2000/svg" xmlns:xlink="http://www.w3.org/1999/xlink" x="0px" y="0px"
	 viewBox="0 0 173 48" style="enable-background:new 0 0 173 48;" xml:space="preserve">
<style type="text/css">
	.st0{clip-path:url(#SVGID_00000111187276149287257720000012444325514175623820_);}
	.st1{fill:#FFFFFF;}
</style>
<g>
	<defs>
		<rect id="SVGID_1_" width="173" height="48"/>
	</defs>
	<clipPath id="SVGID_00000007423651618377828870000009963239921807864762_">
		<use xlink:href="#SVGID_1_"  style="overflow:visible;"/>
	</clipPath>
	<g style="clip-path:url(#SVGID_00000007423651618377828870000009963239921807864762_);">
		<path class="st1" d="M167.2,11.9c-1.5-1.7-4.2-1.9-5.9-0.5c-0.4,0.3-0.8,0.8-1,1.3s-0.4,1-0.5,1.5c0,0.5,0,1.1,0.2,1.6
			c0.2,0.5,0.4,1,0.8,1.4c2.2,2.5,3.4,5.6,3.4,8.8c0,7.6-6.4,13.7-14.2,13.7c-1.9,0-3.7-0.3-5.4-1c-1.7-0.7-3.3-1.7-4.6-3
			c-2.7-2.6-4.2-6-4.2-9.7c0-1.8,0.4-3.6,1.1-5.2c0.7-1.7,1.8-3.2,3.1-4.4c1.3-1.3,2.9-2.3,4.6-3c1.7-0.7,3.6-1,5.4-1
			c1.4,0,2.8,0.2,4.2,0.5c2.2,0.7,4.6-0.5,5.3-2.7c0.2-0.5,0.2-1.1,0.2-1.6c-0.1-0.5-0.2-1.1-0.5-1.5c-0.3-0.5-0.6-0.9-1-1.2
			c-0.4-0.3-0.9-0.6-1.5-0.8c-2.1-0.6-4.4-1-6.6-1c-12.5,0-22.7,9.8-22.7,21.9c0,5.9,2.3,11.4,6.6,15.5c4.3,4.2,10,6.4,16.1,6.5
			c6.1,0,11.8-2.3,16.1-6.5c4.3-4.1,6.6-9.6,6.6-15.5C172.6,20.8,170.6,15.8,167.2,11.9z"/>
		<path class="st1" d="M125.5,31.8c-2-1.2-4.6-0.6-5.8,1.4c-2.6,4.1-7.1,6.6-12.1,6.6c-3.8,0-7.4-1.4-10-4c-2.7-2.6-4.1-6-4.2-9.7
			c0-1.8,0.4-3.6,1.1-5.2c0.7-1.7,1.8-3.2,3.1-4.4c2.7-2.6,6.3-4,10-4c4.7,0,9.1,2.2,11.8,6c0.3,0.4,0.7,0.8,1.2,1.1
			c0.5,0.3,1,0.5,1.5,0.6c0.5,0.1,1.1,0.1,1.7,0c0.5-0.1,1.1-0.3,1.5-0.6c1.9-1.2,2.4-3.8,1.1-5.7c-2.1-3-4.9-5.4-8.2-7.1
			c-3.3-1.7-6.9-2.6-10.6-2.6C95,4.1,84.8,14,84.8,26c0,5.9,2.3,11.4,6.6,15.5c4.3,4.2,10,6.4,16.1,6.5c8,0,15.2-3.9,19.4-10.5
			C128.1,35.5,127.5,33,125.5,31.8z"/>
		<path class="st1" d="M82.9,31.8c-0.5-0.3-1-0.5-1.6-0.6c-0.6-0.1-1.1-0.1-1.7,0.1c-0.5,0.1-1.1,0.4-1.5,0.7
			c-0.5,0.3-0.8,0.7-1.1,1.2c-2.6,4.1-7.1,6.6-12.1,6.6c-3.8,0-7.4-1.4-10-4c-2.7-2.6-4.2-6-4.2-9.7c0-1.8,0.3-3.6,1.1-5.2
			c0.7-1.7,1.8-3.2,3.1-4.4c2.7-2.6,6.2-4,10-4c2.3,0,4.6,0.5,6.6,1.6c2,1.1,3.8,2.6,5.1,4.4c1.3,1.9,4,2.4,5.9,1.1
			c2-1.2,2.5-3.8,1.2-5.7c-2.1-3-4.9-5.4-8.2-7.1s-6.9-2.6-10.6-2.6C52.4,4.1,42.2,14,42.2,26c0,5.9,2.4,11.4,6.7,15.5
			c4.3,4.2,10,6.4,16.1,6.5c8,0,15.2-3.9,19.4-10.5C85.5,35.5,84.8,33,82.9,31.8z"/>
		<path class="st1" d="M168.3,0c-2.5,0-4.6,1.9-4.7,4.4c0,2.6,2.2,4.4,4.7,4.4c2.5,0,4.6-1.9,4.7-4.4C173,1.9,170.9,0,168.3,0z
			 M169.7,7l-1.4-2.2h-0.9V7h-0.8V1.8h2c1.2,0,1.8,0.5,1.9,1.5c0,0.9-0.6,1.3-1.4,1.4l1.5,2.2H169.7z M169.6,3.3
			c0-0.6-0.6-0.7-1.2-0.8h-1.1v1.6h1C169,4.1,169.6,4,169.6,3.3z M40.6,31.8c-2-1.2-4.6-0.6-5.8,1.3c-2.6,4.1-7.1,6.6-12.1,6.6
			c-2.4,0-4.7-0.5-6.8-1.6L38.8,19c1.7-1.4,2-3.9,0.6-5.6c-2.2-2.9-5.2-5.2-8.5-6.7c-3.4-1.5-7.1-2.2-10.8-2
			c-2.6,0.2-5.1,0.7-7.4,1.6c-2.2,0.9-3.2,3.2-2.3,5.3c0.2,0.5,0.5,1,0.9,1.4c0.4,0.4,0.8,0.7,1.4,0.9c0.5,0.2,1.1,0.3,1.6,0.3
			c0.6,0,1.1-0.1,1.6-0.3c1.5-0.6,3-0.9,4.6-1c3.4-0.1,6.6,0.9,9.3,2.8L10,32.2c-1-1.9-1.5-4-1.5-6.2c0-2.5,0.7-5,2.1-7.1
			c1.2-1.9,0.6-4.5-1.4-5.6c-2-1.2-4.6-0.6-5.8,1.4C1.1,18.1,0,22,0,26c0,5.9,2.3,11.4,6.6,15.5c4.3,4.2,10,6.4,16.1,6.5
			c8,0,15.2-4,19.4-10.5C43.3,35.5,42.7,33,40.6,31.8z"/>
		<path class="st1" d="M168.3,4.1h-1V2.5h1.1c0.6,0,1.2,0.1,1.2,0.8C169.6,4,169,4.1,168.3,4.1z"/>
		<path class="st1" d="M168.3,0.7c-2.1,0-3.7,1.6-3.7,3.7c0,2.1,1.6,3.7,3.7,3.7c2.1,0,3.7-1.5,3.7-3.7
			C172.1,2.3,170.4,0.7,168.3,0.7z M169.7,7l-1.4-2.2h-0.9V7h-0.8V1.8h2c1.2,0,1.8,0.5,1.9,1.5c0,0.9-0.6,1.3-1.4,1.4l1.5,2.2H169.7
			z"/>
		<path d="M169.6,3.3c0,0.8-0.6,0.8-1.3,0.9h-1V2.5h1.1C169,2.5,169.6,2.6,169.6,3.3z"/>
		<path class="st1" d="M169.6,3.3c0,0.8-0.6,0.8-1.3,0.9h-1V2.5h1.1C169,2.5,169.6,2.6,169.6,3.3z"/>
	</g>
</g>
</svg>
