<?xml version="1.0" encoding="utf-8"?>
<!-- Generator: Adobe Illustrator 28.2.0, SVG Export Plug-In . SVG Version: 6.00 Build 0)  -->
<svg version="1.1" id="Layer_1" xmlns="http://www.w3.org/2000/svg" xmlns:xlink="http://www.w3.org/1999/xlink" x="0px" y="0px"
	 viewBox="0 0 144 97" style="enable-background:new 0 0 144 97;" xml:space="preserve">
<style type="text/css">
	.st0{fill:#FFFFFF;}
</style>
<path class="st0" d="M71.6,81.3c0-3.5,2.8-6.4,6.4-6.4c3.5,0,6.4,2.8,6.4,6.4c0,0.8-0.2,1.7-0.5,2.4c-0.3,0.8-0.8,1.5-1.4,2.1
	c-0.6,0.6-1.3,1.1-2.1,1.4c-0.8,0.3-1.6,0.5-2.4,0.5c-0.8,0-1.7-0.2-2.4-0.5c-0.8-0.3-1.5-0.8-2.1-1.4c-0.6-0.6-1.1-1.3-1.4-2.1
	C71.8,82.9,71.6,82.1,71.6,81.3z M97.6,81.3c0-3.6,2.8-6.4,6.4-6.4s6.4,2.8,6.4,6.4c0,3.5-2.8,6.4-6.4,6.4c-0.8,0-1.7-0.2-2.4-0.5
	c-0.8-0.3-1.5-0.8-2.1-1.4c-0.6-0.6-1.1-1.3-1.4-2.1C97.7,82.9,97.6,82.1,97.6,81.3z M37.5,81.3c0-3.6,2.8-6.4,6.4-6.4
	c3.5,0,6.4,2.8,6.4,6.4c0,3.5-2.8,6.4-6.4,6.4c-0.8,0-1.7-0.2-2.4-0.5c-0.8-0.3-1.5-0.8-2.1-1.4c-0.6-0.6-1.1-1.3-1.4-2.1
	C37.7,82.9,37.5,82.1,37.5,81.3z M11.6,81.3c0-3.6,2.8-6.4,6.4-6.4s6.4,2.8,6.4,6.4c0,0.8-0.2,1.7-0.5,2.4c-0.3,0.8-0.8,1.5-1.4,2.1
	c-0.6,0.6-1.3,1.1-2.1,1.4c-0.8,0.3-1.6,0.5-2.4,0.5c-0.8,0-1.7-0.2-2.4-0.5c-0.8-0.3-1.5-0.8-2.1-1.4c-0.6-0.6-1.1-1.3-1.4-2.1
	C11.8,82.9,11.6,82.1,11.6,81.3z M64,70h-5.5v22.4H64V70z M24.3,92.3h5.5V70h-5.5v1.8c-1.9-1.3-4.2-2.1-6.6-2.1
	c-6.4,0-11.5,5.2-11.5,11.6c0,6.4,5.1,11.6,11.5,11.6c2.4,0,4.7-0.7,6.6-2.1V92.3z M110.2,92.3h5.5V70h-5.5v1.8
	c-1.9-1.3-4.2-2.1-6.6-2.1c-6.4,0-11.5,5.2-11.5,11.6c0,1.5,0.3,3,0.9,4.4c0.6,1.4,1.4,2.7,2.5,3.8c1.1,1.1,2.3,1.9,3.7,2.5
	c1.4,0.6,2.9,0.9,4.4,0.9c2.4,0,4.7-0.7,6.6-2.1V92.3z M117.8,85.1c0.2,4.5,4,7.7,10.4,7.7c5.2,0,9.6-2.3,9.6-7.3
	c0-3.5-2-5.6-6.5-6.4l-3.5-0.7c-2.3-0.4-3.8-0.9-3.8-2.2c0-1.5,1.5-2.1,3.4-2.1c2.8,0,3.9,1.4,4,3.1h5.6c-0.3-4.4-3.8-7.3-9.4-7.3
	c-5.8,0-9.2,3.2-9.2,7.4c0,5.1,4.1,5.9,7.6,6.6l2.9,0.5c2.1,0.4,3,1,3,2.2c0,1.1-1,2.2-3.5,2.2c-3.6,0-4.8-1.9-4.8-3.5H117.8z
	 M50.2,62.4v9.4c-1.9-1.3-4.2-2.1-6.6-2.1c-6.4,0-11.5,5.2-11.5,11.6c0,6.4,5.1,11.6,11.5,11.6c2.4,0,4.7-0.7,6.6-2.1v1.6h5.5v-30
	H50.2z M84.3,62.4v9.4c-1.9-1.3-4.2-2.1-6.6-2.1c-6.4,0-11.5,5.2-11.5,11.6c0,1.5,0.3,3,0.9,4.4c0.6,1.4,1.4,2.7,2.5,3.8
	c1.1,1.1,2.3,1.9,3.7,2.5c1.4,0.6,2.9,0.9,4.4,0.9c2.4,0,4.7-0.7,6.6-2.1v1.6h5.5v-30H84.3z M20.6,55.8l3.8,6.6h25.9L39.9,44.6
	L20.6,55.8L20.6,55.8z M64,67.9v-5.6h20.4L62.6,24.6L43.2,35.8l15.2,26.6v5.6H64z M92.6,62.4h25.9L85,4.2L65.6,15.4L92.6,62.4z"/>
</svg>
