<svg width="173" height="27" viewBox="0 0 173 27" fill="none" xmlns="http://www.w3.org/2000/svg">
<path d="M142.844 0.821752L143.185 20.2248H143.017L137.384 0.821752H128.15V25.2634H134.259L133.918 5.1846H134.086L140.114 25.2634H148.953V0.821752H142.844ZM26.442 0.821752L21.825 25.5175H28.4963L31.9023 3.04913H32.0428L35.3677 25.5175H41.9849L37.4221 0.821752H26.442ZM63.7775 0.821752L60.7338 19.6571H60.5662L57.4955 0.821752H47.4128L46.9317 25.5175H53.1272L53.2948 3.30322H53.3489L57.4901 25.5175H63.7667L67.9079 3.30322H68.0755L68.2431 25.5175H74.4387L73.8494 0.821752H63.7775ZM11.4018 18.5056C11.6559 19.0678 11.5694 19.9112 11.4883 20.3059C11.3207 21.1493 10.726 21.9656 9.09331 21.9656C7.51469 21.9656 6.61725 21.0628 6.61725 19.7436V17.3487H0V19.2354C0 24.7823 4.36284 26.4149 9.01222 26.4149C13.4616 26.4149 17.1757 24.8688 17.7703 20.8141C18.1109 18.6732 17.8568 17.2676 17.7703 16.7594C16.6134 11.5478 7.18491 10.0881 6.53616 7.18491C6.44966 6.67672 6.44966 6.20097 6.53616 5.86038C6.70375 5.04403 7.266 4.20066 8.75813 4.20066C10.2502 4.20066 11.0666 5.1035 11.0666 6.42263V7.91475H17.2622V6.19556C17.2622 0.816343 12.3911 0 8.92572 0C4.53044 0 0.902844 1.46509 0.254094 5.43328C0.0865 6.50372 0 7.51469 0.340594 8.75812C1.32453 13.8562 10.1692 15.3483 11.4072 18.5002L11.4018 18.5056ZM91.7927 18.5056C92.0468 19.0678 91.9603 19.8301 91.8792 20.3059C91.7116 21.1493 91.1169 21.9656 89.4843 21.9656C87.9056 21.9656 87.0082 21.0628 87.0082 19.7436V17.3487H80.3909V19.2354C80.3909 24.6958 84.6727 26.3609 89.3167 26.3609C93.766 26.3609 97.399 24.8687 97.9883 20.7276C98.3289 18.5867 98.0748 17.2622 97.9883 16.6729C97.0043 11.5477 87.6569 10.0016 87.0082 7.18491C86.9217 6.67672 86.9217 6.20097 87.0082 5.86038C87.1487 5.04403 87.738 4.20066 89.2302 4.20066C90.6358 4.20066 91.5386 5.1035 91.5386 6.42263V7.91475H97.6477V6.19556C97.6477 0.816343 92.8632 0 89.3977 0C85.0025 0 81.456 1.37859 80.8072 5.43328C80.6396 6.50372 80.6396 7.51469 80.8613 8.75812C81.8777 13.8562 90.5493 15.2618 91.7873 18.5002L91.7927 18.5056ZM112.601 21.8034C114.348 21.8034 114.823 20.6465 114.996 20.0031C115.083 19.749 115.083 19.3273 115.083 19.0732V0.827156H121.359V18.5921C121.359 19.0733 121.359 19.9977 121.273 20.2248C120.878 24.8688 117.218 26.3609 112.682 26.3609C108.147 26.3609 104.519 24.8688 104.092 20.2248C104.092 19.9977 104.005 19.0678 104.005 18.5921V0.827156H110.282V19.0732C110.282 19.4138 110.282 19.749 110.369 20.0031C110.369 20.6519 110.877 21.8034 112.591 21.8034H112.601ZM164.161 21.5493C165.993 21.5493 166.556 20.3924 166.723 19.749C166.81 19.4949 166.81 19.0733 166.81 18.8462V15.2727H164.247V11.6397H173.005V18.2569C173.005 18.7651 173.005 19.0733 172.919 19.9166C172.497 24.4525 168.61 26.0257 164.247 26.0257C159.852 26.0257 155.997 24.4471 155.576 19.9166C155.489 19.0733 155.489 18.7597 155.489 18.2569V7.83906C155.489 7.44441 155.576 6.60104 155.576 6.20638C156.138 1.56241 159.857 0.0702839 164.247 0.0702839C168.61 0.0702839 172.411 1.56241 172.919 6.20638C173.005 6.93622 173.005 7.83906 173.005 7.83906V8.68244H166.81V7.27682C166.81 7.27682 166.81 6.68753 166.723 6.34694C166.637 5.78469 166.134 4.54666 164.247 4.54666C162.415 4.54666 161.939 5.70359 161.771 6.34694C161.685 6.68753 161.685 7.10922 161.685 7.53091V18.8516C161.685 19.1597 161.685 19.5003 161.771 19.7544C161.771 20.4032 162.42 21.5547 164.166 21.5547L164.161 21.5493Z" fill="white"/>
</svg>
