<svg width="174" height="24" viewBox="0 0 174 24" fill="none" xmlns="http://www.w3.org/2000/svg">
<path d="M37.9174 0H23.9641C21.5273 0 19.5515 1.96244 19.5515 4.38312V19.3582C19.5515 21.7784 21.5273 23.7408 23.9641 23.7408H37.9174C40.3545 23.7408 42.33 21.7784 42.33 19.3582V4.38312C42.33 1.96244 40.3543 0 37.9174 0ZM35.5883 13.7982L38.7548 23.0816L31.196 17.2476L23.8927 23.0307L26.8039 14.0011L20.0622 8.92821H28.4382L31.0938 0.659481L33.9028 8.92821H41.7679L35.5883 13.7982ZM92.1416 23.8014C89.2982 23.8014 86.993 21.5119 86.993 18.6878V5.59613C86.993 2.772 89.2982 0.482488 92.1416 0.482488H104.87V6.7558H93.7857V9.00506H104.87V15.2789H93.7857V17.5281H104.87V23.8019L92.1416 23.8014ZM63.7451 5.59613C63.7451 2.772 61.4402 0.482488 58.5968 0.482488H44.5577V23.8019H51.3511V6.75556H56.9525V23.8019H63.7456L63.7451 5.59613ZM5.14832 23.8019C2.30519 23.8019 0 21.5127 0 18.6883V5.5954C0 2.77127 2.30519 0.481518 5.14832 0.481518H17.6387V6.75556H6.79339V17.5281H17.639V23.8019H5.14832ZM63.4515 0.481518H70.4834L75.1313 14.687L79.8985 0.481518H86.9301L79.0643 23.8019H71.1984L63.4515 0.481518ZM142.574 23.8014C145.417 23.8014 147.722 21.5119 147.722 18.6878V14.119C147.722 11.2951 145.417 9.00555 142.574 9.00555L135.447 9.00506V6.7558H146.889V0.482245H133.803C130.96 0.482245 128.655 2.77176 128.655 5.59589V10.1642C128.655 12.9884 130.96 15.2781 133.803 15.2781H141.049V17.5279H128.654V23.8019L142.574 23.8014ZM167.628 23.8019L154.9 23.8014C152.057 23.8014 149.752 21.5119 149.752 18.6878V5.59613C149.752 2.772 152.057 0.482488 154.9 0.482488H167.628V6.7558H156.545V9.00506H167.628V15.2789H156.545V17.5281H167.628V23.8019ZM122.94 14.9489C124.884 14.2181 126.267 12.3514 126.267 10.1645V5.59613C126.267 2.772 123.961 0.482488 121.118 0.482488H107.318V23.8019H114.111V10.5437L120.189 23.8019H127.102L122.94 14.9489ZM119.711 8.98785H114.11V6.73858H119.711V8.98785ZM173.32 1.52044C172.868 1.07238 172.32 0.848597 171.677 0.848597C171.039 0.848597 170.494 1.07263 170.044 1.52044C169.591 1.9702 169.364 2.51233 169.364 3.14635C169.364 3.78668 169.589 4.33196 170.038 4.78172C170.488 5.23366 171.035 5.45963 171.678 5.45963C172.32 5.45963 172.868 5.23342 173.321 4.78172C173.774 4.32978 174 3.7845 174 3.14635C174 2.51015 173.774 1.96802 173.32 1.52044ZM173.09 4.55866C172.702 4.94805 172.231 5.14274 171.677 5.14274C171.123 5.14274 170.652 4.94805 170.265 4.55866C169.879 4.16952 169.686 3.69867 169.686 3.14635C169.686 2.59792 169.88 2.13046 170.268 1.74326C170.658 1.35412 171.128 1.15943 171.677 1.15943C172.229 1.15943 172.7 1.35412 173.09 1.74326C173.478 2.13046 173.672 2.59792 173.672 3.14635C173.672 3.69867 173.478 4.16952 173.09 4.55866Z" fill="white"/>
</svg>
