<?xml version="1.0" encoding="utf-8"?>
<!-- Generator: Adobe Illustrator 28.2.0, SVG Export Plug-In . SVG Version: 6.00 Build 0)  -->
<svg version="1.1" id="Layer_1" xmlns="http://www.w3.org/2000/svg" xmlns:xlink="http://www.w3.org/1999/xlink" x="0px" y="0px"
	 viewBox="0 0 169 89" style="enable-background:new 0 0 169 89;" xml:space="preserve">
<style type="text/css">
	.st0{fill-rule:evenodd;clip-rule:evenodd;fill:#FFFFFF;}
</style>
<path class="st0" d="M36,52.7c-1.2,0-2.1,0.8-2.1,2c0,1.2,0.9,2,2.1,2c1.2,0,2.1-0.8,2.1-2C38.1,53.5,37.2,52.7,36,52.7z M36,56.1
	c-0.8,0-1.4-0.6-1.4-1.4c0-0.8,0.6-1.4,1.4-1.4c0.8,0,1.4,0.6,1.4,1.4C37.5,55.5,36.8,56.1,36,56.1z M56.1,45.7H46.1l1.1-17.5
	l-6.5,17.5h-9.3L46.2,6.2h9.9L55,23.9l6.7-17.7h9.3L56.1,45.7z M57.3,45.7L72.2,6.2h9.3L66.7,45.7H57.3z"/>
<path class="st0" d="M30.3,32.1C17.2,47.4,4.9,67.8,15.8,77.2c10.5,9.1,23.7,3.7,32.7,0.1c9-3.6,108.2-46.7,108.2-46.7
	c1-0.5,0.8-1.1-0.4-0.8c-0.5,0.1-108.1,29.3-108.1,29.3C34.6,62.9,19,54.6,30.3,32.1z"/>
<path class="st0" d="M36.4,54.8c0.3,0,0.5-0.2,0.5-0.6c0-0.5-0.3-0.6-0.9-0.6h-0.8v2.1h0.5v-0.9h0.1l0.5,0.9h0.6L36.4,54.8z
	 M36,54.5h-0.3V54H36c0.2,0,0.3,0,0.3,0.2C36.3,54.4,36.2,54.5,36,54.5z M129.9,6.1c-1.2,0-2.1,0.8-2.1,2c0,1.2,0.9,2,2.1,2
	s2.1-0.8,2.1-2C132,6.9,131.1,6.1,129.9,6.1z M129.9,9.5c-0.8,0-1.4-0.6-1.4-1.4c0-0.8,0.6-1.4,1.4-1.4c0.8,0,1.4,0.6,1.4,1.4
	C131.3,8.9,130.7,9.5,129.9,9.5z"/>
<path class="st0" d="M130.3,8.2c0.3,0,0.5-0.2,0.5-0.6c0-0.5-0.3-0.6-0.9-0.6h-0.8v2.1h0.5V8.2h0.1l0.5,0.9h0.6L130.3,8.2z
	 M129.9,7.8h-0.3V7.3h0.3c0.2,0,0.3,0,0.3,0.2C130.2,7.8,130.1,7.8,129.9,7.8z M123.8,12.8l2.5-6.6H97.8L88,18l4.5-11.9H83
	L68.3,45.7h9.3L84,29.2l0.4,16.5l28.7-0.1l2.7-7.6h-10.9l3.6-9.6h9l2.8-7.4h-9l3.1-8.3H123.8z M93.7,43.1l-0.6-20.6L107.2,7
	L93.7,43.1z"/>
</svg>
