<?xml version="1.0" encoding="utf-8"?>
<!-- Generator: Adobe Illustrator 28.2.0, SVG Export Plug-In . SVG Version: 6.00 Build 0)  -->
<svg version="1.1" id="Layer_1" xmlns="http://www.w3.org/2000/svg" xmlns:xlink="http://www.w3.org/1999/xlink" x="0px" y="0px"
	 viewBox="0 0 92 108" style="enable-background:new 0 0 92 108;" xml:space="preserve">
<style type="text/css">
	.st0{fill-rule:evenodd;clip-rule:evenodd;fill:#FFFFFF;}
</style>
<path class="st0" d="M56.1,30.6c2.5-2.9,4.2-7,3.7-11c-3.6,0.1-7.9,2.3-10.5,5.2c-2.3,2.6-4.3,6.7-3.8,10.6
	C49.6,35.8,53.6,33.5,56.1,30.6z M65.1,56.2c0.1,10.4,9.5,13.9,9.6,13.9c-0.1,0.2-1.5,4.9-4.9,9.8c-3,4.2-6.1,8.4-10.9,8.4
	c-4.8,0.1-6.3-2.7-11.8-2.7c-5.5,0-7.2,2.6-11.7,2.8c-4.7,0.2-8.3-4.5-11.3-8.7C18,71.1,13.3,55.5,19.6,45c3.1-5.2,8.7-8.5,14.8-8.6
	c4.6-0.1,9,3,11.8,3c2.8,0,8.1-3.7,13.7-3.2c2.3,0.1,8.9,0.9,13.1,6.8C72.5,43.3,65,47.5,65.1,56.2z"/>
</svg>
