<?xml version="1.0" encoding="utf-8"?>
<!-- Generator: Adobe Illustrator 28.2.0, SVG Export Plug-In . SVG Version: 6.00 Build 0)  -->
<svg version="1.1" id="Layer_1" xmlns="http://www.w3.org/2000/svg" xmlns:xlink="http://www.w3.org/1999/xlink" x="0px" y="0px"
	 viewBox="0 0 132 88" style="enable-background:new 0 0 132 88;" xml:space="preserve">
<style type="text/css">
	.st0{fill-rule:evenodd;clip-rule:evenodd;fill:#FFFFFF;}
</style>
<path class="st0" d="M11.1,7.4h11.6l6.4,43.8l6.3-43.8h79.3L112,20H45.1L34.9,77.7H23.3L11.1,7.4z"/>
<path class="st0" d="M116.7,61.4c0.3,6.8-3.6,17.3-12.2,17.3c-10,0-12.2-12.3-12.2-17.4h8.1c0,3,2.5,5.9,4.4,5.9
	c1.9,0,3.8-2.3,3.8-3.9c0-1.6-0.6-3.9-3.6-5.9c-9.7-5.8-11.9-12.4-11.9-18.2c-0.3-6.8,3-16.9,11.6-16.9c8.6,0,10.9,12,10.9,16.9
	h-7.7c0-2.8-1.9-4.8-3.8-4.8c-1.9,0-3.1,1.9-3.1,3.4c0,1.6,0.3,3,3.3,5C108.4,44.6,116.7,50.6,116.7,61.4z M117.1,74.6
	c0.3,0,0.7,0.1,1,0.2c0.3,0.1,0.6,0.3,0.8,0.5c0.2,0.2,0.4,0.5,0.5,0.8c0.1,0.3,0.2,0.6,0.2,1c0,0.3-0.1,0.7-0.2,1
	c-0.1,0.3-0.3,0.6-0.5,0.8c-0.2,0.2-0.5,0.4-0.8,0.5c-0.3,0.1-0.6,0.2-1,0.2c-0.3,0-0.7-0.1-1-0.2c-0.3-0.1-0.6-0.3-0.8-0.5
	s-0.4-0.5-0.5-0.8c-0.1-0.3-0.2-0.6-0.2-1C114.6,75.7,115.7,74.6,117.1,74.6V74c-1.7,0-3.1,1.4-3.1,3.1c0,0.4,0.1,0.8,0.2,1.2
	c0.2,0.4,0.4,0.7,0.7,1s0.6,0.5,1,0.7c0.4,0.2,0.8,0.2,1.2,0.2c1.7,0,3.1-1.4,3.1-3.1c0-0.8-0.3-1.6-0.9-2.2
	c-0.6-0.6-1.4-0.9-2.2-0.9V74.6z"/>
<path class="st0" d="M116.5,75.9h0.8c0.3,0,0.8,0,0.8,0.4c0,0.4-0.3,0.5-0.6,0.5h-1v0.5h0.7l0.7,1.4h0.8l-0.8-1.4
	c0.6,0,0.9-0.3,0.9-0.9c0-0.3-0.1-0.7-0.4-0.9c-0.3-0.2-0.6-0.2-0.9-0.2h-1.6v3.3h0.7V75.9z M49.1,59l3.1-20.2L55.4,59H49.1z
	 M47.2,70.4h9.7l1.3,7.3h15.5V48.8l9.5,28.9h8V23.9h-8.1v27.4L74,23.9h-8.4v50.5l-8.8-50.5h-9.1l-9.4,53.8h8L47.2,70.4z"/>
</svg>
