<?xml version="1.0" encoding="utf-8"?>
<!-- Generator: Adobe Illustrator 28.2.0, SVG Export Plug-In . SVG Version: 6.00 Build 0)  -->
<svg version="1.1" id="Layer_1" xmlns="http://www.w3.org/2000/svg" xmlns:xlink="http://www.w3.org/1999/xlink" x="0px" y="0px"
	 viewBox="0 0 135 78" style="enable-background:new 0 0 135 78;" xml:space="preserve">
<style type="text/css">
	.st0{fill:#FFFFFF;}
</style>
<path class="st0" d="M105.4,19.9h16.7l-8.3,35.3H97.2L105.4,19.9z M84.1,19.9h16.7l-8.1,33.8c-2,8.2-7.6,16.9-19.2,16.9h-25
	l3.8-11.5h11.5c5.4,0,11.5-3,12.8-8.4L84.1,19.9z M82.1,7.4H64.9l-8,33.9c-0.8,3.3-1.9,5.2-5.8,5.2H36.5c-3.3,0-3.2-2-2.5-4.8
	l2.3-9.4c0.6-2.3,1.3-3.4,4.4-3.4H55l2.1-9H29.3c-6.6,0-10.6,3.2-12.2,9.8l-3.8,15.8c-1.6,6.6,0.9,9.7,5.6,9.7h40.8
	c8.6,0,11.9-3.4,13.4-9.7L82.1,7.4z"/>
</svg>
